G04 #@! TF.FileFunction,Copper,L2,Bot,Signal*
%FSLAX46Y46*%
G04 Gerber Fmt 4.6, Leading zero omitted, Abs format (unit mm)*
G04 Created by KiCad (PCBNEW 4.0.6-e0-6349~53~ubuntu16.04.1) date Mon Apr 24 10:41:46 2017*
%MOMM*%
%LPD*%
G01*
G04 APERTURE LIST*
%ADD10C,0.100000*%
%ADD11R,1.700000X1.700000*%
%ADD12O,1.700000X1.700000*%
%ADD13C,2.499360*%
%ADD14C,1.600000*%
%ADD15O,1.600000X1.600000*%
%ADD16C,1.524000*%
%ADD17C,0.600000*%
%ADD18C,0.250000*%
G04 APERTURE END LIST*
D10*
D11*
X2730000Y2190000D03*
D12*
X5270000Y2190000D03*
X2730000Y4730000D03*
X5270000Y4730000D03*
X2730000Y7270000D03*
X5270000Y7270000D03*
X2730000Y9810000D03*
X5270000Y9810000D03*
D13*
X9080000Y72000000D03*
X-1080000Y72000000D03*
D14*
X9000000Y53000000D03*
D15*
X9000000Y63160000D03*
D14*
X-1000000Y53000000D03*
D15*
X-1000000Y63160000D03*
D14*
X9000000Y49000000D03*
D15*
X-1160000Y49000000D03*
D14*
X1500000Y45000000D03*
D15*
X1500000Y34840000D03*
D14*
X6500000Y34840000D03*
D15*
X6500000Y45000000D03*
D16*
X2730000Y72000000D03*
X5270000Y72000000D03*
X2730000Y63000000D03*
X5270000Y63000000D03*
X2730000Y54000000D03*
X5270000Y54000000D03*
X2000000Y31770000D03*
X2000000Y29230000D03*
X2000000Y24270000D03*
X2000000Y21730000D03*
D17*
X2250000Y48750000D03*
X6250000Y38750000D03*
X1750000Y38750000D03*
X2500000Y26500000D03*
X2500000Y13500000D03*
X6500000Y13500000D03*
X5575030Y24500000D03*
D18*
X5270000Y2190000D02*
X6472081Y2190000D01*
X6472081Y2190000D02*
X7000000Y2717919D01*
X7000000Y2717919D02*
X7000000Y13000000D01*
X7000000Y13000000D02*
X6500000Y13500000D01*
X4750000Y37250000D02*
X6250000Y38750000D01*
X4250000Y36750000D02*
X4750000Y37250000D01*
X4750000Y37250000D02*
X4750000Y46250000D01*
X4750000Y46250000D02*
X2250000Y48750000D01*
X4250000Y36000000D02*
X4250000Y36250000D01*
X4250000Y33500000D02*
X4250000Y36000000D01*
X4250000Y36000000D02*
X4250000Y36750000D01*
X4250000Y36250000D02*
X1750000Y38750000D01*
X6500000Y31250000D02*
X4250000Y33500000D01*
X6500000Y26500000D02*
X6500000Y31250000D01*
X6500000Y26500000D02*
X2500000Y26500000D01*
X6500000Y13500000D02*
X6500000Y26500000D01*
X6500000Y13500000D02*
X2500000Y13500000D01*
X2000000Y24270000D02*
X5345030Y24270000D01*
X5345030Y24270000D02*
X5575030Y24500000D01*
G36*
X6837114Y78849397D02*
X9242302Y77242302D01*
X10849397Y74837114D01*
X11425000Y71943370D01*
X11425000Y50056635D01*
X11153879Y48693619D01*
X10413875Y47586125D01*
X9306381Y46846121D01*
X7887823Y46563952D01*
X7835501Y46542279D01*
X7779957Y46531231D01*
X7732869Y46499768D01*
X7680547Y46478095D01*
X7640500Y46438048D01*
X7593414Y46406586D01*
X7561952Y46359500D01*
X7521905Y46319453D01*
X7500232Y46267131D01*
X7468769Y46220043D01*
X7457721Y46164499D01*
X7436048Y46112177D01*
X7436048Y46055542D01*
X7425000Y46000000D01*
X7425000Y45936086D01*
X7419239Y45944708D01*
X6997488Y46226512D01*
X6500000Y46325469D01*
X6002512Y46226512D01*
X5580761Y45944708D01*
X5298957Y45522957D01*
X5200000Y45025469D01*
X5200000Y44974531D01*
X5298957Y44477043D01*
X5580761Y44055292D01*
X6002512Y43773488D01*
X6500000Y43674531D01*
X6997488Y43773488D01*
X7419239Y44055292D01*
X7425000Y44063914D01*
X7425000Y35786033D01*
X7347127Y35863906D01*
X7255856Y35772635D01*
X7174492Y35981021D01*
X6686500Y36152283D01*
X6170115Y36123762D01*
X5825508Y35981021D01*
X5744143Y35772634D01*
X6500000Y35016777D01*
X6514142Y35030919D01*
X6690919Y34854142D01*
X6676777Y34840000D01*
X6690919Y34825858D01*
X6514142Y34649081D01*
X6500000Y34663223D01*
X5744143Y33907366D01*
X5825508Y33698979D01*
X6313500Y33527717D01*
X6829885Y33556238D01*
X7174492Y33698979D01*
X7255856Y33907365D01*
X7347127Y33816094D01*
X7425000Y33893967D01*
X7425000Y575000D01*
X575000Y575000D01*
X575000Y1940000D01*
X1380000Y1940000D01*
X1380000Y1240544D01*
X1456121Y1056773D01*
X1596773Y916120D01*
X1780544Y840000D01*
X2480000Y840000D01*
X2605000Y965000D01*
X2605000Y2065000D01*
X2855000Y2065000D01*
X2855000Y965000D01*
X2980000Y840000D01*
X3679456Y840000D01*
X3863227Y916120D01*
X4003879Y1056773D01*
X4080000Y1240544D01*
X4080000Y1571129D01*
X4109038Y1501020D01*
X4461072Y1109184D01*
X4936258Y881893D01*
X5145000Y970789D01*
X5145000Y2065000D01*
X5395000Y2065000D01*
X5395000Y970789D01*
X5603742Y881893D01*
X6078928Y1109184D01*
X6430962Y1501020D01*
X6578097Y1856260D01*
X6488606Y2065000D01*
X5395000Y2065000D01*
X5145000Y2065000D01*
X4051394Y2065000D01*
X4022469Y1997531D01*
X3955000Y2065000D01*
X2855000Y2065000D01*
X2605000Y2065000D01*
X1505000Y2065000D01*
X1380000Y1940000D01*
X575000Y1940000D01*
X575000Y9810000D01*
X1353552Y9810000D01*
X1456315Y9293377D01*
X1748958Y8855406D01*
X2186929Y8562763D01*
X2301366Y8540000D01*
X2186929Y8517237D01*
X1748958Y8224594D01*
X1456315Y7786623D01*
X1353552Y7270000D01*
X1456315Y6753377D01*
X1748958Y6315406D01*
X2186929Y6022763D01*
X2301366Y6000000D01*
X2186929Y5977237D01*
X1748958Y5684594D01*
X1456315Y5246623D01*
X1353552Y4730000D01*
X1456315Y4213377D01*
X1748958Y3775406D01*
X2101268Y3540000D01*
X1780544Y3540000D01*
X1596773Y3463880D01*
X1456121Y3323227D01*
X1380000Y3139456D01*
X1380000Y2440000D01*
X1505000Y2315000D01*
X2605000Y2315000D01*
X2605000Y2335000D01*
X2855000Y2335000D01*
X2855000Y2315000D01*
X3955000Y2315000D01*
X4022469Y2382469D01*
X4051394Y2315000D01*
X5145000Y2315000D01*
X5145000Y2335000D01*
X5395000Y2335000D01*
X5395000Y2315000D01*
X6488606Y2315000D01*
X6578097Y2523740D01*
X6430962Y2878980D01*
X6078928Y3270816D01*
X5687882Y3457861D01*
X5813071Y3482763D01*
X6251042Y3775406D01*
X6543685Y4213377D01*
X6646448Y4730000D01*
X6543685Y5246623D01*
X6251042Y5684594D01*
X5813071Y5977237D01*
X5698634Y6000000D01*
X5813071Y6022763D01*
X6251042Y6315406D01*
X6543685Y6753377D01*
X6646448Y7270000D01*
X6543685Y7786623D01*
X6251042Y8224594D01*
X5813071Y8517237D01*
X5698634Y8540000D01*
X5813071Y8562763D01*
X6251042Y8855406D01*
X6543685Y9293377D01*
X6646448Y9810000D01*
X6543685Y10326623D01*
X6251042Y10764594D01*
X5813071Y11057237D01*
X5296448Y11160000D01*
X5243552Y11160000D01*
X4726929Y11057237D01*
X4288958Y10764594D01*
X4000000Y10332138D01*
X3711042Y10764594D01*
X3273071Y11057237D01*
X2756448Y11160000D01*
X2703552Y11160000D01*
X2186929Y11057237D01*
X1748958Y10764594D01*
X1456315Y10326623D01*
X1353552Y9810000D01*
X575000Y9810000D01*
X575000Y21480074D01*
X737781Y21480074D01*
X929505Y21016068D01*
X1284201Y20660752D01*
X1747871Y20468220D01*
X2249926Y20467781D01*
X2713932Y20659505D01*
X3069248Y21014201D01*
X3261780Y21477871D01*
X3262219Y21979926D01*
X3070495Y22443932D01*
X2715799Y22799248D01*
X2252129Y22991780D01*
X1750074Y22992219D01*
X1286068Y22800495D01*
X930752Y22445799D01*
X738220Y21982129D01*
X737781Y21480074D01*
X575000Y21480074D01*
X575000Y24020074D01*
X737781Y24020074D01*
X929505Y23556068D01*
X1284201Y23200752D01*
X1747871Y23008220D01*
X2249926Y23007781D01*
X2713932Y23199505D01*
X3069248Y23554201D01*
X3106951Y23645000D01*
X5345030Y23645000D01*
X5584207Y23692575D01*
X5595292Y23699982D01*
X5733462Y23699861D01*
X6027602Y23821397D01*
X6252842Y24046245D01*
X6374891Y24340172D01*
X6375169Y24658432D01*
X6253633Y24952572D01*
X6028785Y25177812D01*
X5734858Y25299861D01*
X5416598Y25300139D01*
X5122458Y25178603D01*
X4897218Y24953755D01*
X4872821Y24895000D01*
X3107241Y24895000D01*
X3070495Y24983932D01*
X2715799Y25339248D01*
X2252129Y25531780D01*
X1750074Y25532219D01*
X1286068Y25340495D01*
X930752Y24985799D01*
X738220Y24522129D01*
X737781Y24020074D01*
X575000Y24020074D01*
X575000Y28980074D01*
X737781Y28980074D01*
X929505Y28516068D01*
X1284201Y28160752D01*
X1747871Y27968220D01*
X2249926Y27967781D01*
X2713932Y28159505D01*
X3069248Y28514201D01*
X3261780Y28977871D01*
X3262219Y29479926D01*
X3070495Y29943932D01*
X2715799Y30299248D01*
X2252129Y30491780D01*
X1750074Y30492219D01*
X1286068Y30300495D01*
X930752Y29945799D01*
X738220Y29482129D01*
X737781Y28980074D01*
X575000Y28980074D01*
X575000Y31520074D01*
X737781Y31520074D01*
X929505Y31056068D01*
X1284201Y30700752D01*
X1747871Y30508220D01*
X2249926Y30507781D01*
X2713932Y30699505D01*
X3069248Y31054201D01*
X3261780Y31517871D01*
X3262219Y32019926D01*
X3070495Y32483932D01*
X2715799Y32839248D01*
X2252129Y33031780D01*
X1750074Y33032219D01*
X1286068Y32840495D01*
X930752Y32485799D01*
X738220Y32022129D01*
X737781Y31520074D01*
X575000Y31520074D01*
X575000Y33903914D01*
X580761Y33895292D01*
X1002512Y33613488D01*
X1500000Y33514531D01*
X1997488Y33613488D01*
X2419239Y33895292D01*
X2701043Y34317043D01*
X2800000Y34814531D01*
X2800000Y34865469D01*
X2767969Y35026500D01*
X5187717Y35026500D01*
X5216238Y34510115D01*
X5358979Y34165508D01*
X5567366Y34084143D01*
X6323223Y34840000D01*
X5567366Y35595857D01*
X5358979Y35514492D01*
X5187717Y35026500D01*
X2767969Y35026500D01*
X2701043Y35362957D01*
X2419239Y35784708D01*
X1997488Y36066512D01*
X1500000Y36165469D01*
X1002512Y36066512D01*
X580761Y35784708D01*
X575000Y35776086D01*
X575000Y44053967D01*
X652873Y43976094D01*
X744144Y44067365D01*
X825508Y43858979D01*
X1313500Y43687717D01*
X1829885Y43716238D01*
X2174492Y43858979D01*
X2255857Y44067366D01*
X1500000Y44823223D01*
X1485858Y44809081D01*
X1309081Y44985858D01*
X1323223Y45000000D01*
X1676777Y45000000D01*
X2432634Y44244143D01*
X2641021Y44325508D01*
X2812283Y44813500D01*
X2783762Y45329885D01*
X2641021Y45674492D01*
X2432634Y45755857D01*
X1676777Y45000000D01*
X1323223Y45000000D01*
X1309081Y45014142D01*
X1485858Y45190919D01*
X1500000Y45176777D01*
X2255857Y45932634D01*
X2174492Y46141021D01*
X1686500Y46312283D01*
X1170115Y46283762D01*
X825508Y46141021D01*
X744144Y45932635D01*
X652873Y46023906D01*
X575000Y45946033D01*
X575000Y46000000D01*
X563952Y46055542D01*
X563952Y46112177D01*
X542279Y46164499D01*
X531231Y46220043D01*
X499768Y46267131D01*
X478095Y46319453D01*
X438048Y46359500D01*
X406586Y46406586D01*
X359500Y46438048D01*
X319453Y46478095D01*
X267131Y46499768D01*
X220043Y46531231D01*
X164499Y46542279D01*
X112177Y46563952D01*
X-1306381Y46846121D01*
X-2413875Y47586125D01*
X-3153879Y48693619D01*
X-3214822Y49000000D01*
X-2485469Y49000000D01*
X-2386512Y48502512D01*
X-2104708Y48080761D01*
X-1682957Y47798957D01*
X-1185469Y47700000D01*
X-1134531Y47700000D01*
X-637043Y47798957D01*
X-235340Y48067366D01*
X8244143Y48067366D01*
X8325508Y47858979D01*
X8813500Y47687717D01*
X9329885Y47716238D01*
X9674492Y47858979D01*
X9755857Y48067366D01*
X9000000Y48823223D01*
X8244143Y48067366D01*
X-235340Y48067366D01*
X-215292Y48080761D01*
X66512Y48502512D01*
X165469Y49000000D01*
X128372Y49186500D01*
X7687717Y49186500D01*
X7716238Y48670115D01*
X7858979Y48325508D01*
X8067366Y48244143D01*
X8823223Y49000000D01*
X9176777Y49000000D01*
X9932634Y48244143D01*
X10141021Y48325508D01*
X10312283Y48813500D01*
X10283762Y49329885D01*
X10141021Y49674492D01*
X9932634Y49755857D01*
X9176777Y49000000D01*
X8823223Y49000000D01*
X8067366Y49755857D01*
X7858979Y49674492D01*
X7687717Y49186500D01*
X128372Y49186500D01*
X66512Y49497488D01*
X-215292Y49919239D01*
X-235339Y49932634D01*
X8244143Y49932634D01*
X9000000Y49176777D01*
X9755857Y49932634D01*
X9674492Y50141021D01*
X9186500Y50312283D01*
X8670115Y50283762D01*
X8325508Y50141021D01*
X8244143Y49932634D01*
X-235339Y49932634D01*
X-637043Y50201043D01*
X-1134531Y50300000D01*
X-1185469Y50300000D01*
X-1682957Y50201043D01*
X-2104708Y49919239D01*
X-2386512Y49497488D01*
X-2485469Y49000000D01*
X-3214822Y49000000D01*
X-3425000Y50056635D01*
X-3425000Y52067366D01*
X-1755857Y52067366D01*
X-1674492Y51858979D01*
X-1186500Y51687717D01*
X-670115Y51716238D01*
X-325508Y51858979D01*
X-244143Y52067366D01*
X8244143Y52067366D01*
X8325508Y51858979D01*
X8813500Y51687717D01*
X9329885Y51716238D01*
X9674492Y51858979D01*
X9755857Y52067366D01*
X9000000Y52823223D01*
X8244143Y52067366D01*
X-244143Y52067366D01*
X-1000000Y52823223D01*
X-1755857Y52067366D01*
X-3425000Y52067366D01*
X-3425000Y53186500D01*
X-2312283Y53186500D01*
X-2283762Y52670115D01*
X-2141021Y52325508D01*
X-1932634Y52244143D01*
X-1176777Y53000000D01*
X-823223Y53000000D01*
X-67366Y52244143D01*
X141021Y52325508D01*
X312283Y52813500D01*
X283762Y53329885D01*
X141021Y53674492D01*
X-52554Y53750074D01*
X1467781Y53750074D01*
X1659505Y53286068D01*
X2014201Y52930752D01*
X2477871Y52738220D01*
X2979926Y52737781D01*
X3443932Y52929505D01*
X3799248Y53284201D01*
X3991780Y53747871D01*
X3991781Y53750074D01*
X4007781Y53750074D01*
X4199505Y53286068D01*
X4554201Y52930752D01*
X5017871Y52738220D01*
X5519926Y52737781D01*
X5983932Y52929505D01*
X6241376Y53186500D01*
X7687717Y53186500D01*
X7716238Y52670115D01*
X7858979Y52325508D01*
X8067366Y52244143D01*
X8823223Y53000000D01*
X9176777Y53000000D01*
X9932634Y52244143D01*
X10141021Y52325508D01*
X10312283Y52813500D01*
X10283762Y53329885D01*
X10141021Y53674492D01*
X9932634Y53755857D01*
X9176777Y53000000D01*
X8823223Y53000000D01*
X8067366Y53755857D01*
X7858979Y53674492D01*
X7687717Y53186500D01*
X6241376Y53186500D01*
X6339248Y53284201D01*
X6531780Y53747871D01*
X6531941Y53932634D01*
X8244143Y53932634D01*
X9000000Y53176777D01*
X9755857Y53932634D01*
X9674492Y54141021D01*
X9186500Y54312283D01*
X8670115Y54283762D01*
X8325508Y54141021D01*
X8244143Y53932634D01*
X6531941Y53932634D01*
X6532219Y54249926D01*
X6340495Y54713932D01*
X5985799Y55069248D01*
X5522129Y55261780D01*
X5020074Y55262219D01*
X4556068Y55070495D01*
X4200752Y54715799D01*
X4008220Y54252129D01*
X4007781Y53750074D01*
X3991781Y53750074D01*
X3992219Y54249926D01*
X3800495Y54713932D01*
X3445799Y55069248D01*
X2982129Y55261780D01*
X2480074Y55262219D01*
X2016068Y55070495D01*
X1660752Y54715799D01*
X1468220Y54252129D01*
X1467781Y53750074D01*
X-52554Y53750074D01*
X-67366Y53755857D01*
X-823223Y53000000D01*
X-1176777Y53000000D01*
X-1932634Y53755857D01*
X-2141021Y53674492D01*
X-2312283Y53186500D01*
X-3425000Y53186500D01*
X-3425000Y53932634D01*
X-1755857Y53932634D01*
X-1000000Y53176777D01*
X-244143Y53932634D01*
X-325508Y54141021D01*
X-813500Y54312283D01*
X-1329885Y54283762D01*
X-1674492Y54141021D01*
X-1755857Y53932634D01*
X-3425000Y53932634D01*
X-3425000Y63185469D01*
X-2300000Y63185469D01*
X-2300000Y63134531D01*
X-2201043Y62637043D01*
X-1919239Y62215292D01*
X-1497488Y61933488D01*
X-1000000Y61834531D01*
X-502512Y61933488D01*
X-80761Y62215292D01*
X201043Y62637043D01*
X223526Y62750074D01*
X1467781Y62750074D01*
X1659505Y62286068D01*
X2014201Y61930752D01*
X2477871Y61738220D01*
X2979926Y61737781D01*
X3443932Y61929505D01*
X3799248Y62284201D01*
X3991780Y62747871D01*
X3991781Y62750074D01*
X4007781Y62750074D01*
X4199505Y62286068D01*
X4554201Y61930752D01*
X5017871Y61738220D01*
X5519926Y61737781D01*
X5983932Y61929505D01*
X6339248Y62284201D01*
X6531780Y62747871D01*
X6532162Y63185469D01*
X7700000Y63185469D01*
X7700000Y63134531D01*
X7798957Y62637043D01*
X8080761Y62215292D01*
X8502512Y61933488D01*
X9000000Y61834531D01*
X9497488Y61933488D01*
X9919239Y62215292D01*
X10201043Y62637043D01*
X10300000Y63134531D01*
X10300000Y63185469D01*
X10201043Y63682957D01*
X9919239Y64104708D01*
X9497488Y64386512D01*
X9000000Y64485469D01*
X8502512Y64386512D01*
X8080761Y64104708D01*
X7798957Y63682957D01*
X7700000Y63185469D01*
X6532162Y63185469D01*
X6532219Y63249926D01*
X6340495Y63713932D01*
X5985799Y64069248D01*
X5522129Y64261780D01*
X5020074Y64262219D01*
X4556068Y64070495D01*
X4200752Y63715799D01*
X4008220Y63252129D01*
X4007781Y62750074D01*
X3991781Y62750074D01*
X3992219Y63249926D01*
X3800495Y63713932D01*
X3445799Y64069248D01*
X2982129Y64261780D01*
X2480074Y64262219D01*
X2016068Y64070495D01*
X1660752Y63715799D01*
X1468220Y63252129D01*
X1467781Y62750074D01*
X223526Y62750074D01*
X300000Y63134531D01*
X300000Y63185469D01*
X201043Y63682957D01*
X-80761Y64104708D01*
X-502512Y64386512D01*
X-1000000Y64485469D01*
X-1497488Y64386512D01*
X-1919239Y64104708D01*
X-2201043Y63682957D01*
X-2300000Y63185469D01*
X-3425000Y63185469D01*
X-3425000Y71653494D01*
X-2829983Y71653494D01*
X-2564171Y71010181D01*
X-2072408Y70517559D01*
X-1429560Y70250625D01*
X-733494Y70250017D01*
X-90181Y70515829D01*
X402441Y71007592D01*
X669375Y71650440D01*
X669462Y71750074D01*
X1467781Y71750074D01*
X1659505Y71286068D01*
X2014201Y70930752D01*
X2477871Y70738220D01*
X2979926Y70737781D01*
X3443932Y70929505D01*
X3799248Y71284201D01*
X3991780Y71747871D01*
X3991781Y71750074D01*
X4007781Y71750074D01*
X4199505Y71286068D01*
X4554201Y70930752D01*
X5017871Y70738220D01*
X5519926Y70737781D01*
X5529860Y70741886D01*
X7998663Y70741886D01*
X8135121Y70486822D01*
X8786114Y70240416D01*
X9481849Y70261891D01*
X10024879Y70486822D01*
X10161337Y70741886D01*
X9080000Y71823223D01*
X7998663Y70741886D01*
X5529860Y70741886D01*
X5983932Y70929505D01*
X6339248Y71284201D01*
X6531780Y71747871D01*
X6532219Y72249926D01*
X6514056Y72293886D01*
X7320416Y72293886D01*
X7341891Y71598151D01*
X7566822Y71055121D01*
X7821886Y70918663D01*
X8903223Y72000000D01*
X9256777Y72000000D01*
X10338114Y70918663D01*
X10593178Y71055121D01*
X10839584Y71706114D01*
X10818109Y72401849D01*
X10593178Y72944879D01*
X10338114Y73081337D01*
X9256777Y72000000D01*
X8903223Y72000000D01*
X7821886Y73081337D01*
X7566822Y72944879D01*
X7320416Y72293886D01*
X6514056Y72293886D01*
X6340495Y72713932D01*
X5985799Y73069248D01*
X5530958Y73258114D01*
X7998663Y73258114D01*
X9080000Y72176777D01*
X10161337Y73258114D01*
X10024879Y73513178D01*
X9373886Y73759584D01*
X8678151Y73738109D01*
X8135121Y73513178D01*
X7998663Y73258114D01*
X5530958Y73258114D01*
X5522129Y73261780D01*
X5020074Y73262219D01*
X4556068Y73070495D01*
X4200752Y72715799D01*
X4008220Y72252129D01*
X4007781Y71750074D01*
X3991781Y71750074D01*
X3992219Y72249926D01*
X3800495Y72713932D01*
X3445799Y73069248D01*
X2982129Y73261780D01*
X2480074Y73262219D01*
X2016068Y73070495D01*
X1660752Y72715799D01*
X1468220Y72252129D01*
X1467781Y71750074D01*
X669462Y71750074D01*
X669983Y72346506D01*
X404171Y72989819D01*
X-87592Y73482441D01*
X-730440Y73749375D01*
X-1426506Y73749983D01*
X-2069819Y73484171D01*
X-2562441Y72992408D01*
X-2829375Y72349560D01*
X-2829983Y71653494D01*
X-3425000Y71653494D01*
X-3425000Y71943365D01*
X-2849397Y74837114D01*
X-1242302Y77242302D01*
X1162886Y78849397D01*
X3999998Y79413735D01*
X6837114Y78849397D01*
X6837114Y78849397D01*
G37*
X6837114Y78849397D02*
X9242302Y77242302D01*
X10849397Y74837114D01*
X11425000Y71943370D01*
X11425000Y50056635D01*
X11153879Y48693619D01*
X10413875Y47586125D01*
X9306381Y46846121D01*
X7887823Y46563952D01*
X7835501Y46542279D01*
X7779957Y46531231D01*
X7732869Y46499768D01*
X7680547Y46478095D01*
X7640500Y46438048D01*
X7593414Y46406586D01*
X7561952Y46359500D01*
X7521905Y46319453D01*
X7500232Y46267131D01*
X7468769Y46220043D01*
X7457721Y46164499D01*
X7436048Y46112177D01*
X7436048Y46055542D01*
X7425000Y46000000D01*
X7425000Y45936086D01*
X7419239Y45944708D01*
X6997488Y46226512D01*
X6500000Y46325469D01*
X6002512Y46226512D01*
X5580761Y45944708D01*
X5298957Y45522957D01*
X5200000Y45025469D01*
X5200000Y44974531D01*
X5298957Y44477043D01*
X5580761Y44055292D01*
X6002512Y43773488D01*
X6500000Y43674531D01*
X6997488Y43773488D01*
X7419239Y44055292D01*
X7425000Y44063914D01*
X7425000Y35786033D01*
X7347127Y35863906D01*
X7255856Y35772635D01*
X7174492Y35981021D01*
X6686500Y36152283D01*
X6170115Y36123762D01*
X5825508Y35981021D01*
X5744143Y35772634D01*
X6500000Y35016777D01*
X6514142Y35030919D01*
X6690919Y34854142D01*
X6676777Y34840000D01*
X6690919Y34825858D01*
X6514142Y34649081D01*
X6500000Y34663223D01*
X5744143Y33907366D01*
X5825508Y33698979D01*
X6313500Y33527717D01*
X6829885Y33556238D01*
X7174492Y33698979D01*
X7255856Y33907365D01*
X7347127Y33816094D01*
X7425000Y33893967D01*
X7425000Y575000D01*
X575000Y575000D01*
X575000Y1940000D01*
X1380000Y1940000D01*
X1380000Y1240544D01*
X1456121Y1056773D01*
X1596773Y916120D01*
X1780544Y840000D01*
X2480000Y840000D01*
X2605000Y965000D01*
X2605000Y2065000D01*
X2855000Y2065000D01*
X2855000Y965000D01*
X2980000Y840000D01*
X3679456Y840000D01*
X3863227Y916120D01*
X4003879Y1056773D01*
X4080000Y1240544D01*
X4080000Y1571129D01*
X4109038Y1501020D01*
X4461072Y1109184D01*
X4936258Y881893D01*
X5145000Y970789D01*
X5145000Y2065000D01*
X5395000Y2065000D01*
X5395000Y970789D01*
X5603742Y881893D01*
X6078928Y1109184D01*
X6430962Y1501020D01*
X6578097Y1856260D01*
X6488606Y2065000D01*
X5395000Y2065000D01*
X5145000Y2065000D01*
X4051394Y2065000D01*
X4022469Y1997531D01*
X3955000Y2065000D01*
X2855000Y2065000D01*
X2605000Y2065000D01*
X1505000Y2065000D01*
X1380000Y1940000D01*
X575000Y1940000D01*
X575000Y9810000D01*
X1353552Y9810000D01*
X1456315Y9293377D01*
X1748958Y8855406D01*
X2186929Y8562763D01*
X2301366Y8540000D01*
X2186929Y8517237D01*
X1748958Y8224594D01*
X1456315Y7786623D01*
X1353552Y7270000D01*
X1456315Y6753377D01*
X1748958Y6315406D01*
X2186929Y6022763D01*
X2301366Y6000000D01*
X2186929Y5977237D01*
X1748958Y5684594D01*
X1456315Y5246623D01*
X1353552Y4730000D01*
X1456315Y4213377D01*
X1748958Y3775406D01*
X2101268Y3540000D01*
X1780544Y3540000D01*
X1596773Y3463880D01*
X1456121Y3323227D01*
X1380000Y3139456D01*
X1380000Y2440000D01*
X1505000Y2315000D01*
X2605000Y2315000D01*
X2605000Y2335000D01*
X2855000Y2335000D01*
X2855000Y2315000D01*
X3955000Y2315000D01*
X4022469Y2382469D01*
X4051394Y2315000D01*
X5145000Y2315000D01*
X5145000Y2335000D01*
X5395000Y2335000D01*
X5395000Y2315000D01*
X6488606Y2315000D01*
X6578097Y2523740D01*
X6430962Y2878980D01*
X6078928Y3270816D01*
X5687882Y3457861D01*
X5813071Y3482763D01*
X6251042Y3775406D01*
X6543685Y4213377D01*
X6646448Y4730000D01*
X6543685Y5246623D01*
X6251042Y5684594D01*
X5813071Y5977237D01*
X5698634Y6000000D01*
X5813071Y6022763D01*
X6251042Y6315406D01*
X6543685Y6753377D01*
X6646448Y7270000D01*
X6543685Y7786623D01*
X6251042Y8224594D01*
X5813071Y8517237D01*
X5698634Y8540000D01*
X5813071Y8562763D01*
X6251042Y8855406D01*
X6543685Y9293377D01*
X6646448Y9810000D01*
X6543685Y10326623D01*
X6251042Y10764594D01*
X5813071Y11057237D01*
X5296448Y11160000D01*
X5243552Y11160000D01*
X4726929Y11057237D01*
X4288958Y10764594D01*
X4000000Y10332138D01*
X3711042Y10764594D01*
X3273071Y11057237D01*
X2756448Y11160000D01*
X2703552Y11160000D01*
X2186929Y11057237D01*
X1748958Y10764594D01*
X1456315Y10326623D01*
X1353552Y9810000D01*
X575000Y9810000D01*
X575000Y21480074D01*
X737781Y21480074D01*
X929505Y21016068D01*
X1284201Y20660752D01*
X1747871Y20468220D01*
X2249926Y20467781D01*
X2713932Y20659505D01*
X3069248Y21014201D01*
X3261780Y21477871D01*
X3262219Y21979926D01*
X3070495Y22443932D01*
X2715799Y22799248D01*
X2252129Y22991780D01*
X1750074Y22992219D01*
X1286068Y22800495D01*
X930752Y22445799D01*
X738220Y21982129D01*
X737781Y21480074D01*
X575000Y21480074D01*
X575000Y24020074D01*
X737781Y24020074D01*
X929505Y23556068D01*
X1284201Y23200752D01*
X1747871Y23008220D01*
X2249926Y23007781D01*
X2713932Y23199505D01*
X3069248Y23554201D01*
X3106951Y23645000D01*
X5345030Y23645000D01*
X5584207Y23692575D01*
X5595292Y23699982D01*
X5733462Y23699861D01*
X6027602Y23821397D01*
X6252842Y24046245D01*
X6374891Y24340172D01*
X6375169Y24658432D01*
X6253633Y24952572D01*
X6028785Y25177812D01*
X5734858Y25299861D01*
X5416598Y25300139D01*
X5122458Y25178603D01*
X4897218Y24953755D01*
X4872821Y24895000D01*
X3107241Y24895000D01*
X3070495Y24983932D01*
X2715799Y25339248D01*
X2252129Y25531780D01*
X1750074Y25532219D01*
X1286068Y25340495D01*
X930752Y24985799D01*
X738220Y24522129D01*
X737781Y24020074D01*
X575000Y24020074D01*
X575000Y28980074D01*
X737781Y28980074D01*
X929505Y28516068D01*
X1284201Y28160752D01*
X1747871Y27968220D01*
X2249926Y27967781D01*
X2713932Y28159505D01*
X3069248Y28514201D01*
X3261780Y28977871D01*
X3262219Y29479926D01*
X3070495Y29943932D01*
X2715799Y30299248D01*
X2252129Y30491780D01*
X1750074Y30492219D01*
X1286068Y30300495D01*
X930752Y29945799D01*
X738220Y29482129D01*
X737781Y28980074D01*
X575000Y28980074D01*
X575000Y31520074D01*
X737781Y31520074D01*
X929505Y31056068D01*
X1284201Y30700752D01*
X1747871Y30508220D01*
X2249926Y30507781D01*
X2713932Y30699505D01*
X3069248Y31054201D01*
X3261780Y31517871D01*
X3262219Y32019926D01*
X3070495Y32483932D01*
X2715799Y32839248D01*
X2252129Y33031780D01*
X1750074Y33032219D01*
X1286068Y32840495D01*
X930752Y32485799D01*
X738220Y32022129D01*
X737781Y31520074D01*
X575000Y31520074D01*
X575000Y33903914D01*
X580761Y33895292D01*
X1002512Y33613488D01*
X1500000Y33514531D01*
X1997488Y33613488D01*
X2419239Y33895292D01*
X2701043Y34317043D01*
X2800000Y34814531D01*
X2800000Y34865469D01*
X2767969Y35026500D01*
X5187717Y35026500D01*
X5216238Y34510115D01*
X5358979Y34165508D01*
X5567366Y34084143D01*
X6323223Y34840000D01*
X5567366Y35595857D01*
X5358979Y35514492D01*
X5187717Y35026500D01*
X2767969Y35026500D01*
X2701043Y35362957D01*
X2419239Y35784708D01*
X1997488Y36066512D01*
X1500000Y36165469D01*
X1002512Y36066512D01*
X580761Y35784708D01*
X575000Y35776086D01*
X575000Y44053967D01*
X652873Y43976094D01*
X744144Y44067365D01*
X825508Y43858979D01*
X1313500Y43687717D01*
X1829885Y43716238D01*
X2174492Y43858979D01*
X2255857Y44067366D01*
X1500000Y44823223D01*
X1485858Y44809081D01*
X1309081Y44985858D01*
X1323223Y45000000D01*
X1676777Y45000000D01*
X2432634Y44244143D01*
X2641021Y44325508D01*
X2812283Y44813500D01*
X2783762Y45329885D01*
X2641021Y45674492D01*
X2432634Y45755857D01*
X1676777Y45000000D01*
X1323223Y45000000D01*
X1309081Y45014142D01*
X1485858Y45190919D01*
X1500000Y45176777D01*
X2255857Y45932634D01*
X2174492Y46141021D01*
X1686500Y46312283D01*
X1170115Y46283762D01*
X825508Y46141021D01*
X744144Y45932635D01*
X652873Y46023906D01*
X575000Y45946033D01*
X575000Y46000000D01*
X563952Y46055542D01*
X563952Y46112177D01*
X542279Y46164499D01*
X531231Y46220043D01*
X499768Y46267131D01*
X478095Y46319453D01*
X438048Y46359500D01*
X406586Y46406586D01*
X359500Y46438048D01*
X319453Y46478095D01*
X267131Y46499768D01*
X220043Y46531231D01*
X164499Y46542279D01*
X112177Y46563952D01*
X-1306381Y46846121D01*
X-2413875Y47586125D01*
X-3153879Y48693619D01*
X-3214822Y49000000D01*
X-2485469Y49000000D01*
X-2386512Y48502512D01*
X-2104708Y48080761D01*
X-1682957Y47798957D01*
X-1185469Y47700000D01*
X-1134531Y47700000D01*
X-637043Y47798957D01*
X-235340Y48067366D01*
X8244143Y48067366D01*
X8325508Y47858979D01*
X8813500Y47687717D01*
X9329885Y47716238D01*
X9674492Y47858979D01*
X9755857Y48067366D01*
X9000000Y48823223D01*
X8244143Y48067366D01*
X-235340Y48067366D01*
X-215292Y48080761D01*
X66512Y48502512D01*
X165469Y49000000D01*
X128372Y49186500D01*
X7687717Y49186500D01*
X7716238Y48670115D01*
X7858979Y48325508D01*
X8067366Y48244143D01*
X8823223Y49000000D01*
X9176777Y49000000D01*
X9932634Y48244143D01*
X10141021Y48325508D01*
X10312283Y48813500D01*
X10283762Y49329885D01*
X10141021Y49674492D01*
X9932634Y49755857D01*
X9176777Y49000000D01*
X8823223Y49000000D01*
X8067366Y49755857D01*
X7858979Y49674492D01*
X7687717Y49186500D01*
X128372Y49186500D01*
X66512Y49497488D01*
X-215292Y49919239D01*
X-235339Y49932634D01*
X8244143Y49932634D01*
X9000000Y49176777D01*
X9755857Y49932634D01*
X9674492Y50141021D01*
X9186500Y50312283D01*
X8670115Y50283762D01*
X8325508Y50141021D01*
X8244143Y49932634D01*
X-235339Y49932634D01*
X-637043Y50201043D01*
X-1134531Y50300000D01*
X-1185469Y50300000D01*
X-1682957Y50201043D01*
X-2104708Y49919239D01*
X-2386512Y49497488D01*
X-2485469Y49000000D01*
X-3214822Y49000000D01*
X-3425000Y50056635D01*
X-3425000Y52067366D01*
X-1755857Y52067366D01*
X-1674492Y51858979D01*
X-1186500Y51687717D01*
X-670115Y51716238D01*
X-325508Y51858979D01*
X-244143Y52067366D01*
X8244143Y52067366D01*
X8325508Y51858979D01*
X8813500Y51687717D01*
X9329885Y51716238D01*
X9674492Y51858979D01*
X9755857Y52067366D01*
X9000000Y52823223D01*
X8244143Y52067366D01*
X-244143Y52067366D01*
X-1000000Y52823223D01*
X-1755857Y52067366D01*
X-3425000Y52067366D01*
X-3425000Y53186500D01*
X-2312283Y53186500D01*
X-2283762Y52670115D01*
X-2141021Y52325508D01*
X-1932634Y52244143D01*
X-1176777Y53000000D01*
X-823223Y53000000D01*
X-67366Y52244143D01*
X141021Y52325508D01*
X312283Y52813500D01*
X283762Y53329885D01*
X141021Y53674492D01*
X-52554Y53750074D01*
X1467781Y53750074D01*
X1659505Y53286068D01*
X2014201Y52930752D01*
X2477871Y52738220D01*
X2979926Y52737781D01*
X3443932Y52929505D01*
X3799248Y53284201D01*
X3991780Y53747871D01*
X3991781Y53750074D01*
X4007781Y53750074D01*
X4199505Y53286068D01*
X4554201Y52930752D01*
X5017871Y52738220D01*
X5519926Y52737781D01*
X5983932Y52929505D01*
X6241376Y53186500D01*
X7687717Y53186500D01*
X7716238Y52670115D01*
X7858979Y52325508D01*
X8067366Y52244143D01*
X8823223Y53000000D01*
X9176777Y53000000D01*
X9932634Y52244143D01*
X10141021Y52325508D01*
X10312283Y52813500D01*
X10283762Y53329885D01*
X10141021Y53674492D01*
X9932634Y53755857D01*
X9176777Y53000000D01*
X8823223Y53000000D01*
X8067366Y53755857D01*
X7858979Y53674492D01*
X7687717Y53186500D01*
X6241376Y53186500D01*
X6339248Y53284201D01*
X6531780Y53747871D01*
X6531941Y53932634D01*
X8244143Y53932634D01*
X9000000Y53176777D01*
X9755857Y53932634D01*
X9674492Y54141021D01*
X9186500Y54312283D01*
X8670115Y54283762D01*
X8325508Y54141021D01*
X8244143Y53932634D01*
X6531941Y53932634D01*
X6532219Y54249926D01*
X6340495Y54713932D01*
X5985799Y55069248D01*
X5522129Y55261780D01*
X5020074Y55262219D01*
X4556068Y55070495D01*
X4200752Y54715799D01*
X4008220Y54252129D01*
X4007781Y53750074D01*
X3991781Y53750074D01*
X3992219Y54249926D01*
X3800495Y54713932D01*
X3445799Y55069248D01*
X2982129Y55261780D01*
X2480074Y55262219D01*
X2016068Y55070495D01*
X1660752Y54715799D01*
X1468220Y54252129D01*
X1467781Y53750074D01*
X-52554Y53750074D01*
X-67366Y53755857D01*
X-823223Y53000000D01*
X-1176777Y53000000D01*
X-1932634Y53755857D01*
X-2141021Y53674492D01*
X-2312283Y53186500D01*
X-3425000Y53186500D01*
X-3425000Y53932634D01*
X-1755857Y53932634D01*
X-1000000Y53176777D01*
X-244143Y53932634D01*
X-325508Y54141021D01*
X-813500Y54312283D01*
X-1329885Y54283762D01*
X-1674492Y54141021D01*
X-1755857Y53932634D01*
X-3425000Y53932634D01*
X-3425000Y63185469D01*
X-2300000Y63185469D01*
X-2300000Y63134531D01*
X-2201043Y62637043D01*
X-1919239Y62215292D01*
X-1497488Y61933488D01*
X-1000000Y61834531D01*
X-502512Y61933488D01*
X-80761Y62215292D01*
X201043Y62637043D01*
X223526Y62750074D01*
X1467781Y62750074D01*
X1659505Y62286068D01*
X2014201Y61930752D01*
X2477871Y61738220D01*
X2979926Y61737781D01*
X3443932Y61929505D01*
X3799248Y62284201D01*
X3991780Y62747871D01*
X3991781Y62750074D01*
X4007781Y62750074D01*
X4199505Y62286068D01*
X4554201Y61930752D01*
X5017871Y61738220D01*
X5519926Y61737781D01*
X5983932Y61929505D01*
X6339248Y62284201D01*
X6531780Y62747871D01*
X6532162Y63185469D01*
X7700000Y63185469D01*
X7700000Y63134531D01*
X7798957Y62637043D01*
X8080761Y62215292D01*
X8502512Y61933488D01*
X9000000Y61834531D01*
X9497488Y61933488D01*
X9919239Y62215292D01*
X10201043Y62637043D01*
X10300000Y63134531D01*
X10300000Y63185469D01*
X10201043Y63682957D01*
X9919239Y64104708D01*
X9497488Y64386512D01*
X9000000Y64485469D01*
X8502512Y64386512D01*
X8080761Y64104708D01*
X7798957Y63682957D01*
X7700000Y63185469D01*
X6532162Y63185469D01*
X6532219Y63249926D01*
X6340495Y63713932D01*
X5985799Y64069248D01*
X5522129Y64261780D01*
X5020074Y64262219D01*
X4556068Y64070495D01*
X4200752Y63715799D01*
X4008220Y63252129D01*
X4007781Y62750074D01*
X3991781Y62750074D01*
X3992219Y63249926D01*
X3800495Y63713932D01*
X3445799Y64069248D01*
X2982129Y64261780D01*
X2480074Y64262219D01*
X2016068Y64070495D01*
X1660752Y63715799D01*
X1468220Y63252129D01*
X1467781Y62750074D01*
X223526Y62750074D01*
X300000Y63134531D01*
X300000Y63185469D01*
X201043Y63682957D01*
X-80761Y64104708D01*
X-502512Y64386512D01*
X-1000000Y64485469D01*
X-1497488Y64386512D01*
X-1919239Y64104708D01*
X-2201043Y63682957D01*
X-2300000Y63185469D01*
X-3425000Y63185469D01*
X-3425000Y71653494D01*
X-2829983Y71653494D01*
X-2564171Y71010181D01*
X-2072408Y70517559D01*
X-1429560Y70250625D01*
X-733494Y70250017D01*
X-90181Y70515829D01*
X402441Y71007592D01*
X669375Y71650440D01*
X669462Y71750074D01*
X1467781Y71750074D01*
X1659505Y71286068D01*
X2014201Y70930752D01*
X2477871Y70738220D01*
X2979926Y70737781D01*
X3443932Y70929505D01*
X3799248Y71284201D01*
X3991780Y71747871D01*
X3991781Y71750074D01*
X4007781Y71750074D01*
X4199505Y71286068D01*
X4554201Y70930752D01*
X5017871Y70738220D01*
X5519926Y70737781D01*
X5529860Y70741886D01*
X7998663Y70741886D01*
X8135121Y70486822D01*
X8786114Y70240416D01*
X9481849Y70261891D01*
X10024879Y70486822D01*
X10161337Y70741886D01*
X9080000Y71823223D01*
X7998663Y70741886D01*
X5529860Y70741886D01*
X5983932Y70929505D01*
X6339248Y71284201D01*
X6531780Y71747871D01*
X6532219Y72249926D01*
X6514056Y72293886D01*
X7320416Y72293886D01*
X7341891Y71598151D01*
X7566822Y71055121D01*
X7821886Y70918663D01*
X8903223Y72000000D01*
X9256777Y72000000D01*
X10338114Y70918663D01*
X10593178Y71055121D01*
X10839584Y71706114D01*
X10818109Y72401849D01*
X10593178Y72944879D01*
X10338114Y73081337D01*
X9256777Y72000000D01*
X8903223Y72000000D01*
X7821886Y73081337D01*
X7566822Y72944879D01*
X7320416Y72293886D01*
X6514056Y72293886D01*
X6340495Y72713932D01*
X5985799Y73069248D01*
X5530958Y73258114D01*
X7998663Y73258114D01*
X9080000Y72176777D01*
X10161337Y73258114D01*
X10024879Y73513178D01*
X9373886Y73759584D01*
X8678151Y73738109D01*
X8135121Y73513178D01*
X7998663Y73258114D01*
X5530958Y73258114D01*
X5522129Y73261780D01*
X5020074Y73262219D01*
X4556068Y73070495D01*
X4200752Y72715799D01*
X4008220Y72252129D01*
X4007781Y71750074D01*
X3991781Y71750074D01*
X3992219Y72249926D01*
X3800495Y72713932D01*
X3445799Y73069248D01*
X2982129Y73261780D01*
X2480074Y73262219D01*
X2016068Y73070495D01*
X1660752Y72715799D01*
X1468220Y72252129D01*
X1467781Y71750074D01*
X669462Y71750074D01*
X669983Y72346506D01*
X404171Y72989819D01*
X-87592Y73482441D01*
X-730440Y73749375D01*
X-1426506Y73749983D01*
X-2069819Y73484171D01*
X-2562441Y72992408D01*
X-2829375Y72349560D01*
X-2829983Y71653494D01*
X-3425000Y71653494D01*
X-3425000Y71943365D01*
X-2849397Y74837114D01*
X-1242302Y77242302D01*
X1162886Y78849397D01*
X3999998Y79413735D01*
X6837114Y78849397D01*
M02*
