G04 #@! TF.FileFunction,Legend,Bot*
%FSLAX46Y46*%
G04 Gerber Fmt 4.6, Leading zero omitted, Abs format (unit mm)*
G04 Created by KiCad (PCBNEW 4.0.6-e0-6349~53~ubuntu16.04.1) date Fri Mar 24 12:12:28 2017*
%MOMM*%
%LPD*%
G01*
G04 APERTURE LIST*
%ADD10C,0.100000*%
%ADD11C,0.187500*%
%ADD12C,0.120000*%
%ADD13C,0.150000*%
G04 APERTURE END LIST*
D10*
D11*
X375000Y2821428D02*
X339286Y2892857D01*
X339286Y3000000D01*
X375000Y3107143D01*
X446429Y3178571D01*
X517857Y3214286D01*
X660714Y3250000D01*
X767857Y3250000D01*
X910714Y3214286D01*
X982143Y3178571D01*
X1053571Y3107143D01*
X1089286Y3000000D01*
X1089286Y2928571D01*
X1053571Y2821428D01*
X1017857Y2785714D01*
X767857Y2785714D01*
X767857Y2928571D01*
X1089286Y2464286D02*
X339286Y2464286D01*
X1089286Y2035714D01*
X339286Y2035714D01*
X1089286Y1678572D02*
X339286Y1678572D01*
X339286Y1500000D01*
X375000Y1392857D01*
X446429Y1321429D01*
X517857Y1285714D01*
X660714Y1250000D01*
X767857Y1250000D01*
X910714Y1285714D01*
X982143Y1321429D01*
X1053571Y1392857D01*
X1089286Y1500000D01*
X1089286Y1678572D01*
X7625000Y1678572D02*
X7660714Y1607143D01*
X7660714Y1500000D01*
X7625000Y1392857D01*
X7553571Y1321429D01*
X7482143Y1285714D01*
X7339286Y1250000D01*
X7232143Y1250000D01*
X7089286Y1285714D01*
X7017857Y1321429D01*
X6946429Y1392857D01*
X6910714Y1500000D01*
X6910714Y1571429D01*
X6946429Y1678572D01*
X6982143Y1714286D01*
X7232143Y1714286D01*
X7232143Y1571429D01*
X6910714Y2035714D02*
X7660714Y2035714D01*
X6910714Y2464286D01*
X7660714Y2464286D01*
X6910714Y2821428D02*
X7660714Y2821428D01*
X7660714Y3000000D01*
X7625000Y3107143D01*
X7553571Y3178571D01*
X7482143Y3214286D01*
X7339286Y3250000D01*
X7232143Y3250000D01*
X7089286Y3214286D01*
X7017857Y3178571D01*
X6946429Y3107143D01*
X6910714Y3000000D01*
X6910714Y2821428D01*
X7017857Y4410714D02*
X7267857Y4767857D01*
X7446429Y4410714D02*
X7446429Y5160714D01*
X7160714Y5160714D01*
X7089286Y5125000D01*
X7053571Y5089286D01*
X7017857Y5017857D01*
X7017857Y4910714D01*
X7053571Y4839286D01*
X7089286Y4803571D01*
X7160714Y4767857D01*
X7446429Y4767857D01*
X517857Y4410714D02*
X767857Y4767857D01*
X946429Y4410714D02*
X946429Y5160714D01*
X660714Y5160714D01*
X589286Y5125000D01*
X553571Y5089286D01*
X517857Y5017857D01*
X517857Y4910714D01*
X553571Y4839286D01*
X589286Y4803571D01*
X660714Y4767857D01*
X946429Y4767857D01*
X7428571Y7125000D02*
X7071428Y7125000D01*
X7499999Y6910714D02*
X7249999Y7660714D01*
X6999999Y6910714D01*
X999999Y7660714D02*
X749999Y6910714D01*
X499999Y7660714D01*
X7499999Y10160714D02*
X7249999Y9410714D01*
X6999999Y10160714D01*
X5517857Y15357142D02*
X5553571Y15392856D01*
X5589286Y15499999D01*
X5589286Y15571428D01*
X5553571Y15678571D01*
X5482143Y15749999D01*
X5410714Y15785714D01*
X5267857Y15821428D01*
X5160714Y15821428D01*
X5017857Y15785714D01*
X4946429Y15749999D01*
X4875000Y15678571D01*
X4839286Y15571428D01*
X4839286Y15499999D01*
X4875000Y15392856D01*
X4910714Y15357142D01*
X4839286Y14892856D02*
X4839286Y14749999D01*
X4875000Y14678571D01*
X4946429Y14607142D01*
X5089286Y14571428D01*
X5339286Y14571428D01*
X5482143Y14607142D01*
X5553571Y14678571D01*
X5589286Y14749999D01*
X5589286Y14892856D01*
X5553571Y14964285D01*
X5482143Y15035714D01*
X5339286Y15071428D01*
X5089286Y15071428D01*
X4946429Y15035714D01*
X4875000Y14964285D01*
X4839286Y14892856D01*
X5517857Y13821428D02*
X5553571Y13857142D01*
X5589286Y13964285D01*
X5589286Y14035714D01*
X5553571Y14142857D01*
X5482143Y14214285D01*
X5410714Y14250000D01*
X5267857Y14285714D01*
X5160714Y14285714D01*
X5017857Y14250000D01*
X4946429Y14214285D01*
X4875000Y14142857D01*
X4839286Y14035714D01*
X4839286Y13964285D01*
X4875000Y13857142D01*
X4910714Y13821428D01*
X5589286Y13500000D02*
X4839286Y13500000D01*
X5196429Y13500000D02*
X5196429Y13071428D01*
X5589286Y13071428D02*
X4839286Y13071428D01*
X5196429Y12714286D02*
X5196429Y12464286D01*
X5589286Y12357143D02*
X5589286Y12714286D01*
X4839286Y12714286D01*
X4839286Y12357143D01*
X5553571Y12071429D02*
X5589286Y11964286D01*
X5589286Y11785715D01*
X5553571Y11714286D01*
X5517857Y11678572D01*
X5446429Y11642857D01*
X5375000Y11642857D01*
X5303571Y11678572D01*
X5267857Y11714286D01*
X5232143Y11785715D01*
X5196429Y11928572D01*
X5160714Y12000000D01*
X5125000Y12035715D01*
X5053571Y12071429D01*
X4982143Y12071429D01*
X4910714Y12035715D01*
X4875000Y12000000D01*
X4839286Y11928572D01*
X4839286Y11750000D01*
X4875000Y11642857D01*
X3089286Y16928571D02*
X2339286Y16928571D01*
X2339286Y16642856D01*
X2375000Y16571428D01*
X2410714Y16535713D01*
X2482143Y16499999D01*
X2589286Y16499999D01*
X2660714Y16535713D01*
X2696429Y16571428D01*
X2732143Y16642856D01*
X2732143Y16928571D01*
X2696429Y16178571D02*
X2696429Y15928571D01*
X3089286Y15821428D02*
X3089286Y16178571D01*
X2339286Y16178571D01*
X2339286Y15821428D01*
X2875000Y15535714D02*
X2875000Y15178571D01*
X3089286Y15607142D02*
X2339286Y15357142D01*
X3089286Y15107142D01*
X2339286Y14964285D02*
X2339286Y14535714D01*
X3089286Y14750000D02*
X2339286Y14750000D01*
X2339286Y14142856D02*
X2339286Y13999999D01*
X2375000Y13928571D01*
X2446429Y13857142D01*
X2589286Y13821428D01*
X2839286Y13821428D01*
X2982143Y13857142D01*
X3053571Y13928571D01*
X3089286Y13999999D01*
X3089286Y14142856D01*
X3053571Y14214285D01*
X2982143Y14285714D01*
X2839286Y14321428D01*
X2589286Y14321428D01*
X2446429Y14285714D01*
X2375000Y14214285D01*
X2339286Y14142856D01*
X3089286Y13500000D02*
X2339286Y13500000D01*
X3089286Y13071428D01*
X2339286Y13071428D01*
X2696429Y12714286D02*
X2696429Y12464286D01*
X3089286Y12357143D02*
X3089286Y12714286D01*
X2339286Y12714286D01*
X2339286Y12357143D01*
X3053571Y12071429D02*
X3089286Y11964286D01*
X3089286Y11785715D01*
X3053571Y11714286D01*
X3017857Y11678572D01*
X2946429Y11642857D01*
X2875000Y11642857D01*
X2803571Y11678572D01*
X2767857Y11714286D01*
X2732143Y11785715D01*
X2696429Y11928572D01*
X2660714Y12000000D01*
X2625000Y12035715D01*
X2553571Y12071429D01*
X2482143Y12071429D01*
X2410714Y12035715D01*
X2375000Y12000000D01*
X2339286Y11928572D01*
X2339286Y11750000D01*
X2375000Y11642857D01*
X1000000Y10160714D02*
X500000Y10160714D01*
X1000000Y9410714D01*
X500000Y9410714D01*
D12*
X1400000Y3460000D02*
X1400000Y11140000D01*
X1400000Y11140000D02*
X6600000Y11140000D01*
X6600000Y11140000D02*
X6600000Y860000D01*
X6600000Y860000D02*
X4000000Y860000D01*
X4000000Y860000D02*
X4000000Y3460000D01*
X4000000Y3460000D02*
X1400000Y3460000D01*
X1400000Y2190000D02*
X1400000Y860000D01*
X1400000Y860000D02*
X2730000Y860000D01*
X12004871Y72000000D02*
G75*
G03X12004871Y72000000I-8004871J0D01*
G01*
X10310000Y54870000D02*
X7690000Y54870000D01*
X7690000Y54870000D02*
X7690000Y61290000D01*
X7690000Y61290000D02*
X10310000Y61290000D01*
X10310000Y61290000D02*
X10310000Y54870000D01*
X9000000Y53980000D02*
X9000000Y54870000D01*
X9000000Y62180000D02*
X9000000Y61290000D01*
X310000Y54870000D02*
X-2310000Y54870000D01*
X-2310000Y54870000D02*
X-2310000Y61290000D01*
X-2310000Y61290000D02*
X310000Y61290000D01*
X310000Y61290000D02*
X310000Y54870000D01*
X-1000000Y53980000D02*
X-1000000Y54870000D01*
X-1000000Y62180000D02*
X-1000000Y61290000D01*
X7130000Y50310000D02*
X7130000Y47690000D01*
X7130000Y47690000D02*
X710000Y47690000D01*
X710000Y47690000D02*
X710000Y50310000D01*
X710000Y50310000D02*
X7130000Y50310000D01*
X8020000Y49000000D02*
X7130000Y49000000D01*
X-180000Y49000000D02*
X710000Y49000000D01*
X190000Y43130000D02*
X2810000Y43130000D01*
X2810000Y43130000D02*
X2810000Y36710000D01*
X2810000Y36710000D02*
X190000Y36710000D01*
X190000Y36710000D02*
X190000Y43130000D01*
X1500000Y44020000D02*
X1500000Y43130000D01*
X1500000Y35820000D02*
X1500000Y36710000D01*
X7810000Y36710000D02*
X5190000Y36710000D01*
X5190000Y36710000D02*
X5190000Y43130000D01*
X5190000Y43130000D02*
X7810000Y43130000D01*
X7810000Y43130000D02*
X7810000Y36710000D01*
X6500000Y35820000D02*
X6500000Y36710000D01*
X6500000Y44020000D02*
X6500000Y43130000D01*
D13*
X7553572Y11660714D02*
X7553572Y12410714D01*
X7267857Y12410714D01*
X7196429Y12375000D01*
X7160714Y12339286D01*
X7125000Y12267857D01*
X7125000Y12160714D01*
X7160714Y12089286D01*
X7196429Y12053571D01*
X7267857Y12017857D01*
X7553572Y12017857D01*
X6410714Y11660714D02*
X6839286Y11660714D01*
X6625000Y11660714D02*
X6625000Y12410714D01*
X6696429Y12303571D01*
X6767857Y12232143D01*
X6839286Y12196429D01*
X-1839285Y65553571D02*
X-1946428Y65517857D01*
X-1982143Y65482143D01*
X-2017857Y65410714D01*
X-2017857Y65303571D01*
X-1982143Y65232143D01*
X-1946428Y65196429D01*
X-1875000Y65160714D01*
X-1589285Y65160714D01*
X-1589285Y65910714D01*
X-1839285Y65910714D01*
X-1910714Y65875000D01*
X-1946428Y65839286D01*
X-1982143Y65767857D01*
X-1982143Y65696429D01*
X-1946428Y65625000D01*
X-1910714Y65589286D01*
X-1839285Y65553571D01*
X-1589285Y65553571D01*
X-2267857Y65910714D02*
X-2767857Y65910714D01*
X-2267857Y65160714D01*
X-2767857Y65160714D01*
X-3446429Y65160714D02*
X-3017857Y65160714D01*
X-3232143Y65160714D02*
X-3232143Y65910714D01*
X-3160714Y65803571D01*
X-3089286Y65732143D01*
X-3017857Y65696429D01*
X11339286Y58205000D02*
X10982143Y58455000D01*
X11339286Y58633572D02*
X10589286Y58633572D01*
X10589286Y58347857D01*
X10625000Y58276429D01*
X10660714Y58240714D01*
X10732143Y58205000D01*
X10839286Y58205000D01*
X10910714Y58240714D01*
X10946429Y58276429D01*
X10982143Y58347857D01*
X10982143Y58633572D01*
X11339286Y57490714D02*
X11339286Y57919286D01*
X11339286Y57705000D02*
X10589286Y57705000D01*
X10696429Y57776429D01*
X10767857Y57847857D01*
X10803571Y57919286D01*
X1339286Y58205000D02*
X982143Y58455000D01*
X1339286Y58633572D02*
X589286Y58633572D01*
X589286Y58347857D01*
X625000Y58276429D01*
X660714Y58240714D01*
X732143Y58205000D01*
X839286Y58205000D01*
X910714Y58240714D01*
X946429Y58276429D01*
X982143Y58347857D01*
X982143Y58633572D01*
X660714Y57919286D02*
X625000Y57883572D01*
X589286Y57812143D01*
X589286Y57633572D01*
X625000Y57562143D01*
X660714Y57526429D01*
X732143Y57490714D01*
X803571Y57490714D01*
X910714Y57526429D01*
X1339286Y57955000D01*
X1339286Y57490714D01*
X4125000Y50660714D02*
X4375000Y51017857D01*
X4553572Y50660714D02*
X4553572Y51410714D01*
X4267857Y51410714D01*
X4196429Y51375000D01*
X4160714Y51339286D01*
X4125000Y51267857D01*
X4125000Y51160714D01*
X4160714Y51089286D01*
X4196429Y51053571D01*
X4267857Y51017857D01*
X4553572Y51017857D01*
X3875000Y51410714D02*
X3410714Y51410714D01*
X3660714Y51125000D01*
X3553572Y51125000D01*
X3482143Y51089286D01*
X3446429Y51053571D01*
X3410714Y50982143D01*
X3410714Y50803571D01*
X3446429Y50732143D01*
X3482143Y50696429D01*
X3553572Y50660714D01*
X3767857Y50660714D01*
X3839286Y50696429D01*
X3875000Y50732143D01*
X3125000Y35660714D02*
X3375000Y36017857D01*
X3553572Y35660714D02*
X3553572Y36410714D01*
X3267857Y36410714D01*
X3196429Y36375000D01*
X3160714Y36339286D01*
X3125000Y36267857D01*
X3125000Y36160714D01*
X3160714Y36089286D01*
X3196429Y36053571D01*
X3267857Y36017857D01*
X3553572Y36017857D01*
X2482143Y36160714D02*
X2482143Y35660714D01*
X2660714Y36446429D02*
X2839286Y35910714D01*
X2375000Y35910714D01*
X5125000Y43410714D02*
X5375000Y43767857D01*
X5553572Y43410714D02*
X5553572Y44160714D01*
X5267857Y44160714D01*
X5196429Y44125000D01*
X5160714Y44089286D01*
X5125000Y44017857D01*
X5125000Y43910714D01*
X5160714Y43839286D01*
X5196429Y43803571D01*
X5267857Y43767857D01*
X5553572Y43767857D01*
X4446429Y44160714D02*
X4803572Y44160714D01*
X4839286Y43803571D01*
X4803572Y43839286D01*
X4732143Y43875000D01*
X4553572Y43875000D01*
X4482143Y43839286D01*
X4446429Y43803571D01*
X4410714Y43732143D01*
X4410714Y43553571D01*
X4446429Y43482143D01*
X4482143Y43446429D01*
X4553572Y43410714D01*
X4732143Y43410714D01*
X4803572Y43446429D01*
X4839286Y43482143D01*
M02*
