G04 #@! TF.FileFunction,Legend,Top*
%FSLAX46Y46*%
G04 Gerber Fmt 4.6, Leading zero omitted, Abs format (unit mm)*
G04 Created by KiCad (PCBNEW 4.0.6-e0-6349~53~ubuntu16.04.1) date Mon Apr 24 10:41:46 2017*
%MOMM*%
%LPD*%
G01*
G04 APERTURE LIST*
%ADD10C,0.100000*%
%ADD11C,0.250000*%
%ADD12C,0.187500*%
%ADD13C,0.180000*%
%ADD14C,0.150000*%
G04 APERTURE END LIST*
D10*
D11*
X10535714Y54392857D02*
X10535714Y54773809D01*
X11202381Y54535714D02*
X10345238Y54535714D01*
X10250000Y54583333D01*
X10202381Y54678571D01*
X10202381Y54773809D01*
X11202381Y55535715D02*
X10678571Y55535715D01*
X10583333Y55488096D01*
X10535714Y55392858D01*
X10535714Y55202381D01*
X10583333Y55107143D01*
X11154762Y55535715D02*
X11202381Y55440477D01*
X11202381Y55202381D01*
X11154762Y55107143D01*
X11059524Y55059524D01*
X10964286Y55059524D01*
X10869048Y55107143D01*
X10821429Y55202381D01*
X10821429Y55440477D01*
X10773810Y55535715D01*
X11202381Y56011905D02*
X10202381Y56011905D01*
X10583333Y56011905D02*
X10535714Y56107143D01*
X10535714Y56297620D01*
X10583333Y56392858D01*
X10630952Y56440477D01*
X10726190Y56488096D01*
X11011905Y56488096D01*
X11107143Y56440477D01*
X11154762Y56392858D01*
X11202381Y56297620D01*
X11202381Y56107143D01*
X11154762Y56011905D01*
X11202381Y56916667D02*
X10535714Y56916667D01*
X10726190Y56916667D02*
X10630952Y56964286D01*
X10583333Y57011905D01*
X10535714Y57107143D01*
X10535714Y57202382D01*
X11202381Y57535715D02*
X10535714Y57535715D01*
X10202381Y57535715D02*
X10250000Y57488096D01*
X10297619Y57535715D01*
X10250000Y57583334D01*
X10202381Y57535715D01*
X10297619Y57535715D01*
X11154762Y58440477D02*
X11202381Y58345239D01*
X11202381Y58154762D01*
X11154762Y58059524D01*
X11107143Y58011905D01*
X11011905Y57964286D01*
X10726190Y57964286D01*
X10630952Y58011905D01*
X10583333Y58059524D01*
X10535714Y58154762D01*
X10535714Y58345239D01*
X10583333Y58440477D01*
X11202381Y59297620D02*
X10678571Y59297620D01*
X10583333Y59250001D01*
X10535714Y59154763D01*
X10535714Y58964286D01*
X10583333Y58869048D01*
X11154762Y59297620D02*
X11202381Y59202382D01*
X11202381Y58964286D01*
X11154762Y58869048D01*
X11059524Y58821429D01*
X10964286Y58821429D01*
X10869048Y58869048D01*
X10821429Y58964286D01*
X10821429Y59202382D01*
X10773810Y59297620D01*
X11202381Y60202382D02*
X10202381Y60202382D01*
X11154762Y60202382D02*
X11202381Y60107144D01*
X11202381Y59916667D01*
X11154762Y59821429D01*
X11107143Y59773810D01*
X11011905Y59726191D01*
X10726190Y59726191D01*
X10630952Y59773810D01*
X10583333Y59821429D01*
X10535714Y59916667D01*
X10535714Y60107144D01*
X10583333Y60202382D01*
X11202381Y60678572D02*
X10535714Y60678572D01*
X10202381Y60678572D02*
X10250000Y60630953D01*
X10297619Y60678572D01*
X10250000Y60726191D01*
X10202381Y60678572D01*
X10297619Y60678572D01*
X10535714Y61583334D02*
X11345238Y61583334D01*
X11440476Y61535715D01*
X11488095Y61488096D01*
X11535714Y61392857D01*
X11535714Y61250000D01*
X11488095Y61154762D01*
X11154762Y61583334D02*
X11202381Y61488096D01*
X11202381Y61297619D01*
X11154762Y61202381D01*
X11107143Y61154762D01*
X11011905Y61107143D01*
X10726190Y61107143D01*
X10630952Y61154762D01*
X10583333Y61202381D01*
X10535714Y61297619D01*
X10535714Y61488096D01*
X10583333Y61583334D01*
X11202381Y62059524D02*
X10535714Y62059524D01*
X10202381Y62059524D02*
X10250000Y62011905D01*
X10297619Y62059524D01*
X10250000Y62107143D01*
X10202381Y62059524D01*
X10297619Y62059524D01*
X10535714Y62392857D02*
X10535714Y62773809D01*
X10202381Y62535714D02*
X11059524Y62535714D01*
X11154762Y62583333D01*
X11202381Y62678571D01*
X11202381Y62773809D01*
X11202381Y63535715D02*
X10678571Y63535715D01*
X10583333Y63488096D01*
X10535714Y63392858D01*
X10535714Y63202381D01*
X10583333Y63107143D01*
X11154762Y63535715D02*
X11202381Y63440477D01*
X11202381Y63202381D01*
X11154762Y63107143D01*
X11059524Y63059524D01*
X10964286Y63059524D01*
X10869048Y63107143D01*
X10821429Y63202381D01*
X10821429Y63440477D01*
X10773810Y63535715D01*
X11202381Y64154762D02*
X11154762Y64059524D01*
X11059524Y64011905D01*
X10202381Y64011905D01*
X11107143Y64535715D02*
X11154762Y64583334D01*
X11202381Y64535715D01*
X11154762Y64488096D01*
X11107143Y64535715D01*
X11202381Y64535715D01*
X11202381Y65154762D02*
X11154762Y65059524D01*
X11107143Y65011905D01*
X11011905Y64964286D01*
X10726190Y64964286D01*
X10630952Y65011905D01*
X10583333Y65059524D01*
X10535714Y65154762D01*
X10535714Y65297620D01*
X10583333Y65392858D01*
X10630952Y65440477D01*
X10726190Y65488096D01*
X11011905Y65488096D01*
X11107143Y65440477D01*
X11154762Y65392858D01*
X11202381Y65297620D01*
X11202381Y65154762D01*
X11202381Y65916667D02*
X10535714Y65916667D01*
X10726190Y65916667D02*
X10630952Y65964286D01*
X10583333Y66011905D01*
X10535714Y66107143D01*
X10535714Y66202382D01*
X10535714Y66964287D02*
X11345238Y66964287D01*
X11440476Y66916668D01*
X11488095Y66869049D01*
X11535714Y66773810D01*
X11535714Y66630953D01*
X11488095Y66535715D01*
X11154762Y66964287D02*
X11202381Y66869049D01*
X11202381Y66678572D01*
X11154762Y66583334D01*
X11107143Y66535715D01*
X11011905Y66488096D01*
X10726190Y66488096D01*
X10630952Y66535715D01*
X10583333Y66583334D01*
X10535714Y66678572D01*
X10535714Y66869049D01*
X10583333Y66964287D01*
D12*
X500000Y10160714D02*
X1000000Y10160714D01*
X500000Y9410714D01*
X1000000Y9410714D01*
X5517857Y12107143D02*
X5553571Y12071429D01*
X5589286Y11964286D01*
X5589286Y11892857D01*
X5553571Y11785714D01*
X5482143Y11714286D01*
X5410714Y11678571D01*
X5267857Y11642857D01*
X5160714Y11642857D01*
X5017857Y11678571D01*
X4946429Y11714286D01*
X4875000Y11785714D01*
X4839286Y11892857D01*
X4839286Y11964286D01*
X4875000Y12071429D01*
X4910714Y12107143D01*
X4839286Y12571429D02*
X4839286Y12714286D01*
X4875000Y12785714D01*
X4946429Y12857143D01*
X5089286Y12892857D01*
X5339286Y12892857D01*
X5482143Y12857143D01*
X5553571Y12785714D01*
X5589286Y12714286D01*
X5589286Y12571429D01*
X5553571Y12500000D01*
X5482143Y12428571D01*
X5339286Y12392857D01*
X5089286Y12392857D01*
X4946429Y12428571D01*
X4875000Y12500000D01*
X4839286Y12571429D01*
X5517857Y13642857D02*
X5553571Y13607143D01*
X5589286Y13500000D01*
X5589286Y13428571D01*
X5553571Y13321428D01*
X5482143Y13250000D01*
X5410714Y13214285D01*
X5267857Y13178571D01*
X5160714Y13178571D01*
X5017857Y13214285D01*
X4946429Y13250000D01*
X4875000Y13321428D01*
X4839286Y13428571D01*
X4839286Y13500000D01*
X4875000Y13607143D01*
X4910714Y13642857D01*
X5589286Y13964285D02*
X4839286Y13964285D01*
X5196429Y13964285D02*
X5196429Y14392857D01*
X5589286Y14392857D02*
X4839286Y14392857D01*
X5196429Y14749999D02*
X5196429Y14999999D01*
X5589286Y15107142D02*
X5589286Y14749999D01*
X4839286Y14749999D01*
X4839286Y15107142D01*
X5553571Y15392856D02*
X5589286Y15499999D01*
X5589286Y15678570D01*
X5553571Y15749999D01*
X5517857Y15785713D01*
X5446429Y15821428D01*
X5375000Y15821428D01*
X5303571Y15785713D01*
X5267857Y15749999D01*
X5232143Y15678570D01*
X5196429Y15535713D01*
X5160714Y15464285D01*
X5125000Y15428570D01*
X5053571Y15392856D01*
X4982143Y15392856D01*
X4910714Y15428570D01*
X4875000Y15464285D01*
X4839286Y15535713D01*
X4839286Y15714285D01*
X4875000Y15821428D01*
X7625000Y2821428D02*
X7660714Y2892857D01*
X7660714Y3000000D01*
X7625000Y3107143D01*
X7553571Y3178571D01*
X7482143Y3214286D01*
X7339286Y3250000D01*
X7232143Y3250000D01*
X7089286Y3214286D01*
X7017857Y3178571D01*
X6946429Y3107143D01*
X6910714Y3000000D01*
X6910714Y2928571D01*
X6946429Y2821428D01*
X6982143Y2785714D01*
X7232143Y2785714D01*
X7232143Y2928571D01*
X6910714Y2464286D02*
X7660714Y2464286D01*
X6910714Y2035714D01*
X7660714Y2035714D01*
X6910714Y1678572D02*
X7660714Y1678572D01*
X7660714Y1500000D01*
X7625000Y1392857D01*
X7553571Y1321429D01*
X7482143Y1285714D01*
X7339286Y1250000D01*
X7232143Y1250000D01*
X7089286Y1285714D01*
X7017857Y1321429D01*
X6946429Y1392857D01*
X6910714Y1500000D01*
X6910714Y1678572D01*
X375000Y1678572D02*
X339286Y1607143D01*
X339286Y1500000D01*
X375000Y1392857D01*
X446429Y1321429D01*
X517857Y1285714D01*
X660714Y1250000D01*
X767857Y1250000D01*
X910714Y1285714D01*
X982143Y1321429D01*
X1053571Y1392857D01*
X1089286Y1500000D01*
X1089286Y1571429D01*
X1053571Y1678572D01*
X1017857Y1714286D01*
X767857Y1714286D01*
X767857Y1571429D01*
X1089286Y2035714D02*
X339286Y2035714D01*
X1089286Y2464286D01*
X339286Y2464286D01*
X1089286Y2821428D02*
X339286Y2821428D01*
X339286Y3000000D01*
X375000Y3107143D01*
X446429Y3178571D01*
X517857Y3214286D01*
X660714Y3250000D01*
X767857Y3250000D01*
X910714Y3214286D01*
X982143Y3178571D01*
X1053571Y3107143D01*
X1089286Y3000000D01*
X1089286Y2821428D01*
X7071429Y7125000D02*
X7428572Y7125000D01*
X7000001Y6910714D02*
X7250001Y7660714D01*
X7500001Y6910714D01*
X7482143Y4410714D02*
X7232143Y4767857D01*
X7053571Y4410714D02*
X7053571Y5160714D01*
X7339286Y5160714D01*
X7410714Y5125000D01*
X7446429Y5089286D01*
X7482143Y5017857D01*
X7482143Y4910714D01*
X7446429Y4839286D01*
X7410714Y4803571D01*
X7339286Y4767857D01*
X7053571Y4767857D01*
X7000001Y10160714D02*
X7250001Y9410714D01*
X7500001Y10160714D01*
X982143Y4410714D02*
X732143Y4767857D01*
X553571Y4410714D02*
X553571Y5160714D01*
X839286Y5160714D01*
X910714Y5125000D01*
X946429Y5089286D01*
X982143Y5017857D01*
X982143Y4910714D01*
X946429Y4839286D01*
X910714Y4803571D01*
X839286Y4767857D01*
X553571Y4767857D01*
X500001Y7660714D02*
X750001Y6910714D01*
X1000001Y7660714D01*
X3089286Y11678571D02*
X2339286Y11678571D01*
X2339286Y11964286D01*
X2375000Y12035714D01*
X2410714Y12071429D01*
X2482143Y12107143D01*
X2589286Y12107143D01*
X2660714Y12071429D01*
X2696429Y12035714D01*
X2732143Y11964286D01*
X2732143Y11678571D01*
X2696429Y12428571D02*
X2696429Y12678571D01*
X3089286Y12785714D02*
X3089286Y12428571D01*
X2339286Y12428571D01*
X2339286Y12785714D01*
X2875000Y13071428D02*
X2875000Y13428571D01*
X3089286Y13000000D02*
X2339286Y13250000D01*
X3089286Y13500000D01*
X2339286Y13642857D02*
X2339286Y14071428D01*
X3089286Y13857142D02*
X2339286Y13857142D01*
X2339286Y14464286D02*
X2339286Y14607143D01*
X2375000Y14678571D01*
X2446429Y14750000D01*
X2589286Y14785714D01*
X2839286Y14785714D01*
X2982143Y14750000D01*
X3053571Y14678571D01*
X3089286Y14607143D01*
X3089286Y14464286D01*
X3053571Y14392857D01*
X2982143Y14321428D01*
X2839286Y14285714D01*
X2589286Y14285714D01*
X2446429Y14321428D01*
X2375000Y14392857D01*
X2339286Y14464286D01*
X3089286Y15107142D02*
X2339286Y15107142D01*
X3089286Y15535714D01*
X2339286Y15535714D01*
X2696429Y15892856D02*
X2696429Y16142856D01*
X3089286Y16249999D02*
X3089286Y15892856D01*
X2339286Y15892856D01*
X2339286Y16249999D01*
X3053571Y16535713D02*
X3089286Y16642856D01*
X3089286Y16821427D01*
X3053571Y16892856D01*
X3017857Y16928570D01*
X2946429Y16964285D01*
X2875000Y16964285D01*
X2803571Y16928570D01*
X2767857Y16892856D01*
X2732143Y16821427D01*
X2696429Y16678570D01*
X2660714Y16607142D01*
X2625000Y16571427D01*
X2553571Y16535713D01*
X2482143Y16535713D01*
X2410714Y16571427D01*
X2375000Y16607142D01*
X2339286Y16678570D01*
X2339286Y16857142D01*
X2375000Y16964285D01*
D11*
X5702381Y20761905D02*
X6702381Y21095238D01*
X5702381Y21428572D01*
X6178571Y21761905D02*
X6178571Y22095239D01*
X6702381Y22238096D02*
X6702381Y21761905D01*
X5702381Y21761905D01*
X5702381Y22238096D01*
X6702381Y23238096D02*
X6226190Y22904762D01*
X6702381Y22666667D02*
X5702381Y22666667D01*
X5702381Y23047620D01*
X5750000Y23142858D01*
X5797619Y23190477D01*
X5892857Y23238096D01*
X6035714Y23238096D01*
X6130952Y23190477D01*
X6178571Y23142858D01*
X6226190Y23047620D01*
X6226190Y22666667D01*
X6702381Y23666667D02*
X5702381Y23666667D01*
X5702381Y23904762D01*
X5750000Y24047620D01*
X5845238Y24142858D01*
X5940476Y24190477D01*
X6130952Y24238096D01*
X6273810Y24238096D01*
X6464286Y24190477D01*
X6559524Y24142858D01*
X6654762Y24047620D01*
X6702381Y23904762D01*
X6702381Y23666667D01*
X6178571Y24666667D02*
X6178571Y25000001D01*
X6702381Y25142858D02*
X6702381Y24666667D01*
X5702381Y24666667D01*
X5702381Y25142858D01*
X6702381Y29380953D02*
X6226190Y29047619D01*
X6702381Y28809524D02*
X5702381Y28809524D01*
X5702381Y29190477D01*
X5750000Y29285715D01*
X5797619Y29333334D01*
X5892857Y29380953D01*
X6035714Y29380953D01*
X6130952Y29333334D01*
X6178571Y29285715D01*
X6226190Y29190477D01*
X6226190Y28809524D01*
X5702381Y30000000D02*
X5702381Y30190477D01*
X5750000Y30285715D01*
X5845238Y30380953D01*
X6035714Y30428572D01*
X6369048Y30428572D01*
X6559524Y30380953D01*
X6654762Y30285715D01*
X6702381Y30190477D01*
X6702381Y30000000D01*
X6654762Y29904762D01*
X6559524Y29809524D01*
X6369048Y29761905D01*
X6035714Y29761905D01*
X5845238Y29809524D01*
X5750000Y29904762D01*
X5702381Y30000000D01*
X5702381Y31142858D02*
X6416667Y31142858D01*
X6559524Y31095238D01*
X6654762Y31000000D01*
X6702381Y30857143D01*
X6702381Y30761905D01*
X5702381Y31809524D02*
X5702381Y32000001D01*
X5750000Y32095239D01*
X5845238Y32190477D01*
X6035714Y32238096D01*
X6369048Y32238096D01*
X6559524Y32190477D01*
X6654762Y32095239D01*
X6702381Y32000001D01*
X6702381Y31809524D01*
X6654762Y31714286D01*
X6559524Y31619048D01*
X6369048Y31571429D01*
X6035714Y31571429D01*
X5845238Y31619048D01*
X5750000Y31714286D01*
X5702381Y31809524D01*
X1761905Y58547619D02*
X2095238Y57547619D01*
X2428572Y58547619D01*
X2761905Y58071429D02*
X3095239Y58071429D01*
X3238096Y57547619D02*
X2761905Y57547619D01*
X2761905Y58547619D01*
X3238096Y58547619D01*
X4238096Y57547619D02*
X3904762Y58023810D01*
X3666667Y57547619D02*
X3666667Y58547619D01*
X4047620Y58547619D01*
X4142858Y58500000D01*
X4190477Y58452381D01*
X4238096Y58357143D01*
X4238096Y58214286D01*
X4190477Y58119048D01*
X4142858Y58071429D01*
X4047620Y58023810D01*
X3666667Y58023810D01*
X4666667Y57547619D02*
X4666667Y58547619D01*
X4904762Y58547619D01*
X5047620Y58500000D01*
X5142858Y58404762D01*
X5190477Y58309524D01*
X5238096Y58119048D01*
X5238096Y57976190D01*
X5190477Y57785714D01*
X5142858Y57690476D01*
X5047620Y57595238D01*
X4904762Y57547619D01*
X4666667Y57547619D01*
X5666667Y58071429D02*
X6000001Y58071429D01*
X6142858Y57547619D02*
X5666667Y57547619D01*
X5666667Y58547619D01*
X6142858Y58547619D01*
X1761905Y66833333D02*
X2238096Y66833333D01*
X1666667Y66547619D02*
X2000000Y67547619D01*
X2333334Y66547619D01*
X2095239Y67928571D02*
X1952381Y67785714D01*
X2666667Y66547619D02*
X2666667Y67547619D01*
X3000001Y66833333D01*
X3333334Y67547619D01*
X3333334Y66547619D01*
X4142858Y67071429D02*
X4285715Y67023810D01*
X4333334Y66976190D01*
X4380953Y66880952D01*
X4380953Y66738095D01*
X4333334Y66642857D01*
X4285715Y66595238D01*
X4190477Y66547619D01*
X3809524Y66547619D01*
X3809524Y67547619D01*
X4142858Y67547619D01*
X4238096Y67500000D01*
X4285715Y67452381D01*
X4333334Y67357143D01*
X4333334Y67261905D01*
X4285715Y67166667D01*
X4238096Y67119048D01*
X4142858Y67071429D01*
X3809524Y67071429D01*
X4761905Y66833333D02*
X5238096Y66833333D01*
X4666667Y66547619D02*
X5000000Y67547619D01*
X5333334Y66547619D01*
X6238096Y66547619D02*
X5904762Y67023810D01*
X5666667Y66547619D02*
X5666667Y67547619D01*
X6047620Y67547619D01*
X6142858Y67500000D01*
X6190477Y67452381D01*
X6238096Y67357143D01*
X6238096Y67214286D01*
X6190477Y67119048D01*
X6142858Y67071429D01*
X6047620Y67023810D01*
X5666667Y67023810D01*
X2880953Y75547619D02*
X2547619Y76023810D01*
X2309524Y75547619D02*
X2309524Y76547619D01*
X2690477Y76547619D01*
X2785715Y76500000D01*
X2833334Y76452381D01*
X2880953Y76357143D01*
X2880953Y76214286D01*
X2833334Y76119048D01*
X2785715Y76071429D01*
X2690477Y76023810D01*
X2309524Y76023810D01*
X3500000Y76547619D02*
X3690477Y76547619D01*
X3785715Y76500000D01*
X3880953Y76404762D01*
X3928572Y76214286D01*
X3928572Y75880952D01*
X3880953Y75690476D01*
X3785715Y75595238D01*
X3690477Y75547619D01*
X3500000Y75547619D01*
X3404762Y75595238D01*
X3309524Y75690476D01*
X3261905Y75880952D01*
X3261905Y76214286D01*
X3309524Y76404762D01*
X3404762Y76500000D01*
X3500000Y76547619D01*
X4642858Y76547619D02*
X4642858Y75833333D01*
X4595238Y75690476D01*
X4500000Y75595238D01*
X4357143Y75547619D01*
X4261905Y75547619D01*
X5309524Y76547619D02*
X5500001Y76547619D01*
X5595239Y76500000D01*
X5690477Y76404762D01*
X5738096Y76214286D01*
X5738096Y75880952D01*
X5690477Y75690476D01*
X5595239Y75595238D01*
X5500001Y75547619D01*
X5309524Y75547619D01*
X5214286Y75595238D01*
X5119048Y75690476D01*
X5071429Y75880952D01*
X5071429Y76214286D01*
X5119048Y76404762D01*
X5214286Y76500000D01*
X5309524Y76547619D01*
D13*
X6200000Y70800000D02*
X5400000Y70800000D01*
X5800000Y71200000D02*
X5800000Y70400000D01*
X7000000Y72000000D02*
G75*
G03X7000000Y72000000I-3000000J0D01*
G01*
X6200000Y61800000D02*
X5400000Y61800000D01*
X5800000Y62200000D02*
X5800000Y61400000D01*
X7000000Y63000000D02*
G75*
G03X7000000Y63000000I-3000000J0D01*
G01*
X6200000Y52800000D02*
X5400000Y52800000D01*
X5800000Y53200000D02*
X5800000Y52400000D01*
X7000000Y54000000D02*
G75*
G03X7000000Y54000000I-3000000J0D01*
G01*
X800000Y28300000D02*
X800000Y29100000D01*
X1200000Y28700000D02*
X400000Y28700000D01*
X5000000Y30500000D02*
G75*
G03X5000000Y30500000I-3000000J0D01*
G01*
X800000Y20800000D02*
X800000Y21600000D01*
X1200000Y21200000D02*
X400000Y21200000D01*
X5000000Y23000000D02*
G75*
G03X5000000Y23000000I-3000000J0D01*
G01*
D14*
X6946428Y73660714D02*
X6946428Y74410714D01*
X7125000Y74410714D01*
X7232143Y74375000D01*
X7303571Y74303571D01*
X7339286Y74232143D01*
X7375000Y74089286D01*
X7375000Y73982143D01*
X7339286Y73839286D01*
X7303571Y73767857D01*
X7232143Y73696429D01*
X7125000Y73660714D01*
X6946428Y73660714D01*
X8089286Y73660714D02*
X7660714Y73660714D01*
X7875000Y73660714D02*
X7875000Y74410714D01*
X7803571Y74303571D01*
X7732143Y74232143D01*
X7660714Y74196429D01*
X6946428Y64660714D02*
X6946428Y65410714D01*
X7125000Y65410714D01*
X7232143Y65375000D01*
X7303571Y65303571D01*
X7339286Y65232143D01*
X7375000Y65089286D01*
X7375000Y64982143D01*
X7339286Y64839286D01*
X7303571Y64767857D01*
X7232143Y64696429D01*
X7125000Y64660714D01*
X6946428Y64660714D01*
X7660714Y65339286D02*
X7696428Y65375000D01*
X7767857Y65410714D01*
X7946428Y65410714D01*
X8017857Y65375000D01*
X8053571Y65339286D01*
X8089286Y65267857D01*
X8089286Y65196429D01*
X8053571Y65089286D01*
X7625000Y64660714D01*
X8089286Y64660714D01*
X6946428Y55660714D02*
X6946428Y56410714D01*
X7125000Y56410714D01*
X7232143Y56375000D01*
X7303571Y56303571D01*
X7339286Y56232143D01*
X7375000Y56089286D01*
X7375000Y55982143D01*
X7339286Y55839286D01*
X7303571Y55767857D01*
X7232143Y55696429D01*
X7125000Y55660714D01*
X6946428Y55660714D01*
X7625000Y56410714D02*
X8089286Y56410714D01*
X7839286Y56125000D01*
X7946428Y56125000D01*
X8017857Y56089286D01*
X8053571Y56053571D01*
X8089286Y55982143D01*
X8089286Y55803571D01*
X8053571Y55732143D01*
X8017857Y55696429D01*
X7946428Y55660714D01*
X7732143Y55660714D01*
X7660714Y55696429D01*
X7625000Y55732143D01*
X2946428Y33660714D02*
X2946428Y34410714D01*
X3125000Y34410714D01*
X3232143Y34375000D01*
X3303571Y34303571D01*
X3339286Y34232143D01*
X3375000Y34089286D01*
X3375000Y33982143D01*
X3339286Y33839286D01*
X3303571Y33767857D01*
X3232143Y33696429D01*
X3125000Y33660714D01*
X2946428Y33660714D01*
X4017857Y34160714D02*
X4017857Y33660714D01*
X3839286Y34446429D02*
X3660714Y33910714D01*
X4125000Y33910714D01*
X2946428Y19160714D02*
X2946428Y19910714D01*
X3125000Y19910714D01*
X3232143Y19875000D01*
X3303571Y19803571D01*
X3339286Y19732143D01*
X3375000Y19589286D01*
X3375000Y19482143D01*
X3339286Y19339286D01*
X3303571Y19267857D01*
X3232143Y19196429D01*
X3125000Y19160714D01*
X2946428Y19160714D01*
X4053571Y19910714D02*
X3696428Y19910714D01*
X3660714Y19553571D01*
X3696428Y19589286D01*
X3767857Y19625000D01*
X3946428Y19625000D01*
X4017857Y19589286D01*
X4053571Y19553571D01*
X4089286Y19482143D01*
X4089286Y19303571D01*
X4053571Y19232143D01*
X4017857Y19196429D01*
X3946428Y19160714D01*
X3767857Y19160714D01*
X3696428Y19196429D01*
X3660714Y19232143D01*
M02*
