G04 #@! TF.FileFunction,Copper,L1,Top,Signal*
%FSLAX46Y46*%
G04 Gerber Fmt 4.6, Leading zero omitted, Abs format (unit mm)*
G04 Created by KiCad (PCBNEW 4.0.6-e0-6349~53~ubuntu16.04.1) date Sat Jun  3 13:09:08 2017*
%MOMM*%
%LPD*%
G01*
G04 APERTURE LIST*
%ADD10C,0.100000*%
%ADD11R,1.700000X1.700000*%
%ADD12O,1.700000X1.700000*%
%ADD13C,1.600000*%
%ADD14O,1.600000X1.600000*%
%ADD15R,2.000000X2.000000*%
%ADD16C,2.000000*%
%ADD17C,0.600000*%
%ADD18C,0.250000*%
G04 APERTURE END LIST*
D10*
D11*
X6730000Y2190000D03*
D12*
X9270000Y2190000D03*
X6730000Y4730000D03*
X9270000Y4730000D03*
X6730000Y7270000D03*
X9270000Y7270000D03*
X6730000Y9810000D03*
X9270000Y9810000D03*
D13*
X13000000Y53000000D03*
D14*
X13000000Y63160000D03*
D13*
X3000000Y53000000D03*
D14*
X3000000Y63160000D03*
D13*
X13000000Y49000000D03*
D14*
X2840000Y49000000D03*
D13*
X5500000Y45000000D03*
D14*
X5500000Y34840000D03*
D13*
X10500000Y34840000D03*
D14*
X10500000Y45000000D03*
D15*
X4200000Y69100000D03*
D16*
X11800000Y69100000D03*
D13*
X6730000Y63000000D03*
X9270000Y63000000D03*
X6730000Y54000000D03*
X9270000Y54000000D03*
X2000000Y39270000D03*
X2000000Y36730000D03*
X2000000Y32270000D03*
X2000000Y29730000D03*
X6730000Y72000000D03*
X9270000Y72000000D03*
D16*
X12500000Y25152370D03*
X12500000Y20652370D03*
X6000000Y25152370D03*
X6000000Y20652370D03*
D17*
X6250000Y48750000D03*
X10250000Y38750000D03*
X5750000Y38750000D03*
X8000000Y27500000D03*
X9397702Y31397702D03*
D18*
X2800000Y47000000D02*
X900000Y48900000D01*
X7000000Y46000000D02*
X6000000Y47000000D01*
X6000000Y47000000D02*
X2800000Y47000000D01*
X8999970Y27500030D02*
X7000000Y29500000D01*
X7000000Y29500000D02*
X7000000Y46000000D01*
X6730000Y9810000D02*
X6730000Y11012081D01*
X6730000Y11012081D02*
X8999970Y13282051D01*
X8999970Y13282051D02*
X8999970Y27500030D01*
X900000Y67050000D02*
X2950000Y69100000D01*
X900000Y48900000D02*
X900000Y67050000D01*
X2950000Y69100000D02*
X4200000Y69100000D01*
X6730000Y72000000D02*
X8630000Y73900000D01*
X8630000Y73900000D02*
X11000000Y73900000D01*
X11000000Y73900000D02*
X14000000Y70900000D01*
X14000000Y70900000D02*
X14000000Y67600000D01*
X14000000Y67600000D02*
X13000000Y66600000D01*
X13000000Y66600000D02*
X13000000Y63160000D01*
X9270000Y9810000D02*
X9270000Y11270000D01*
X9270000Y11270000D02*
X9499980Y11499980D01*
X9499980Y11499980D02*
X9499980Y28000020D01*
X9499980Y28000020D02*
X7500000Y30000000D01*
X7500000Y30000000D02*
X7500000Y52230000D01*
X7500000Y52230000D02*
X9270000Y54000000D01*
X3000000Y63160000D02*
X6570000Y63160000D01*
X6570000Y63160000D02*
X6730000Y63000000D01*
X9270000Y7270000D02*
X10600000Y8600000D01*
X10600000Y8600000D02*
X10600000Y10900000D01*
X10800000Y61470000D02*
X10500000Y61770000D01*
X10600000Y10900000D02*
X9999990Y11500010D01*
X9999990Y11500010D02*
X9999990Y28500010D01*
X8000000Y30500000D02*
X8000000Y50507090D01*
X9999990Y28500010D02*
X8000000Y30500000D01*
X8000000Y50507090D02*
X10800000Y53307090D01*
X10800000Y53307090D02*
X10800000Y61470000D01*
X10500000Y61770000D02*
X9270000Y63000000D01*
X2840000Y49000000D02*
X3971370Y49000000D01*
X3971370Y49000000D02*
X6730000Y51758630D01*
X6730000Y51758630D02*
X6730000Y52922370D01*
X6730000Y52922370D02*
X6730000Y54000000D01*
X10500000Y11707120D02*
X10500000Y29000000D01*
X8500000Y50299970D02*
X11300000Y53099970D01*
X9270000Y4730000D02*
X11100010Y6560010D01*
X11100010Y6560010D02*
X11100010Y11107110D01*
X11100010Y11107110D02*
X10500000Y11707120D01*
X10500000Y29000000D02*
X8500000Y31000000D01*
X8500000Y31000000D02*
X8500000Y44000000D01*
X8500000Y44000000D02*
X8500000Y50299970D01*
X9270000Y68330010D02*
X9270000Y72000000D01*
X11300000Y53099970D02*
X11300000Y66300010D01*
X11300000Y66300010D02*
X9270000Y68330010D01*
X3230000Y39270000D02*
X5500000Y37000000D01*
X5500000Y37000000D02*
X5500000Y34840000D01*
X2000000Y39270000D02*
X3230000Y39270000D01*
X6000000Y34340000D02*
X5500000Y34840000D01*
X8499960Y13999960D02*
X8499960Y27000000D01*
X8499960Y27000000D02*
X8499960Y27000040D01*
X8499960Y27000040D02*
X8000000Y27500000D01*
X5000000Y10500000D02*
X8499960Y13999960D01*
X5000000Y9000000D02*
X5000000Y10500000D01*
X6730000Y7270000D02*
X5000000Y9000000D01*
X9000000Y31795404D02*
X9000000Y43500000D01*
X9000000Y43500000D02*
X10500000Y45000000D01*
X9397702Y31397702D02*
X9000000Y31795404D01*
X6730000Y4730000D02*
X4499992Y6960008D01*
X4499992Y6960008D02*
X4499992Y10999992D01*
X4000998Y34729002D02*
X2000000Y36730000D01*
X4499992Y10999992D02*
X7999950Y14499950D01*
X7999950Y14499950D02*
X7999950Y26500050D01*
X7999950Y26500050D02*
X4000998Y30499002D01*
X4000998Y30499002D02*
X4000998Y34729002D01*
X6000000Y20652370D02*
X6000000Y13500000D01*
X6000000Y13500000D02*
X3999982Y11499982D01*
X3999982Y11499982D02*
X3999982Y3820018D01*
X3999982Y3820018D02*
X5630000Y2190000D01*
X5630000Y2190000D02*
X6730000Y2190000D01*
G36*
X4727620Y19803798D02*
X5149209Y19381473D01*
X5375000Y19287717D01*
X5375000Y13758883D01*
X3558040Y11941924D01*
X3422557Y11739159D01*
X3374982Y11499982D01*
X3374982Y3820018D01*
X3422557Y3580841D01*
X3558040Y3378076D01*
X5188056Y1748061D01*
X5188058Y1748058D01*
X5370205Y1626351D01*
X5370205Y1340000D01*
X5405069Y1154711D01*
X5514575Y984535D01*
X5681661Y870370D01*
X5880000Y830205D01*
X7580000Y830205D01*
X7765289Y865069D01*
X7935465Y974575D01*
X8049630Y1141661D01*
X8089795Y1340000D01*
X8089795Y1547480D01*
X8109038Y1501020D01*
X8461072Y1109184D01*
X8936258Y881893D01*
X9145000Y970789D01*
X9145000Y2065000D01*
X9395000Y2065000D01*
X9395000Y970789D01*
X9603742Y881893D01*
X10078928Y1109184D01*
X10430962Y1501020D01*
X10578097Y1856260D01*
X10488606Y2065000D01*
X9395000Y2065000D01*
X9145000Y2065000D01*
X9125000Y2065000D01*
X9125000Y2315000D01*
X9145000Y2315000D01*
X9145000Y2335000D01*
X9395000Y2335000D01*
X9395000Y2315000D01*
X10488606Y2315000D01*
X10578097Y2523740D01*
X10430962Y2878980D01*
X10078928Y3270816D01*
X9687882Y3457861D01*
X9813071Y3482763D01*
X10251042Y3775406D01*
X10543685Y4213377D01*
X10646448Y4730000D01*
X10564726Y5140842D01*
X11541952Y6118068D01*
X11677435Y6320833D01*
X11725010Y6560010D01*
X11725010Y11107110D01*
X11706252Y11201415D01*
X11677435Y11346288D01*
X11541952Y11549052D01*
X11125000Y11966004D01*
X11125000Y20052158D01*
X11227620Y19803798D01*
X11649209Y19381473D01*
X12030333Y19223217D01*
X11973440Y19185202D01*
X11814798Y19026560D01*
X11814798Y19026559D01*
X11598025Y18702136D01*
X11598024Y18702135D01*
X11554900Y18598024D01*
X11519338Y18512168D01*
X11512168Y18494859D01*
X11436048Y18112176D01*
X11436048Y18055542D01*
X11425000Y18000000D01*
X11425000Y15000000D01*
X11436048Y14944458D01*
X11436048Y14887823D01*
X11588289Y14122457D01*
X11588289Y14122456D01*
X11674146Y13915180D01*
X12107690Y13266336D01*
X12107691Y13266333D01*
X12187012Y13187012D01*
X12266332Y13107691D01*
X12266335Y13107690D01*
X12915180Y12674146D01*
X13122456Y12588289D01*
X13887818Y12436050D01*
X13887823Y12436048D01*
X14541012Y12306121D01*
X14999662Y11999662D01*
X15306120Y11541015D01*
X15425000Y10943365D01*
X15425000Y2056635D01*
X15306120Y1458985D01*
X14999662Y1000338D01*
X14541012Y693879D01*
X13943365Y575000D01*
X2056635Y575000D01*
X1458985Y693880D01*
X1000338Y1000338D01*
X693879Y1458988D01*
X575000Y2056635D01*
X575000Y10943365D01*
X693879Y11541012D01*
X1000338Y11999662D01*
X1458985Y12306120D01*
X2112177Y12436048D01*
X2877544Y12588289D01*
X3084820Y12674146D01*
X3733664Y13107690D01*
X3733667Y13107691D01*
X3812988Y13187012D01*
X3892309Y13266332D01*
X3892310Y13266335D01*
X4325854Y13915180D01*
X4411711Y14122456D01*
X4411711Y14122457D01*
X4563951Y14887823D01*
X4563951Y14944454D01*
X4575000Y15000000D01*
X4575000Y20173167D01*
X4727620Y19803798D01*
X4727620Y19803798D01*
G37*
X4727620Y19803798D02*
X5149209Y19381473D01*
X5375000Y19287717D01*
X5375000Y13758883D01*
X3558040Y11941924D01*
X3422557Y11739159D01*
X3374982Y11499982D01*
X3374982Y3820018D01*
X3422557Y3580841D01*
X3558040Y3378076D01*
X5188056Y1748061D01*
X5188058Y1748058D01*
X5370205Y1626351D01*
X5370205Y1340000D01*
X5405069Y1154711D01*
X5514575Y984535D01*
X5681661Y870370D01*
X5880000Y830205D01*
X7580000Y830205D01*
X7765289Y865069D01*
X7935465Y974575D01*
X8049630Y1141661D01*
X8089795Y1340000D01*
X8089795Y1547480D01*
X8109038Y1501020D01*
X8461072Y1109184D01*
X8936258Y881893D01*
X9145000Y970789D01*
X9145000Y2065000D01*
X9395000Y2065000D01*
X9395000Y970789D01*
X9603742Y881893D01*
X10078928Y1109184D01*
X10430962Y1501020D01*
X10578097Y1856260D01*
X10488606Y2065000D01*
X9395000Y2065000D01*
X9145000Y2065000D01*
X9125000Y2065000D01*
X9125000Y2315000D01*
X9145000Y2315000D01*
X9145000Y2335000D01*
X9395000Y2335000D01*
X9395000Y2315000D01*
X10488606Y2315000D01*
X10578097Y2523740D01*
X10430962Y2878980D01*
X10078928Y3270816D01*
X9687882Y3457861D01*
X9813071Y3482763D01*
X10251042Y3775406D01*
X10543685Y4213377D01*
X10646448Y4730000D01*
X10564726Y5140842D01*
X11541952Y6118068D01*
X11677435Y6320833D01*
X11725010Y6560010D01*
X11725010Y11107110D01*
X11706252Y11201415D01*
X11677435Y11346288D01*
X11541952Y11549052D01*
X11125000Y11966004D01*
X11125000Y20052158D01*
X11227620Y19803798D01*
X11649209Y19381473D01*
X12030333Y19223217D01*
X11973440Y19185202D01*
X11814798Y19026560D01*
X11814798Y19026559D01*
X11598025Y18702136D01*
X11598024Y18702135D01*
X11554900Y18598024D01*
X11519338Y18512168D01*
X11512168Y18494859D01*
X11436048Y18112176D01*
X11436048Y18055542D01*
X11425000Y18000000D01*
X11425000Y15000000D01*
X11436048Y14944458D01*
X11436048Y14887823D01*
X11588289Y14122457D01*
X11588289Y14122456D01*
X11674146Y13915180D01*
X12107690Y13266336D01*
X12107691Y13266333D01*
X12187012Y13187012D01*
X12266332Y13107691D01*
X12266335Y13107690D01*
X12915180Y12674146D01*
X13122456Y12588289D01*
X13887818Y12436050D01*
X13887823Y12436048D01*
X14541012Y12306121D01*
X14999662Y11999662D01*
X15306120Y11541015D01*
X15425000Y10943365D01*
X15425000Y2056635D01*
X15306120Y1458985D01*
X14999662Y1000338D01*
X14541012Y693879D01*
X13943365Y575000D01*
X2056635Y575000D01*
X1458985Y693880D01*
X1000338Y1000338D01*
X693879Y1458988D01*
X575000Y2056635D01*
X575000Y10943365D01*
X693879Y11541012D01*
X1000338Y11999662D01*
X1458985Y12306120D01*
X2112177Y12436048D01*
X2877544Y12588289D01*
X3084820Y12674146D01*
X3733664Y13107690D01*
X3733667Y13107691D01*
X3812988Y13187012D01*
X3892309Y13266332D01*
X3892310Y13266335D01*
X4325854Y13915180D01*
X4411711Y14122456D01*
X4411711Y14122457D01*
X4563951Y14887823D01*
X4563951Y14944454D01*
X4575000Y15000000D01*
X4575000Y20173167D01*
X4727620Y19803798D01*
G36*
X700226Y39529721D02*
X699774Y39012548D01*
X897271Y38534571D01*
X1262647Y38168556D01*
X1668985Y37999830D01*
X1264571Y37832729D01*
X898556Y37467353D01*
X700226Y36989721D01*
X699774Y36472548D01*
X897271Y35994571D01*
X1262647Y35628556D01*
X1740279Y35430226D01*
X2257452Y35429774D01*
X2369886Y35476231D01*
X3375998Y34470119D01*
X3375998Y30499002D01*
X3423573Y30259825D01*
X3559056Y30057060D01*
X7374950Y26241166D01*
X7374950Y25782253D01*
X7306633Y25947186D01*
X7077499Y26053092D01*
X6176777Y25152370D01*
X7077499Y24251648D01*
X7306633Y24357554D01*
X7374950Y24544625D01*
X7374950Y21252703D01*
X7272380Y21500942D01*
X6850791Y21923267D01*
X6299677Y22152109D01*
X5702941Y22152630D01*
X5151428Y21924750D01*
X4729103Y21503161D01*
X4575000Y21132039D01*
X4575000Y24074871D01*
X5099278Y24074871D01*
X5205184Y23845737D01*
X5765712Y23641036D01*
X6361909Y23666422D01*
X6794816Y23845737D01*
X6900722Y24074871D01*
X6000000Y24975593D01*
X5099278Y24074871D01*
X4575000Y24074871D01*
X4575000Y24643319D01*
X4693367Y24357554D01*
X4922501Y24251648D01*
X5823223Y25152370D01*
X4922501Y26053092D01*
X4693367Y25947186D01*
X4575000Y25623064D01*
X4575000Y26000000D01*
X4563951Y26055546D01*
X4563951Y26112177D01*
X4540541Y26229869D01*
X5099278Y26229869D01*
X6000000Y25329147D01*
X6900722Y26229869D01*
X6794816Y26459003D01*
X6234288Y26663704D01*
X5638091Y26638318D01*
X5205184Y26459003D01*
X5099278Y26229869D01*
X4540541Y26229869D01*
X4411711Y26877544D01*
X4325854Y27084820D01*
X3892309Y27733667D01*
X3892309Y27733668D01*
X3793187Y27832789D01*
X3733667Y27892309D01*
X3733664Y27892310D01*
X3084820Y28325854D01*
X2877544Y28411711D01*
X2429450Y28500842D01*
X2735429Y28627271D01*
X3101444Y28992647D01*
X3299774Y29470279D01*
X3300226Y29987452D01*
X3102729Y30465429D01*
X2737353Y30831444D01*
X2331015Y31000170D01*
X2735429Y31167271D01*
X3101444Y31532647D01*
X3299774Y32010279D01*
X3300226Y32527452D01*
X3102729Y33005429D01*
X2737353Y33371444D01*
X2259721Y33569774D01*
X1742548Y33570226D01*
X1264571Y33372729D01*
X898556Y33007353D01*
X700226Y32529721D01*
X699774Y32012548D01*
X897271Y31534571D01*
X1262647Y31168556D01*
X1668985Y30999830D01*
X1264571Y30832729D01*
X898556Y30467353D01*
X700226Y29989721D01*
X699774Y29472548D01*
X724010Y29413893D01*
X693879Y29458988D01*
X575000Y30056635D01*
X575000Y38943365D01*
X693879Y39541012D01*
X723032Y39584643D01*
X700226Y39529721D01*
X700226Y39529721D01*
G37*
X700226Y39529721D02*
X699774Y39012548D01*
X897271Y38534571D01*
X1262647Y38168556D01*
X1668985Y37999830D01*
X1264571Y37832729D01*
X898556Y37467353D01*
X700226Y36989721D01*
X699774Y36472548D01*
X897271Y35994571D01*
X1262647Y35628556D01*
X1740279Y35430226D01*
X2257452Y35429774D01*
X2369886Y35476231D01*
X3375998Y34470119D01*
X3375998Y30499002D01*
X3423573Y30259825D01*
X3559056Y30057060D01*
X7374950Y26241166D01*
X7374950Y25782253D01*
X7306633Y25947186D01*
X7077499Y26053092D01*
X6176777Y25152370D01*
X7077499Y24251648D01*
X7306633Y24357554D01*
X7374950Y24544625D01*
X7374950Y21252703D01*
X7272380Y21500942D01*
X6850791Y21923267D01*
X6299677Y22152109D01*
X5702941Y22152630D01*
X5151428Y21924750D01*
X4729103Y21503161D01*
X4575000Y21132039D01*
X4575000Y24074871D01*
X5099278Y24074871D01*
X5205184Y23845737D01*
X5765712Y23641036D01*
X6361909Y23666422D01*
X6794816Y23845737D01*
X6900722Y24074871D01*
X6000000Y24975593D01*
X5099278Y24074871D01*
X4575000Y24074871D01*
X4575000Y24643319D01*
X4693367Y24357554D01*
X4922501Y24251648D01*
X5823223Y25152370D01*
X4922501Y26053092D01*
X4693367Y25947186D01*
X4575000Y25623064D01*
X4575000Y26000000D01*
X4563951Y26055546D01*
X4563951Y26112177D01*
X4540541Y26229869D01*
X5099278Y26229869D01*
X6000000Y25329147D01*
X6900722Y26229869D01*
X6794816Y26459003D01*
X6234288Y26663704D01*
X5638091Y26638318D01*
X5205184Y26459003D01*
X5099278Y26229869D01*
X4540541Y26229869D01*
X4411711Y26877544D01*
X4325854Y27084820D01*
X3892309Y27733667D01*
X3892309Y27733668D01*
X3793187Y27832789D01*
X3733667Y27892309D01*
X3733664Y27892310D01*
X3084820Y28325854D01*
X2877544Y28411711D01*
X2429450Y28500842D01*
X2735429Y28627271D01*
X3101444Y28992647D01*
X3299774Y29470279D01*
X3300226Y29987452D01*
X3102729Y30465429D01*
X2737353Y30831444D01*
X2331015Y31000170D01*
X2735429Y31167271D01*
X3101444Y31532647D01*
X3299774Y32010279D01*
X3300226Y32527452D01*
X3102729Y33005429D01*
X2737353Y33371444D01*
X2259721Y33569774D01*
X1742548Y33570226D01*
X1264571Y33372729D01*
X898556Y33007353D01*
X700226Y32529721D01*
X699774Y32012548D01*
X897271Y31534571D01*
X1262647Y31168556D01*
X1668985Y30999830D01*
X1264571Y30832729D01*
X898556Y30467353D01*
X700226Y29989721D01*
X699774Y29472548D01*
X724010Y29413893D01*
X693879Y29458988D01*
X575000Y30056635D01*
X575000Y38943365D01*
X693879Y39541012D01*
X723032Y39584643D01*
X700226Y39529721D01*
G36*
X11347127Y33816094D02*
X11425000Y33893967D01*
X11425000Y28000000D01*
X11436048Y27944458D01*
X11436048Y27887824D01*
X11512168Y27505141D01*
X11512168Y27505140D01*
X11538329Y27441982D01*
X11598024Y27297865D01*
X11598025Y27297864D01*
X11814797Y26973443D01*
X11814798Y26973440D01*
X11973440Y26814798D01*
X12231602Y26642300D01*
X12138091Y26638318D01*
X11705184Y26459003D01*
X11599278Y26229869D01*
X12500000Y25329147D01*
X12514142Y25343289D01*
X12690919Y25166512D01*
X12676777Y25152370D01*
X12690919Y25138228D01*
X12514142Y24961451D01*
X12500000Y24975593D01*
X11599278Y24074871D01*
X11705184Y23845737D01*
X12265712Y23641036D01*
X12861909Y23666422D01*
X13294816Y23845737D01*
X13400721Y24074869D01*
X13425000Y24050590D01*
X13425000Y21848928D01*
X13350791Y21923267D01*
X12799677Y22152109D01*
X12202941Y22152630D01*
X11651428Y21924750D01*
X11229103Y21503161D01*
X11125000Y21252453D01*
X11125000Y24522607D01*
X11193367Y24357554D01*
X11422501Y24251648D01*
X12323223Y25152370D01*
X11422501Y26053092D01*
X11193367Y25947186D01*
X11125000Y25759978D01*
X11125000Y29000000D01*
X11095216Y29149737D01*
X11077425Y29239178D01*
X10941942Y29441942D01*
X9719019Y30664865D01*
X9850274Y30719099D01*
X10075514Y30943947D01*
X10197563Y31237874D01*
X10197841Y31556134D01*
X10076305Y31850274D01*
X9851457Y32075514D01*
X9625000Y32169547D01*
X9625000Y33843967D01*
X9652873Y33816094D01*
X9744144Y33907365D01*
X9825508Y33698979D01*
X10313500Y33527717D01*
X10829885Y33556238D01*
X11174492Y33698979D01*
X11255856Y33907365D01*
X11347127Y33816094D01*
X11347127Y33816094D01*
G37*
X11347127Y33816094D02*
X11425000Y33893967D01*
X11425000Y28000000D01*
X11436048Y27944458D01*
X11436048Y27887824D01*
X11512168Y27505141D01*
X11512168Y27505140D01*
X11538329Y27441982D01*
X11598024Y27297865D01*
X11598025Y27297864D01*
X11814797Y26973443D01*
X11814798Y26973440D01*
X11973440Y26814798D01*
X12231602Y26642300D01*
X12138091Y26638318D01*
X11705184Y26459003D01*
X11599278Y26229869D01*
X12500000Y25329147D01*
X12514142Y25343289D01*
X12690919Y25166512D01*
X12676777Y25152370D01*
X12690919Y25138228D01*
X12514142Y24961451D01*
X12500000Y24975593D01*
X11599278Y24074871D01*
X11705184Y23845737D01*
X12265712Y23641036D01*
X12861909Y23666422D01*
X13294816Y23845737D01*
X13400721Y24074869D01*
X13425000Y24050590D01*
X13425000Y21848928D01*
X13350791Y21923267D01*
X12799677Y22152109D01*
X12202941Y22152630D01*
X11651428Y21924750D01*
X11229103Y21503161D01*
X11125000Y21252453D01*
X11125000Y24522607D01*
X11193367Y24357554D01*
X11422501Y24251648D01*
X12323223Y25152370D01*
X11422501Y26053092D01*
X11193367Y25947186D01*
X11125000Y25759978D01*
X11125000Y29000000D01*
X11095216Y29149737D01*
X11077425Y29239178D01*
X10941942Y29441942D01*
X9719019Y30664865D01*
X9850274Y30719099D01*
X10075514Y30943947D01*
X10197563Y31237874D01*
X10197841Y31556134D01*
X10076305Y31850274D01*
X9851457Y32075514D01*
X9625000Y32169547D01*
X9625000Y33843967D01*
X9652873Y33816094D01*
X9744144Y33907365D01*
X9825508Y33698979D01*
X10313500Y33527717D01*
X10829885Y33556238D01*
X11174492Y33698979D01*
X11255856Y33907365D01*
X11347127Y33816094D01*
G36*
X10690919Y34854142D02*
X10676777Y34840000D01*
X10690919Y34825858D01*
X10514142Y34649081D01*
X10500000Y34663223D01*
X10485858Y34649081D01*
X10309081Y34825858D01*
X10323223Y34840000D01*
X10309081Y34854142D01*
X10485858Y35030919D01*
X10500000Y35016777D01*
X10514142Y35030919D01*
X10690919Y34854142D01*
X10690919Y34854142D01*
G37*
X10690919Y34854142D02*
X10676777Y34840000D01*
X10690919Y34825858D01*
X10514142Y34649081D01*
X10500000Y34663223D01*
X10485858Y34649081D01*
X10309081Y34825858D01*
X10323223Y34840000D01*
X10309081Y34854142D01*
X10485858Y35030919D01*
X10500000Y35016777D01*
X10514142Y35030919D01*
X10690919Y34854142D01*
G36*
X11425000Y35786033D02*
X11347127Y35863906D01*
X11255856Y35772635D01*
X11174492Y35981021D01*
X10686500Y36152283D01*
X10170115Y36123762D01*
X9825508Y35981021D01*
X9744144Y35772635D01*
X9652873Y35863906D01*
X9625000Y35836033D01*
X9625000Y43241116D01*
X10131679Y43747795D01*
X10500000Y43674531D01*
X10997488Y43773488D01*
X11419239Y44055292D01*
X11425000Y44063914D01*
X11425000Y35786033D01*
X11425000Y35786033D01*
G37*
X11425000Y35786033D02*
X11347127Y35863906D01*
X11255856Y35772635D01*
X11174492Y35981021D01*
X10686500Y36152283D01*
X10170115Y36123762D01*
X9825508Y35981021D01*
X9744144Y35772635D01*
X9652873Y35863906D01*
X9625000Y35836033D01*
X9625000Y43241116D01*
X10131679Y43747795D01*
X10500000Y43674531D01*
X10997488Y43773488D01*
X11419239Y44055292D01*
X11425000Y44063914D01*
X11425000Y35786033D01*
G36*
X6347127Y43976094D02*
X6375000Y44003967D01*
X6375000Y35814267D01*
X6125000Y35981312D01*
X6125000Y36999995D01*
X6125001Y37000000D01*
X6077425Y37239177D01*
X5941942Y37441942D01*
X3671942Y39711942D01*
X3469177Y39847425D01*
X3230000Y39895000D01*
X3148358Y39895000D01*
X3102729Y40005429D01*
X2737353Y40371444D01*
X2429676Y40499203D01*
X2877544Y40588289D01*
X3084820Y40674146D01*
X3733664Y41107690D01*
X3733667Y41107691D01*
X3812988Y41187012D01*
X3892309Y41266332D01*
X3892310Y41266335D01*
X4325854Y41915180D01*
X4411711Y42122456D01*
X4563951Y42887823D01*
X4563951Y42944454D01*
X4575000Y43000000D01*
X4575000Y44053967D01*
X4652873Y43976094D01*
X4744144Y44067365D01*
X4825508Y43858979D01*
X5313500Y43687717D01*
X5829885Y43716238D01*
X6174492Y43858979D01*
X6255856Y44067365D01*
X6347127Y43976094D01*
X6347127Y43976094D01*
G37*
X6347127Y43976094D02*
X6375000Y44003967D01*
X6375000Y35814267D01*
X6125000Y35981312D01*
X6125000Y36999995D01*
X6125001Y37000000D01*
X6077425Y37239177D01*
X5941942Y37441942D01*
X3671942Y39711942D01*
X3469177Y39847425D01*
X3230000Y39895000D01*
X3148358Y39895000D01*
X3102729Y40005429D01*
X2737353Y40371444D01*
X2429676Y40499203D01*
X2877544Y40588289D01*
X3084820Y40674146D01*
X3733664Y41107690D01*
X3733667Y41107691D01*
X3812988Y41187012D01*
X3892309Y41266332D01*
X3892310Y41266335D01*
X4325854Y41915180D01*
X4411711Y42122456D01*
X4563951Y42887823D01*
X4563951Y42944454D01*
X4575000Y43000000D01*
X4575000Y44053967D01*
X4652873Y43976094D01*
X4744144Y44067365D01*
X4825508Y43858979D01*
X5313500Y43687717D01*
X5829885Y43716238D01*
X6174492Y43858979D01*
X6255856Y44067365D01*
X6347127Y43976094D01*
G36*
X10837114Y78849397D02*
X13242302Y77242302D01*
X14849397Y74837114D01*
X15425000Y71943370D01*
X15425000Y50056635D01*
X15153879Y48693619D01*
X14413875Y47586125D01*
X13306381Y46846121D01*
X11887823Y46563952D01*
X11835501Y46542279D01*
X11779957Y46531231D01*
X11732869Y46499768D01*
X11680547Y46478095D01*
X11640500Y46438048D01*
X11593414Y46406586D01*
X11561952Y46359500D01*
X11521905Y46319453D01*
X11500232Y46267131D01*
X11468769Y46220043D01*
X11457721Y46164499D01*
X11436048Y46112177D01*
X11436048Y46055542D01*
X11425000Y46000000D01*
X11425000Y45936086D01*
X11419239Y45944708D01*
X10997488Y46226512D01*
X10500000Y46325469D01*
X10002512Y46226512D01*
X9580761Y45944708D01*
X9298957Y45522957D01*
X9200000Y45025469D01*
X9200000Y44974531D01*
X9264813Y44648696D01*
X9125000Y44508884D01*
X9125000Y48067366D01*
X12244143Y48067366D01*
X12325508Y47858979D01*
X12813500Y47687717D01*
X13329885Y47716238D01*
X13674492Y47858979D01*
X13755857Y48067366D01*
X13000000Y48823223D01*
X12244143Y48067366D01*
X9125000Y48067366D01*
X9125000Y49186500D01*
X11687717Y49186500D01*
X11716238Y48670115D01*
X11858979Y48325508D01*
X12067366Y48244143D01*
X12823223Y49000000D01*
X13176777Y49000000D01*
X13932634Y48244143D01*
X14141021Y48325508D01*
X14312283Y48813500D01*
X14283762Y49329885D01*
X14141021Y49674492D01*
X13932634Y49755857D01*
X13176777Y49000000D01*
X12823223Y49000000D01*
X12067366Y49755857D01*
X11858979Y49674492D01*
X11687717Y49186500D01*
X9125000Y49186500D01*
X9125000Y49932634D01*
X12244143Y49932634D01*
X13000000Y49176777D01*
X13755857Y49932634D01*
X13674492Y50141021D01*
X13186500Y50312283D01*
X12670115Y50283762D01*
X12325508Y50141021D01*
X12244143Y49932634D01*
X9125000Y49932634D01*
X9125000Y50041086D01*
X11151280Y52067366D01*
X12244143Y52067366D01*
X12325508Y51858979D01*
X12813500Y51687717D01*
X13329885Y51716238D01*
X13674492Y51858979D01*
X13755857Y52067366D01*
X13000000Y52823223D01*
X12244143Y52067366D01*
X11151280Y52067366D01*
X11727307Y52643393D01*
X11858979Y52325508D01*
X12067366Y52244143D01*
X12823223Y53000000D01*
X13176777Y53000000D01*
X13932634Y52244143D01*
X14141021Y52325508D01*
X14312283Y52813500D01*
X14283762Y53329885D01*
X14141021Y53674492D01*
X13932634Y53755857D01*
X13176777Y53000000D01*
X12823223Y53000000D01*
X12067366Y53755857D01*
X11925000Y53700270D01*
X11925000Y53932634D01*
X12244143Y53932634D01*
X13000000Y53176777D01*
X13755857Y53932634D01*
X13674492Y54141021D01*
X13186500Y54312283D01*
X12670115Y54283762D01*
X12325508Y54141021D01*
X12244143Y53932634D01*
X11925000Y53932634D01*
X11925000Y62448406D01*
X12080761Y62215292D01*
X12502512Y61933488D01*
X13000000Y61834531D01*
X13497488Y61933488D01*
X13919239Y62215292D01*
X14201043Y62637043D01*
X14300000Y63134531D01*
X14300000Y63185469D01*
X14201043Y63682957D01*
X13919239Y64104708D01*
X13625000Y64301312D01*
X13625000Y66341116D01*
X14441939Y67158056D01*
X14441942Y67158058D01*
X14577425Y67360823D01*
X14625001Y67600000D01*
X14625000Y67600005D01*
X14625000Y70899995D01*
X14625001Y70900000D01*
X14577425Y71139177D01*
X14441942Y71341942D01*
X11441942Y74341942D01*
X11239177Y74477425D01*
X11000000Y74525000D01*
X8630005Y74525000D01*
X8630000Y74525001D01*
X8390823Y74477425D01*
X8188058Y74341942D01*
X7100069Y73253953D01*
X6989721Y73299774D01*
X6472548Y73300226D01*
X5994571Y73102729D01*
X5628556Y72737353D01*
X5430226Y72259721D01*
X5429774Y71742548D01*
X5627271Y71264571D01*
X5992647Y70898556D01*
X6470279Y70700226D01*
X6987452Y70699774D01*
X7465429Y70897271D01*
X7831444Y71262647D01*
X8000170Y71668985D01*
X8167271Y71264571D01*
X8532647Y70898556D01*
X8645000Y70851903D01*
X8645000Y68330010D01*
X8692575Y68090833D01*
X8828058Y67888068D01*
X10675000Y66041127D01*
X10675000Y62478884D01*
X10523953Y62629931D01*
X10569774Y62740279D01*
X10570226Y63257452D01*
X10372729Y63735429D01*
X10007353Y64101444D01*
X9529721Y64299774D01*
X9012548Y64300226D01*
X8534571Y64102729D01*
X8168556Y63737353D01*
X7999830Y63331015D01*
X7832729Y63735429D01*
X7467353Y64101444D01*
X6989721Y64299774D01*
X6472548Y64300226D01*
X5994571Y64102729D01*
X5676286Y63785000D01*
X4132860Y63785000D01*
X3919239Y64104708D01*
X3497488Y64386512D01*
X3000000Y64485469D01*
X2502512Y64386512D01*
X2080761Y64104708D01*
X1798957Y63682957D01*
X1700000Y63185469D01*
X1700000Y63134531D01*
X1798957Y62637043D01*
X2080761Y62215292D01*
X2502512Y61933488D01*
X3000000Y61834531D01*
X3497488Y61933488D01*
X3919239Y62215292D01*
X4132860Y62535000D01*
X5515531Y62535000D01*
X5627271Y62264571D01*
X5992647Y61898556D01*
X6470279Y61700226D01*
X6987452Y61699774D01*
X7465429Y61897271D01*
X7831444Y62262647D01*
X8000170Y62668985D01*
X8167271Y62264571D01*
X8532647Y61898556D01*
X9010279Y61700226D01*
X9527452Y61699774D01*
X9639885Y61746231D01*
X10175000Y61211116D01*
X10175000Y54933504D01*
X10007353Y55101444D01*
X9529721Y55299774D01*
X9012548Y55300226D01*
X8534571Y55102729D01*
X8168556Y54737353D01*
X7999830Y54331015D01*
X7832729Y54735429D01*
X7467353Y55101444D01*
X6989721Y55299774D01*
X6472548Y55300226D01*
X5994571Y55102729D01*
X5628556Y54737353D01*
X5430226Y54259721D01*
X5429774Y53742548D01*
X5627271Y53264571D01*
X5992647Y52898556D01*
X6105000Y52851903D01*
X6105000Y52017514D01*
X3873635Y49786149D01*
X3784708Y49919239D01*
X3362957Y50201043D01*
X2865469Y50300000D01*
X2814531Y50300000D01*
X2317043Y50201043D01*
X1895292Y49919239D01*
X1613488Y49497488D01*
X1542629Y49141255D01*
X1525000Y49158884D01*
X1525000Y52067366D01*
X2244143Y52067366D01*
X2325508Y51858979D01*
X2813500Y51687717D01*
X3329885Y51716238D01*
X3674492Y51858979D01*
X3755857Y52067366D01*
X3000000Y52823223D01*
X2244143Y52067366D01*
X1525000Y52067366D01*
X1525000Y53186500D01*
X1687717Y53186500D01*
X1716238Y52670115D01*
X1858979Y52325508D01*
X2067366Y52244143D01*
X2823223Y53000000D01*
X3176777Y53000000D01*
X3932634Y52244143D01*
X4141021Y52325508D01*
X4312283Y52813500D01*
X4283762Y53329885D01*
X4141021Y53674492D01*
X3932634Y53755857D01*
X3176777Y53000000D01*
X2823223Y53000000D01*
X2067366Y53755857D01*
X1858979Y53674492D01*
X1687717Y53186500D01*
X1525000Y53186500D01*
X1525000Y53932634D01*
X2244143Y53932634D01*
X3000000Y53176777D01*
X3755857Y53932634D01*
X3674492Y54141021D01*
X3186500Y54312283D01*
X2670115Y54283762D01*
X2325508Y54141021D01*
X2244143Y53932634D01*
X1525000Y53932634D01*
X1525000Y66791116D01*
X2712958Y67979074D01*
X2725069Y67914711D01*
X2834575Y67744535D01*
X3001661Y67630370D01*
X3200000Y67590205D01*
X5200000Y67590205D01*
X5385289Y67625069D01*
X5555465Y67734575D01*
X5669630Y67901661D01*
X5709795Y68100000D01*
X5709795Y70100000D01*
X5674931Y70285289D01*
X5565425Y70455465D01*
X5398339Y70569630D01*
X5200000Y70609795D01*
X3200000Y70609795D01*
X3014711Y70574931D01*
X2844535Y70465425D01*
X2730370Y70298339D01*
X2690205Y70100000D01*
X2690205Y69663649D01*
X2508058Y69541942D01*
X575000Y67608884D01*
X575000Y71943365D01*
X1150603Y74837114D01*
X2757698Y77242302D01*
X5162886Y78849397D01*
X7999998Y79413735D01*
X10837114Y78849397D01*
X10837114Y78849397D01*
G37*
X10837114Y78849397D02*
X13242302Y77242302D01*
X14849397Y74837114D01*
X15425000Y71943370D01*
X15425000Y50056635D01*
X15153879Y48693619D01*
X14413875Y47586125D01*
X13306381Y46846121D01*
X11887823Y46563952D01*
X11835501Y46542279D01*
X11779957Y46531231D01*
X11732869Y46499768D01*
X11680547Y46478095D01*
X11640500Y46438048D01*
X11593414Y46406586D01*
X11561952Y46359500D01*
X11521905Y46319453D01*
X11500232Y46267131D01*
X11468769Y46220043D01*
X11457721Y46164499D01*
X11436048Y46112177D01*
X11436048Y46055542D01*
X11425000Y46000000D01*
X11425000Y45936086D01*
X11419239Y45944708D01*
X10997488Y46226512D01*
X10500000Y46325469D01*
X10002512Y46226512D01*
X9580761Y45944708D01*
X9298957Y45522957D01*
X9200000Y45025469D01*
X9200000Y44974531D01*
X9264813Y44648696D01*
X9125000Y44508884D01*
X9125000Y48067366D01*
X12244143Y48067366D01*
X12325508Y47858979D01*
X12813500Y47687717D01*
X13329885Y47716238D01*
X13674492Y47858979D01*
X13755857Y48067366D01*
X13000000Y48823223D01*
X12244143Y48067366D01*
X9125000Y48067366D01*
X9125000Y49186500D01*
X11687717Y49186500D01*
X11716238Y48670115D01*
X11858979Y48325508D01*
X12067366Y48244143D01*
X12823223Y49000000D01*
X13176777Y49000000D01*
X13932634Y48244143D01*
X14141021Y48325508D01*
X14312283Y48813500D01*
X14283762Y49329885D01*
X14141021Y49674492D01*
X13932634Y49755857D01*
X13176777Y49000000D01*
X12823223Y49000000D01*
X12067366Y49755857D01*
X11858979Y49674492D01*
X11687717Y49186500D01*
X9125000Y49186500D01*
X9125000Y49932634D01*
X12244143Y49932634D01*
X13000000Y49176777D01*
X13755857Y49932634D01*
X13674492Y50141021D01*
X13186500Y50312283D01*
X12670115Y50283762D01*
X12325508Y50141021D01*
X12244143Y49932634D01*
X9125000Y49932634D01*
X9125000Y50041086D01*
X11151280Y52067366D01*
X12244143Y52067366D01*
X12325508Y51858979D01*
X12813500Y51687717D01*
X13329885Y51716238D01*
X13674492Y51858979D01*
X13755857Y52067366D01*
X13000000Y52823223D01*
X12244143Y52067366D01*
X11151280Y52067366D01*
X11727307Y52643393D01*
X11858979Y52325508D01*
X12067366Y52244143D01*
X12823223Y53000000D01*
X13176777Y53000000D01*
X13932634Y52244143D01*
X14141021Y52325508D01*
X14312283Y52813500D01*
X14283762Y53329885D01*
X14141021Y53674492D01*
X13932634Y53755857D01*
X13176777Y53000000D01*
X12823223Y53000000D01*
X12067366Y53755857D01*
X11925000Y53700270D01*
X11925000Y53932634D01*
X12244143Y53932634D01*
X13000000Y53176777D01*
X13755857Y53932634D01*
X13674492Y54141021D01*
X13186500Y54312283D01*
X12670115Y54283762D01*
X12325508Y54141021D01*
X12244143Y53932634D01*
X11925000Y53932634D01*
X11925000Y62448406D01*
X12080761Y62215292D01*
X12502512Y61933488D01*
X13000000Y61834531D01*
X13497488Y61933488D01*
X13919239Y62215292D01*
X14201043Y62637043D01*
X14300000Y63134531D01*
X14300000Y63185469D01*
X14201043Y63682957D01*
X13919239Y64104708D01*
X13625000Y64301312D01*
X13625000Y66341116D01*
X14441939Y67158056D01*
X14441942Y67158058D01*
X14577425Y67360823D01*
X14625001Y67600000D01*
X14625000Y67600005D01*
X14625000Y70899995D01*
X14625001Y70900000D01*
X14577425Y71139177D01*
X14441942Y71341942D01*
X11441942Y74341942D01*
X11239177Y74477425D01*
X11000000Y74525000D01*
X8630005Y74525000D01*
X8630000Y74525001D01*
X8390823Y74477425D01*
X8188058Y74341942D01*
X7100069Y73253953D01*
X6989721Y73299774D01*
X6472548Y73300226D01*
X5994571Y73102729D01*
X5628556Y72737353D01*
X5430226Y72259721D01*
X5429774Y71742548D01*
X5627271Y71264571D01*
X5992647Y70898556D01*
X6470279Y70700226D01*
X6987452Y70699774D01*
X7465429Y70897271D01*
X7831444Y71262647D01*
X8000170Y71668985D01*
X8167271Y71264571D01*
X8532647Y70898556D01*
X8645000Y70851903D01*
X8645000Y68330010D01*
X8692575Y68090833D01*
X8828058Y67888068D01*
X10675000Y66041127D01*
X10675000Y62478884D01*
X10523953Y62629931D01*
X10569774Y62740279D01*
X10570226Y63257452D01*
X10372729Y63735429D01*
X10007353Y64101444D01*
X9529721Y64299774D01*
X9012548Y64300226D01*
X8534571Y64102729D01*
X8168556Y63737353D01*
X7999830Y63331015D01*
X7832729Y63735429D01*
X7467353Y64101444D01*
X6989721Y64299774D01*
X6472548Y64300226D01*
X5994571Y64102729D01*
X5676286Y63785000D01*
X4132860Y63785000D01*
X3919239Y64104708D01*
X3497488Y64386512D01*
X3000000Y64485469D01*
X2502512Y64386512D01*
X2080761Y64104708D01*
X1798957Y63682957D01*
X1700000Y63185469D01*
X1700000Y63134531D01*
X1798957Y62637043D01*
X2080761Y62215292D01*
X2502512Y61933488D01*
X3000000Y61834531D01*
X3497488Y61933488D01*
X3919239Y62215292D01*
X4132860Y62535000D01*
X5515531Y62535000D01*
X5627271Y62264571D01*
X5992647Y61898556D01*
X6470279Y61700226D01*
X6987452Y61699774D01*
X7465429Y61897271D01*
X7831444Y62262647D01*
X8000170Y62668985D01*
X8167271Y62264571D01*
X8532647Y61898556D01*
X9010279Y61700226D01*
X9527452Y61699774D01*
X9639885Y61746231D01*
X10175000Y61211116D01*
X10175000Y54933504D01*
X10007353Y55101444D01*
X9529721Y55299774D01*
X9012548Y55300226D01*
X8534571Y55102729D01*
X8168556Y54737353D01*
X7999830Y54331015D01*
X7832729Y54735429D01*
X7467353Y55101444D01*
X6989721Y55299774D01*
X6472548Y55300226D01*
X5994571Y55102729D01*
X5628556Y54737353D01*
X5430226Y54259721D01*
X5429774Y53742548D01*
X5627271Y53264571D01*
X5992647Y52898556D01*
X6105000Y52851903D01*
X6105000Y52017514D01*
X3873635Y49786149D01*
X3784708Y49919239D01*
X3362957Y50201043D01*
X2865469Y50300000D01*
X2814531Y50300000D01*
X2317043Y50201043D01*
X1895292Y49919239D01*
X1613488Y49497488D01*
X1542629Y49141255D01*
X1525000Y49158884D01*
X1525000Y52067366D01*
X2244143Y52067366D01*
X2325508Y51858979D01*
X2813500Y51687717D01*
X3329885Y51716238D01*
X3674492Y51858979D01*
X3755857Y52067366D01*
X3000000Y52823223D01*
X2244143Y52067366D01*
X1525000Y52067366D01*
X1525000Y53186500D01*
X1687717Y53186500D01*
X1716238Y52670115D01*
X1858979Y52325508D01*
X2067366Y52244143D01*
X2823223Y53000000D01*
X3176777Y53000000D01*
X3932634Y52244143D01*
X4141021Y52325508D01*
X4312283Y52813500D01*
X4283762Y53329885D01*
X4141021Y53674492D01*
X3932634Y53755857D01*
X3176777Y53000000D01*
X2823223Y53000000D01*
X2067366Y53755857D01*
X1858979Y53674492D01*
X1687717Y53186500D01*
X1525000Y53186500D01*
X1525000Y53932634D01*
X2244143Y53932634D01*
X3000000Y53176777D01*
X3755857Y53932634D01*
X3674492Y54141021D01*
X3186500Y54312283D01*
X2670115Y54283762D01*
X2325508Y54141021D01*
X2244143Y53932634D01*
X1525000Y53932634D01*
X1525000Y66791116D01*
X2712958Y67979074D01*
X2725069Y67914711D01*
X2834575Y67744535D01*
X3001661Y67630370D01*
X3200000Y67590205D01*
X5200000Y67590205D01*
X5385289Y67625069D01*
X5555465Y67734575D01*
X5669630Y67901661D01*
X5709795Y68100000D01*
X5709795Y70100000D01*
X5674931Y70285289D01*
X5565425Y70455465D01*
X5398339Y70569630D01*
X5200000Y70609795D01*
X3200000Y70609795D01*
X3014711Y70574931D01*
X2844535Y70465425D01*
X2730370Y70298339D01*
X2690205Y70100000D01*
X2690205Y69663649D01*
X2508058Y69541942D01*
X575000Y67608884D01*
X575000Y71943365D01*
X1150603Y74837114D01*
X2757698Y77242302D01*
X5162886Y78849397D01*
X7999998Y79413735D01*
X10837114Y78849397D01*
G36*
X5690919Y45014142D02*
X5676777Y45000000D01*
X5690919Y44985858D01*
X5514142Y44809081D01*
X5500000Y44823223D01*
X5485858Y44809081D01*
X5309081Y44985858D01*
X5323223Y45000000D01*
X5309081Y45014142D01*
X5485858Y45190919D01*
X5500000Y45176777D01*
X5514142Y45190919D01*
X5690919Y45014142D01*
X5690919Y45014142D01*
G37*
X5690919Y45014142D02*
X5676777Y45000000D01*
X5690919Y44985858D01*
X5514142Y44809081D01*
X5500000Y44823223D01*
X5485858Y44809081D01*
X5309081Y44985858D01*
X5323223Y45000000D01*
X5309081Y45014142D01*
X5485858Y45190919D01*
X5500000Y45176777D01*
X5514142Y45190919D01*
X5690919Y45014142D01*
G36*
X6875000Y47008884D02*
X6441942Y47441942D01*
X6239177Y47577425D01*
X6000000Y47625000D01*
X3058884Y47625000D01*
X2964238Y47719646D01*
X3362957Y47798957D01*
X3784708Y48080761D01*
X3982835Y48377281D01*
X4210547Y48422575D01*
X4413312Y48558058D01*
X6875000Y51019746D01*
X6875000Y47008884D01*
X6875000Y47008884D01*
G37*
X6875000Y47008884D02*
X6441942Y47441942D01*
X6239177Y47577425D01*
X6000000Y47625000D01*
X3058884Y47625000D01*
X2964238Y47719646D01*
X3362957Y47798957D01*
X3784708Y48080761D01*
X3982835Y48377281D01*
X4210547Y48422575D01*
X4413312Y48558058D01*
X6875000Y51019746D01*
X6875000Y47008884D01*
G36*
X13375000Y70641116D02*
X13375000Y67858883D01*
X12558058Y67041942D01*
X12422575Y66839177D01*
X12375000Y66600000D01*
X12375000Y64301312D01*
X12080761Y64104708D01*
X11925000Y63871594D01*
X11925000Y66300005D01*
X11925001Y66300010D01*
X11877425Y66539187D01*
X11831407Y66608058D01*
X11741942Y66741952D01*
X11741939Y66741954D01*
X10461393Y68022501D01*
X10899278Y68022501D01*
X11005184Y67793367D01*
X11565712Y67588666D01*
X12161909Y67614052D01*
X12594816Y67793367D01*
X12700722Y68022501D01*
X11800000Y68923223D01*
X10899278Y68022501D01*
X10461393Y68022501D01*
X9895000Y68588894D01*
X9895000Y69334288D01*
X10288666Y69334288D01*
X10314052Y68738091D01*
X10493367Y68305184D01*
X10722501Y68199278D01*
X11623223Y69100000D01*
X11976777Y69100000D01*
X12877499Y68199278D01*
X13106633Y68305184D01*
X13311334Y68865712D01*
X13285948Y69461909D01*
X13106633Y69894816D01*
X12877499Y70000722D01*
X11976777Y69100000D01*
X11623223Y69100000D01*
X10722501Y70000722D01*
X10493367Y69894816D01*
X10288666Y69334288D01*
X9895000Y69334288D01*
X9895000Y70177499D01*
X10899278Y70177499D01*
X11800000Y69276777D01*
X12700722Y70177499D01*
X12594816Y70406633D01*
X12034288Y70611334D01*
X11438091Y70585948D01*
X11005184Y70406633D01*
X10899278Y70177499D01*
X9895000Y70177499D01*
X9895000Y70851642D01*
X10005429Y70897271D01*
X10371444Y71262647D01*
X10569774Y71740279D01*
X10570226Y72257452D01*
X10372729Y72735429D01*
X10007353Y73101444D01*
X9589383Y73275000D01*
X10741116Y73275000D01*
X13375000Y70641116D01*
X13375000Y70641116D01*
G37*
X13375000Y70641116D02*
X13375000Y67858883D01*
X12558058Y67041942D01*
X12422575Y66839177D01*
X12375000Y66600000D01*
X12375000Y64301312D01*
X12080761Y64104708D01*
X11925000Y63871594D01*
X11925000Y66300005D01*
X11925001Y66300010D01*
X11877425Y66539187D01*
X11831407Y66608058D01*
X11741942Y66741952D01*
X11741939Y66741954D01*
X10461393Y68022501D01*
X10899278Y68022501D01*
X11005184Y67793367D01*
X11565712Y67588666D01*
X12161909Y67614052D01*
X12594816Y67793367D01*
X12700722Y68022501D01*
X11800000Y68923223D01*
X10899278Y68022501D01*
X10461393Y68022501D01*
X9895000Y68588894D01*
X9895000Y69334288D01*
X10288666Y69334288D01*
X10314052Y68738091D01*
X10493367Y68305184D01*
X10722501Y68199278D01*
X11623223Y69100000D01*
X11976777Y69100000D01*
X12877499Y68199278D01*
X13106633Y68305184D01*
X13311334Y68865712D01*
X13285948Y69461909D01*
X13106633Y69894816D01*
X12877499Y70000722D01*
X11976777Y69100000D01*
X11623223Y69100000D01*
X10722501Y70000722D01*
X10493367Y69894816D01*
X10288666Y69334288D01*
X9895000Y69334288D01*
X9895000Y70177499D01*
X10899278Y70177499D01*
X11800000Y69276777D01*
X12700722Y70177499D01*
X12594816Y70406633D01*
X12034288Y70611334D01*
X11438091Y70585948D01*
X11005184Y70406633D01*
X10899278Y70177499D01*
X9895000Y70177499D01*
X9895000Y70851642D01*
X10005429Y70897271D01*
X10371444Y71262647D01*
X10569774Y71740279D01*
X10570226Y72257452D01*
X10372729Y72735429D01*
X10007353Y73101444D01*
X9589383Y73275000D01*
X10741116Y73275000D01*
X13375000Y70641116D01*
M02*
