G04 #@! TF.FileFunction,Copper,L2,Bot,Signal*
%FSLAX46Y46*%
G04 Gerber Fmt 4.6, Leading zero omitted, Abs format (unit mm)*
G04 Created by KiCad (PCBNEW 4.0.6-e0-6349~53~ubuntu16.04.1) date Sat Jun  3 13:09:08 2017*
%MOMM*%
%LPD*%
G01*
G04 APERTURE LIST*
%ADD10C,0.100000*%
%ADD11R,1.700000X1.700000*%
%ADD12O,1.700000X1.700000*%
%ADD13C,1.600000*%
%ADD14O,1.600000X1.600000*%
%ADD15R,2.000000X2.000000*%
%ADD16C,2.000000*%
%ADD17C,0.600000*%
%ADD18C,0.250000*%
G04 APERTURE END LIST*
D10*
D11*
X6730000Y2190000D03*
D12*
X9270000Y2190000D03*
X6730000Y4730000D03*
X9270000Y4730000D03*
X6730000Y7270000D03*
X9270000Y7270000D03*
X6730000Y9810000D03*
X9270000Y9810000D03*
D13*
X13000000Y53000000D03*
D14*
X13000000Y63160000D03*
D13*
X3000000Y53000000D03*
D14*
X3000000Y63160000D03*
D13*
X13000000Y49000000D03*
D14*
X2840000Y49000000D03*
D13*
X5500000Y45000000D03*
D14*
X5500000Y34840000D03*
D13*
X10500000Y34840000D03*
D14*
X10500000Y45000000D03*
D15*
X4200000Y69100000D03*
D16*
X11800000Y69100000D03*
D13*
X6730000Y63000000D03*
X9270000Y63000000D03*
X6730000Y54000000D03*
X9270000Y54000000D03*
X2000000Y39270000D03*
X2000000Y36730000D03*
X2000000Y32270000D03*
X2000000Y29730000D03*
X6730000Y72000000D03*
X9270000Y72000000D03*
D16*
X12500000Y25152370D03*
X12500000Y20652370D03*
X6000000Y25152370D03*
X6000000Y20652370D03*
D17*
X6250000Y48750000D03*
X10250000Y38750000D03*
X5750000Y38750000D03*
X8000000Y27500000D03*
X9397702Y31397702D03*
D18*
X12500000Y25152370D02*
X11085787Y25152370D01*
X11085787Y25152370D02*
X10347630Y25152370D01*
X10500000Y13500000D02*
X10500000Y25000000D01*
X10347630Y25152370D02*
X10500000Y25000000D01*
X10500000Y25000000D02*
X10500000Y26500000D01*
X6000000Y25152370D02*
X10347630Y25152370D01*
X9270000Y2190000D02*
X10472081Y2190000D01*
X10472081Y2190000D02*
X11000000Y2717919D01*
X11000000Y2717919D02*
X11000000Y13000000D01*
X11000000Y13000000D02*
X10500000Y13500000D01*
X8750000Y37250000D02*
X10250000Y38750000D01*
X8250000Y36750000D02*
X8750000Y37250000D01*
X8750000Y37250000D02*
X8750000Y46250000D01*
X8750000Y46250000D02*
X6250000Y48750000D01*
X8250000Y36000000D02*
X8250000Y36250000D01*
X8250000Y33500000D02*
X8250000Y36000000D01*
X8250000Y36000000D02*
X8250000Y36750000D01*
X8250000Y36250000D02*
X5750000Y38750000D01*
X10500000Y31250000D02*
X8250000Y33500000D01*
X10500000Y26500000D02*
X10500000Y31250000D01*
X6000000Y29500000D02*
X2230000Y29500000D01*
X8000000Y27500000D02*
X6000000Y29500000D01*
X2230000Y29500000D02*
X2000000Y29730000D01*
X2000000Y32270000D02*
X8525404Y32270000D01*
X8525404Y32270000D02*
X9397702Y31397702D01*
G36*
X10837114Y78849397D02*
X13242302Y77242302D01*
X14849397Y74837114D01*
X15425000Y71943370D01*
X15425000Y50056635D01*
X15153879Y48693619D01*
X14413875Y47586125D01*
X13306381Y46846121D01*
X11887823Y46563952D01*
X11835501Y46542279D01*
X11779957Y46531231D01*
X11732869Y46499768D01*
X11680547Y46478095D01*
X11640500Y46438048D01*
X11593414Y46406586D01*
X11561952Y46359500D01*
X11521905Y46319453D01*
X11500232Y46267131D01*
X11468769Y46220043D01*
X11457721Y46164499D01*
X11436048Y46112177D01*
X11436048Y46055542D01*
X11425000Y46000000D01*
X11425000Y45936086D01*
X11419239Y45944708D01*
X10997488Y46226512D01*
X10500000Y46325469D01*
X10002512Y46226512D01*
X9580761Y45944708D01*
X9298957Y45522957D01*
X9200000Y45025469D01*
X9200000Y44974531D01*
X9298957Y44477043D01*
X9580761Y44055292D01*
X10002512Y43773488D01*
X10500000Y43674531D01*
X10997488Y43773488D01*
X11419239Y44055292D01*
X11425000Y44063914D01*
X11425000Y35786033D01*
X11347127Y35863906D01*
X11255856Y35772635D01*
X11174492Y35981021D01*
X10686500Y36152283D01*
X10170115Y36123762D01*
X9825508Y35981021D01*
X9744143Y35772634D01*
X10500000Y35016777D01*
X10514142Y35030919D01*
X10690919Y34854142D01*
X10676777Y34840000D01*
X10690919Y34825858D01*
X10514142Y34649081D01*
X10500000Y34663223D01*
X9744143Y33907366D01*
X9825508Y33698979D01*
X10313500Y33527717D01*
X10829885Y33556238D01*
X11174492Y33698979D01*
X11255856Y33907365D01*
X11347127Y33816094D01*
X11425000Y33893967D01*
X11425000Y28000000D01*
X11436048Y27944458D01*
X11436048Y27887824D01*
X11512168Y27505141D01*
X11512168Y27505140D01*
X11540787Y27436049D01*
X11598024Y27297865D01*
X11598025Y27297864D01*
X11814797Y26973443D01*
X11814798Y26973440D01*
X11973440Y26814798D01*
X12231602Y26642300D01*
X12138091Y26638318D01*
X11705184Y26459003D01*
X11599278Y26229869D01*
X12500000Y25329147D01*
X12514142Y25343289D01*
X12690919Y25166512D01*
X12676777Y25152370D01*
X12690919Y25138228D01*
X12514142Y24961451D01*
X12500000Y24975593D01*
X11599278Y24074871D01*
X11705184Y23845737D01*
X12265712Y23641036D01*
X12861909Y23666422D01*
X13294816Y23845737D01*
X13400721Y24074869D01*
X13425000Y24050590D01*
X13425000Y21848928D01*
X13350791Y21923267D01*
X12799677Y22152109D01*
X12202941Y22152630D01*
X11651428Y21924750D01*
X11229103Y21503161D01*
X11000261Y20952047D01*
X10999740Y20355311D01*
X11227620Y19803798D01*
X11649209Y19381473D01*
X12030333Y19223217D01*
X11973440Y19185202D01*
X11814798Y19026560D01*
X11814798Y19026559D01*
X11598025Y18702136D01*
X11598024Y18702135D01*
X11554900Y18598024D01*
X11519338Y18512168D01*
X11512168Y18494859D01*
X11436048Y18112176D01*
X11436048Y18055542D01*
X11425000Y18000000D01*
X11425000Y15000000D01*
X11436048Y14944458D01*
X11436048Y14887823D01*
X11588289Y14122457D01*
X11588289Y14122456D01*
X11674146Y13915180D01*
X12107690Y13266336D01*
X12107691Y13266333D01*
X12187012Y13187012D01*
X12266332Y13107691D01*
X12266335Y13107690D01*
X12915180Y12674146D01*
X13122456Y12588289D01*
X13887818Y12436050D01*
X13887823Y12436048D01*
X14541012Y12306121D01*
X14999662Y11999662D01*
X15306120Y11541015D01*
X15425000Y10943365D01*
X15425000Y2056635D01*
X15306120Y1458985D01*
X14999662Y1000338D01*
X14541012Y693879D01*
X13943365Y575000D01*
X2056635Y575000D01*
X1458985Y693880D01*
X1000338Y1000338D01*
X693879Y1458988D01*
X575000Y2056635D01*
X575000Y9810000D01*
X5353552Y9810000D01*
X5456315Y9293377D01*
X5748958Y8855406D01*
X6186929Y8562763D01*
X6301366Y8540000D01*
X6186929Y8517237D01*
X5748958Y8224594D01*
X5456315Y7786623D01*
X5353552Y7270000D01*
X5456315Y6753377D01*
X5748958Y6315406D01*
X6186929Y6022763D01*
X6301366Y6000000D01*
X6186929Y5977237D01*
X5748958Y5684594D01*
X5456315Y5246623D01*
X5353552Y4730000D01*
X5456315Y4213377D01*
X5748958Y3775406D01*
X6086609Y3549795D01*
X5880000Y3549795D01*
X5694711Y3514931D01*
X5524535Y3405425D01*
X5410370Y3238339D01*
X5370205Y3040000D01*
X5370205Y1340000D01*
X5405069Y1154711D01*
X5514575Y984535D01*
X5681661Y870370D01*
X5880000Y830205D01*
X7580000Y830205D01*
X7765289Y865069D01*
X7935465Y974575D01*
X8049630Y1141661D01*
X8089795Y1340000D01*
X8089795Y1547480D01*
X8109038Y1501020D01*
X8461072Y1109184D01*
X8936258Y881893D01*
X9145000Y970789D01*
X9145000Y2065000D01*
X9395000Y2065000D01*
X9395000Y970789D01*
X9603742Y881893D01*
X10078928Y1109184D01*
X10430962Y1501020D01*
X10578097Y1856260D01*
X10488606Y2065000D01*
X9395000Y2065000D01*
X9145000Y2065000D01*
X9125000Y2065000D01*
X9125000Y2315000D01*
X9145000Y2315000D01*
X9145000Y2335000D01*
X9395000Y2335000D01*
X9395000Y2315000D01*
X10488606Y2315000D01*
X10578097Y2523740D01*
X10430962Y2878980D01*
X10078928Y3270816D01*
X9687882Y3457861D01*
X9813071Y3482763D01*
X10251042Y3775406D01*
X10543685Y4213377D01*
X10646448Y4730000D01*
X10543685Y5246623D01*
X10251042Y5684594D01*
X9813071Y5977237D01*
X9698634Y6000000D01*
X9813071Y6022763D01*
X10251042Y6315406D01*
X10543685Y6753377D01*
X10646448Y7270000D01*
X10543685Y7786623D01*
X10251042Y8224594D01*
X9813071Y8517237D01*
X9698634Y8540000D01*
X9813071Y8562763D01*
X10251042Y8855406D01*
X10543685Y9293377D01*
X10646448Y9810000D01*
X10543685Y10326623D01*
X10251042Y10764594D01*
X9813071Y11057237D01*
X9296448Y11160000D01*
X9243552Y11160000D01*
X8726929Y11057237D01*
X8288958Y10764594D01*
X8000000Y10332138D01*
X7711042Y10764594D01*
X7273071Y11057237D01*
X6756448Y11160000D01*
X6703552Y11160000D01*
X6186929Y11057237D01*
X5748958Y10764594D01*
X5456315Y10326623D01*
X5353552Y9810000D01*
X575000Y9810000D01*
X575000Y10943365D01*
X693879Y11541012D01*
X1000338Y11999662D01*
X1458985Y12306120D01*
X2112177Y12436048D01*
X2877544Y12588289D01*
X3084820Y12674146D01*
X3733664Y13107690D01*
X3733667Y13107691D01*
X3812988Y13187012D01*
X3892309Y13266332D01*
X3892310Y13266335D01*
X4325854Y13915180D01*
X4411711Y14122456D01*
X4411711Y14122457D01*
X4563951Y14887823D01*
X4563951Y14944454D01*
X4575000Y15000000D01*
X4575000Y20173167D01*
X4727620Y19803798D01*
X5149209Y19381473D01*
X5700323Y19152631D01*
X6297059Y19152110D01*
X6848572Y19379990D01*
X7270897Y19801579D01*
X7499739Y20352693D01*
X7500260Y20949429D01*
X7272380Y21500942D01*
X6850791Y21923267D01*
X6299677Y22152109D01*
X5702941Y22152630D01*
X5151428Y21924750D01*
X4729103Y21503161D01*
X4575000Y21132039D01*
X4575000Y24074871D01*
X5099278Y24074871D01*
X5205184Y23845737D01*
X5765712Y23641036D01*
X6361909Y23666422D01*
X6794816Y23845737D01*
X6900722Y24074871D01*
X6000000Y24975593D01*
X5099278Y24074871D01*
X4575000Y24074871D01*
X4575000Y24643319D01*
X4693367Y24357554D01*
X4922501Y24251648D01*
X5823223Y25152370D01*
X6176777Y25152370D01*
X7077499Y24251648D01*
X7306633Y24357554D01*
X7511334Y24918082D01*
X7491383Y25386658D01*
X10988666Y25386658D01*
X11014052Y24790461D01*
X11193367Y24357554D01*
X11422501Y24251648D01*
X12323223Y25152370D01*
X11422501Y26053092D01*
X11193367Y25947186D01*
X10988666Y25386658D01*
X7491383Y25386658D01*
X7485948Y25514279D01*
X7306633Y25947186D01*
X7077499Y26053092D01*
X6176777Y25152370D01*
X5823223Y25152370D01*
X4922501Y26053092D01*
X4693367Y25947186D01*
X4575000Y25623064D01*
X4575000Y26000000D01*
X4563951Y26055546D01*
X4563951Y26112177D01*
X4540541Y26229869D01*
X5099278Y26229869D01*
X6000000Y25329147D01*
X6900722Y26229869D01*
X6794816Y26459003D01*
X6234288Y26663704D01*
X5638091Y26638318D01*
X5205184Y26459003D01*
X5099278Y26229869D01*
X4540541Y26229869D01*
X4411711Y26877544D01*
X4325854Y27084820D01*
X3892309Y27733667D01*
X3892309Y27733668D01*
X3793187Y27832789D01*
X3733667Y27892309D01*
X3733664Y27892310D01*
X3084820Y28325854D01*
X2877544Y28411711D01*
X2429450Y28500842D01*
X2735429Y28627271D01*
X2983591Y28875000D01*
X5741116Y28875000D01*
X7199926Y27416190D01*
X7199861Y27341568D01*
X7321397Y27047428D01*
X7546245Y26822188D01*
X7840172Y26700139D01*
X8158432Y26699861D01*
X8452572Y26821397D01*
X8677812Y27046245D01*
X8799861Y27340172D01*
X8800139Y27658432D01*
X8678603Y27952572D01*
X8453755Y28177812D01*
X8159828Y28299861D01*
X8083957Y28299927D01*
X6441942Y29941942D01*
X6239177Y30077425D01*
X6000000Y30125000D01*
X3243392Y30125000D01*
X3102729Y30465429D01*
X2737353Y30831444D01*
X2331015Y31000170D01*
X2735429Y31167271D01*
X3101444Y31532647D01*
X3148097Y31645000D01*
X8266520Y31645000D01*
X8597628Y31313892D01*
X8597563Y31239270D01*
X8719099Y30945130D01*
X8943947Y30719890D01*
X9237874Y30597841D01*
X9556134Y30597563D01*
X9850274Y30719099D01*
X10075514Y30943947D01*
X10197563Y31237874D01*
X10197841Y31556134D01*
X10076305Y31850274D01*
X9851457Y32075514D01*
X9557530Y32197563D01*
X9481658Y32197629D01*
X8967346Y32711942D01*
X8764581Y32847425D01*
X8525404Y32895000D01*
X3148358Y32895000D01*
X3102729Y33005429D01*
X2737353Y33371444D01*
X2259721Y33569774D01*
X1742548Y33570226D01*
X1264571Y33372729D01*
X898556Y33007353D01*
X700226Y32529721D01*
X699774Y32012548D01*
X897271Y31534571D01*
X1262647Y31168556D01*
X1668985Y30999830D01*
X1264571Y30832729D01*
X898556Y30467353D01*
X700226Y29989721D01*
X699774Y29472548D01*
X724010Y29413893D01*
X693879Y29458988D01*
X575000Y30056635D01*
X575000Y34865469D01*
X4200000Y34865469D01*
X4200000Y34814531D01*
X4298957Y34317043D01*
X4580761Y33895292D01*
X5002512Y33613488D01*
X5500000Y33514531D01*
X5997488Y33613488D01*
X6419239Y33895292D01*
X6701043Y34317043D01*
X6800000Y34814531D01*
X6800000Y34865469D01*
X6767969Y35026500D01*
X9187717Y35026500D01*
X9216238Y34510115D01*
X9358979Y34165508D01*
X9567366Y34084143D01*
X10323223Y34840000D01*
X9567366Y35595857D01*
X9358979Y35514492D01*
X9187717Y35026500D01*
X6767969Y35026500D01*
X6701043Y35362957D01*
X6419239Y35784708D01*
X5997488Y36066512D01*
X5500000Y36165469D01*
X5002512Y36066512D01*
X4580761Y35784708D01*
X4298957Y35362957D01*
X4200000Y34865469D01*
X575000Y34865469D01*
X575000Y38943365D01*
X693879Y39541012D01*
X723032Y39584643D01*
X700226Y39529721D01*
X699774Y39012548D01*
X897271Y38534571D01*
X1262647Y38168556D01*
X1668985Y37999830D01*
X1264571Y37832729D01*
X898556Y37467353D01*
X700226Y36989721D01*
X699774Y36472548D01*
X897271Y35994571D01*
X1262647Y35628556D01*
X1740279Y35430226D01*
X2257452Y35429774D01*
X2735429Y35627271D01*
X3101444Y35992647D01*
X3299774Y36470279D01*
X3300226Y36987452D01*
X3102729Y37465429D01*
X2737353Y37831444D01*
X2331015Y38000170D01*
X2735429Y38167271D01*
X3101444Y38532647D01*
X3299774Y39010279D01*
X3300226Y39527452D01*
X3102729Y40005429D01*
X2737353Y40371444D01*
X2429676Y40499203D01*
X2877544Y40588289D01*
X3084820Y40674146D01*
X3733664Y41107690D01*
X3733667Y41107691D01*
X3812988Y41187012D01*
X3892309Y41266332D01*
X3892310Y41266335D01*
X4325854Y41915180D01*
X4411711Y42122456D01*
X4563951Y42887823D01*
X4563951Y42944454D01*
X4575000Y43000000D01*
X4575000Y44053967D01*
X4652873Y43976094D01*
X4744144Y44067365D01*
X4825508Y43858979D01*
X5313500Y43687717D01*
X5829885Y43716238D01*
X6174492Y43858979D01*
X6255857Y44067366D01*
X5500000Y44823223D01*
X5485858Y44809081D01*
X5309081Y44985858D01*
X5323223Y45000000D01*
X5676777Y45000000D01*
X6432634Y44244143D01*
X6641021Y44325508D01*
X6812283Y44813500D01*
X6783762Y45329885D01*
X6641021Y45674492D01*
X6432634Y45755857D01*
X5676777Y45000000D01*
X5323223Y45000000D01*
X5309081Y45014142D01*
X5485858Y45190919D01*
X5500000Y45176777D01*
X6255857Y45932634D01*
X6174492Y46141021D01*
X5686500Y46312283D01*
X5170115Y46283762D01*
X4825508Y46141021D01*
X4744144Y45932635D01*
X4652873Y46023906D01*
X4575000Y45946033D01*
X4575000Y46000000D01*
X4563952Y46055542D01*
X4563952Y46112177D01*
X4542279Y46164499D01*
X4531231Y46220043D01*
X4499768Y46267131D01*
X4478095Y46319453D01*
X4438048Y46359500D01*
X4406586Y46406586D01*
X4359500Y46438048D01*
X4319453Y46478095D01*
X4267131Y46499768D01*
X4220043Y46531231D01*
X4164499Y46542279D01*
X4112177Y46563952D01*
X2693619Y46846121D01*
X1586125Y47586125D01*
X846121Y48693619D01*
X785178Y49000000D01*
X1514531Y49000000D01*
X1613488Y48502512D01*
X1895292Y48080761D01*
X2317043Y47798957D01*
X2814531Y47700000D01*
X2865469Y47700000D01*
X3362957Y47798957D01*
X3764660Y48067366D01*
X12244143Y48067366D01*
X12325508Y47858979D01*
X12813500Y47687717D01*
X13329885Y47716238D01*
X13674492Y47858979D01*
X13755857Y48067366D01*
X13000000Y48823223D01*
X12244143Y48067366D01*
X3764660Y48067366D01*
X3784708Y48080761D01*
X4066512Y48502512D01*
X4165469Y49000000D01*
X4128372Y49186500D01*
X11687717Y49186500D01*
X11716238Y48670115D01*
X11858979Y48325508D01*
X12067366Y48244143D01*
X12823223Y49000000D01*
X13176777Y49000000D01*
X13932634Y48244143D01*
X14141021Y48325508D01*
X14312283Y48813500D01*
X14283762Y49329885D01*
X14141021Y49674492D01*
X13932634Y49755857D01*
X13176777Y49000000D01*
X12823223Y49000000D01*
X12067366Y49755857D01*
X11858979Y49674492D01*
X11687717Y49186500D01*
X4128372Y49186500D01*
X4066512Y49497488D01*
X3784708Y49919239D01*
X3764661Y49932634D01*
X12244143Y49932634D01*
X13000000Y49176777D01*
X13755857Y49932634D01*
X13674492Y50141021D01*
X13186500Y50312283D01*
X12670115Y50283762D01*
X12325508Y50141021D01*
X12244143Y49932634D01*
X3764661Y49932634D01*
X3362957Y50201043D01*
X2865469Y50300000D01*
X2814531Y50300000D01*
X2317043Y50201043D01*
X1895292Y49919239D01*
X1613488Y49497488D01*
X1514531Y49000000D01*
X785178Y49000000D01*
X575000Y50056635D01*
X575000Y52067366D01*
X2244143Y52067366D01*
X2325508Y51858979D01*
X2813500Y51687717D01*
X3329885Y51716238D01*
X3674492Y51858979D01*
X3755857Y52067366D01*
X12244143Y52067366D01*
X12325508Y51858979D01*
X12813500Y51687717D01*
X13329885Y51716238D01*
X13674492Y51858979D01*
X13755857Y52067366D01*
X13000000Y52823223D01*
X12244143Y52067366D01*
X3755857Y52067366D01*
X3000000Y52823223D01*
X2244143Y52067366D01*
X575000Y52067366D01*
X575000Y53186500D01*
X1687717Y53186500D01*
X1716238Y52670115D01*
X1858979Y52325508D01*
X2067366Y52244143D01*
X2823223Y53000000D01*
X3176777Y53000000D01*
X3932634Y52244143D01*
X4141021Y52325508D01*
X4312283Y52813500D01*
X4283762Y53329885D01*
X4141021Y53674492D01*
X3966721Y53742548D01*
X5429774Y53742548D01*
X5627271Y53264571D01*
X5992647Y52898556D01*
X6470279Y52700226D01*
X6987452Y52699774D01*
X7465429Y52897271D01*
X7831444Y53262647D01*
X8000170Y53668985D01*
X8167271Y53264571D01*
X8532647Y52898556D01*
X9010279Y52700226D01*
X9527452Y52699774D01*
X10005429Y52897271D01*
X10295163Y53186500D01*
X11687717Y53186500D01*
X11716238Y52670115D01*
X11858979Y52325508D01*
X12067366Y52244143D01*
X12823223Y53000000D01*
X13176777Y53000000D01*
X13932634Y52244143D01*
X14141021Y52325508D01*
X14312283Y52813500D01*
X14283762Y53329885D01*
X14141021Y53674492D01*
X13932634Y53755857D01*
X13176777Y53000000D01*
X12823223Y53000000D01*
X12067366Y53755857D01*
X11858979Y53674492D01*
X11687717Y53186500D01*
X10295163Y53186500D01*
X10371444Y53262647D01*
X10569774Y53740279D01*
X10569942Y53932634D01*
X12244143Y53932634D01*
X13000000Y53176777D01*
X13755857Y53932634D01*
X13674492Y54141021D01*
X13186500Y54312283D01*
X12670115Y54283762D01*
X12325508Y54141021D01*
X12244143Y53932634D01*
X10569942Y53932634D01*
X10570226Y54257452D01*
X10372729Y54735429D01*
X10007353Y55101444D01*
X9529721Y55299774D01*
X9012548Y55300226D01*
X8534571Y55102729D01*
X8168556Y54737353D01*
X7999830Y54331015D01*
X7832729Y54735429D01*
X7467353Y55101444D01*
X6989721Y55299774D01*
X6472548Y55300226D01*
X5994571Y55102729D01*
X5628556Y54737353D01*
X5430226Y54259721D01*
X5429774Y53742548D01*
X3966721Y53742548D01*
X3932634Y53755857D01*
X3176777Y53000000D01*
X2823223Y53000000D01*
X2067366Y53755857D01*
X1858979Y53674492D01*
X1687717Y53186500D01*
X575000Y53186500D01*
X575000Y53932634D01*
X2244143Y53932634D01*
X3000000Y53176777D01*
X3755857Y53932634D01*
X3674492Y54141021D01*
X3186500Y54312283D01*
X2670115Y54283762D01*
X2325508Y54141021D01*
X2244143Y53932634D01*
X575000Y53932634D01*
X575000Y63185469D01*
X1700000Y63185469D01*
X1700000Y63134531D01*
X1798957Y62637043D01*
X2080761Y62215292D01*
X2502512Y61933488D01*
X3000000Y61834531D01*
X3497488Y61933488D01*
X3919239Y62215292D01*
X4201043Y62637043D01*
X4222029Y62742548D01*
X5429774Y62742548D01*
X5627271Y62264571D01*
X5992647Y61898556D01*
X6470279Y61700226D01*
X6987452Y61699774D01*
X7465429Y61897271D01*
X7831444Y62262647D01*
X8000170Y62668985D01*
X8167271Y62264571D01*
X8532647Y61898556D01*
X9010279Y61700226D01*
X9527452Y61699774D01*
X10005429Y61897271D01*
X10371444Y62262647D01*
X10569774Y62740279D01*
X10570163Y63185469D01*
X11700000Y63185469D01*
X11700000Y63134531D01*
X11798957Y62637043D01*
X12080761Y62215292D01*
X12502512Y61933488D01*
X13000000Y61834531D01*
X13497488Y61933488D01*
X13919239Y62215292D01*
X14201043Y62637043D01*
X14300000Y63134531D01*
X14300000Y63185469D01*
X14201043Y63682957D01*
X13919239Y64104708D01*
X13497488Y64386512D01*
X13000000Y64485469D01*
X12502512Y64386512D01*
X12080761Y64104708D01*
X11798957Y63682957D01*
X11700000Y63185469D01*
X10570163Y63185469D01*
X10570226Y63257452D01*
X10372729Y63735429D01*
X10007353Y64101444D01*
X9529721Y64299774D01*
X9012548Y64300226D01*
X8534571Y64102729D01*
X8168556Y63737353D01*
X7999830Y63331015D01*
X7832729Y63735429D01*
X7467353Y64101444D01*
X6989721Y64299774D01*
X6472548Y64300226D01*
X5994571Y64102729D01*
X5628556Y63737353D01*
X5430226Y63259721D01*
X5429774Y62742548D01*
X4222029Y62742548D01*
X4300000Y63134531D01*
X4300000Y63185469D01*
X4201043Y63682957D01*
X3919239Y64104708D01*
X3497488Y64386512D01*
X3000000Y64485469D01*
X2502512Y64386512D01*
X2080761Y64104708D01*
X1798957Y63682957D01*
X1700000Y63185469D01*
X575000Y63185469D01*
X575000Y70100000D01*
X2690205Y70100000D01*
X2690205Y68100000D01*
X2725069Y67914711D01*
X2834575Y67744535D01*
X3001661Y67630370D01*
X3200000Y67590205D01*
X5200000Y67590205D01*
X5385289Y67625069D01*
X5555465Y67734575D01*
X5669630Y67901661D01*
X5694100Y68022501D01*
X10899278Y68022501D01*
X11005184Y67793367D01*
X11565712Y67588666D01*
X12161909Y67614052D01*
X12594816Y67793367D01*
X12700722Y68022501D01*
X11800000Y68923223D01*
X10899278Y68022501D01*
X5694100Y68022501D01*
X5709795Y68100000D01*
X5709795Y69334288D01*
X10288666Y69334288D01*
X10314052Y68738091D01*
X10493367Y68305184D01*
X10722501Y68199278D01*
X11623223Y69100000D01*
X11976777Y69100000D01*
X12877499Y68199278D01*
X13106633Y68305184D01*
X13311334Y68865712D01*
X13285948Y69461909D01*
X13106633Y69894816D01*
X12877499Y70000722D01*
X11976777Y69100000D01*
X11623223Y69100000D01*
X10722501Y70000722D01*
X10493367Y69894816D01*
X10288666Y69334288D01*
X5709795Y69334288D01*
X5709795Y70100000D01*
X5695213Y70177499D01*
X10899278Y70177499D01*
X11800000Y69276777D01*
X12700722Y70177499D01*
X12594816Y70406633D01*
X12034288Y70611334D01*
X11438091Y70585948D01*
X11005184Y70406633D01*
X10899278Y70177499D01*
X5695213Y70177499D01*
X5674931Y70285289D01*
X5565425Y70455465D01*
X5398339Y70569630D01*
X5200000Y70609795D01*
X3200000Y70609795D01*
X3014711Y70574931D01*
X2844535Y70465425D01*
X2730370Y70298339D01*
X2690205Y70100000D01*
X575000Y70100000D01*
X575000Y71742548D01*
X5429774Y71742548D01*
X5627271Y71264571D01*
X5992647Y70898556D01*
X6470279Y70700226D01*
X6987452Y70699774D01*
X7465429Y70897271D01*
X7831444Y71262647D01*
X8000170Y71668985D01*
X8167271Y71264571D01*
X8532647Y70898556D01*
X9010279Y70700226D01*
X9527452Y70699774D01*
X10005429Y70897271D01*
X10371444Y71262647D01*
X10569774Y71740279D01*
X10570226Y72257452D01*
X10372729Y72735429D01*
X10007353Y73101444D01*
X9529721Y73299774D01*
X9012548Y73300226D01*
X8534571Y73102729D01*
X8168556Y72737353D01*
X7999830Y72331015D01*
X7832729Y72735429D01*
X7467353Y73101444D01*
X6989721Y73299774D01*
X6472548Y73300226D01*
X5994571Y73102729D01*
X5628556Y72737353D01*
X5430226Y72259721D01*
X5429774Y71742548D01*
X575000Y71742548D01*
X575000Y71943365D01*
X1150603Y74837114D01*
X2757698Y77242302D01*
X5162886Y78849397D01*
X7999998Y79413735D01*
X10837114Y78849397D01*
X10837114Y78849397D01*
G37*
X10837114Y78849397D02*
X13242302Y77242302D01*
X14849397Y74837114D01*
X15425000Y71943370D01*
X15425000Y50056635D01*
X15153879Y48693619D01*
X14413875Y47586125D01*
X13306381Y46846121D01*
X11887823Y46563952D01*
X11835501Y46542279D01*
X11779957Y46531231D01*
X11732869Y46499768D01*
X11680547Y46478095D01*
X11640500Y46438048D01*
X11593414Y46406586D01*
X11561952Y46359500D01*
X11521905Y46319453D01*
X11500232Y46267131D01*
X11468769Y46220043D01*
X11457721Y46164499D01*
X11436048Y46112177D01*
X11436048Y46055542D01*
X11425000Y46000000D01*
X11425000Y45936086D01*
X11419239Y45944708D01*
X10997488Y46226512D01*
X10500000Y46325469D01*
X10002512Y46226512D01*
X9580761Y45944708D01*
X9298957Y45522957D01*
X9200000Y45025469D01*
X9200000Y44974531D01*
X9298957Y44477043D01*
X9580761Y44055292D01*
X10002512Y43773488D01*
X10500000Y43674531D01*
X10997488Y43773488D01*
X11419239Y44055292D01*
X11425000Y44063914D01*
X11425000Y35786033D01*
X11347127Y35863906D01*
X11255856Y35772635D01*
X11174492Y35981021D01*
X10686500Y36152283D01*
X10170115Y36123762D01*
X9825508Y35981021D01*
X9744143Y35772634D01*
X10500000Y35016777D01*
X10514142Y35030919D01*
X10690919Y34854142D01*
X10676777Y34840000D01*
X10690919Y34825858D01*
X10514142Y34649081D01*
X10500000Y34663223D01*
X9744143Y33907366D01*
X9825508Y33698979D01*
X10313500Y33527717D01*
X10829885Y33556238D01*
X11174492Y33698979D01*
X11255856Y33907365D01*
X11347127Y33816094D01*
X11425000Y33893967D01*
X11425000Y28000000D01*
X11436048Y27944458D01*
X11436048Y27887824D01*
X11512168Y27505141D01*
X11512168Y27505140D01*
X11540787Y27436049D01*
X11598024Y27297865D01*
X11598025Y27297864D01*
X11814797Y26973443D01*
X11814798Y26973440D01*
X11973440Y26814798D01*
X12231602Y26642300D01*
X12138091Y26638318D01*
X11705184Y26459003D01*
X11599278Y26229869D01*
X12500000Y25329147D01*
X12514142Y25343289D01*
X12690919Y25166512D01*
X12676777Y25152370D01*
X12690919Y25138228D01*
X12514142Y24961451D01*
X12500000Y24975593D01*
X11599278Y24074871D01*
X11705184Y23845737D01*
X12265712Y23641036D01*
X12861909Y23666422D01*
X13294816Y23845737D01*
X13400721Y24074869D01*
X13425000Y24050590D01*
X13425000Y21848928D01*
X13350791Y21923267D01*
X12799677Y22152109D01*
X12202941Y22152630D01*
X11651428Y21924750D01*
X11229103Y21503161D01*
X11000261Y20952047D01*
X10999740Y20355311D01*
X11227620Y19803798D01*
X11649209Y19381473D01*
X12030333Y19223217D01*
X11973440Y19185202D01*
X11814798Y19026560D01*
X11814798Y19026559D01*
X11598025Y18702136D01*
X11598024Y18702135D01*
X11554900Y18598024D01*
X11519338Y18512168D01*
X11512168Y18494859D01*
X11436048Y18112176D01*
X11436048Y18055542D01*
X11425000Y18000000D01*
X11425000Y15000000D01*
X11436048Y14944458D01*
X11436048Y14887823D01*
X11588289Y14122457D01*
X11588289Y14122456D01*
X11674146Y13915180D01*
X12107690Y13266336D01*
X12107691Y13266333D01*
X12187012Y13187012D01*
X12266332Y13107691D01*
X12266335Y13107690D01*
X12915180Y12674146D01*
X13122456Y12588289D01*
X13887818Y12436050D01*
X13887823Y12436048D01*
X14541012Y12306121D01*
X14999662Y11999662D01*
X15306120Y11541015D01*
X15425000Y10943365D01*
X15425000Y2056635D01*
X15306120Y1458985D01*
X14999662Y1000338D01*
X14541012Y693879D01*
X13943365Y575000D01*
X2056635Y575000D01*
X1458985Y693880D01*
X1000338Y1000338D01*
X693879Y1458988D01*
X575000Y2056635D01*
X575000Y9810000D01*
X5353552Y9810000D01*
X5456315Y9293377D01*
X5748958Y8855406D01*
X6186929Y8562763D01*
X6301366Y8540000D01*
X6186929Y8517237D01*
X5748958Y8224594D01*
X5456315Y7786623D01*
X5353552Y7270000D01*
X5456315Y6753377D01*
X5748958Y6315406D01*
X6186929Y6022763D01*
X6301366Y6000000D01*
X6186929Y5977237D01*
X5748958Y5684594D01*
X5456315Y5246623D01*
X5353552Y4730000D01*
X5456315Y4213377D01*
X5748958Y3775406D01*
X6086609Y3549795D01*
X5880000Y3549795D01*
X5694711Y3514931D01*
X5524535Y3405425D01*
X5410370Y3238339D01*
X5370205Y3040000D01*
X5370205Y1340000D01*
X5405069Y1154711D01*
X5514575Y984535D01*
X5681661Y870370D01*
X5880000Y830205D01*
X7580000Y830205D01*
X7765289Y865069D01*
X7935465Y974575D01*
X8049630Y1141661D01*
X8089795Y1340000D01*
X8089795Y1547480D01*
X8109038Y1501020D01*
X8461072Y1109184D01*
X8936258Y881893D01*
X9145000Y970789D01*
X9145000Y2065000D01*
X9395000Y2065000D01*
X9395000Y970789D01*
X9603742Y881893D01*
X10078928Y1109184D01*
X10430962Y1501020D01*
X10578097Y1856260D01*
X10488606Y2065000D01*
X9395000Y2065000D01*
X9145000Y2065000D01*
X9125000Y2065000D01*
X9125000Y2315000D01*
X9145000Y2315000D01*
X9145000Y2335000D01*
X9395000Y2335000D01*
X9395000Y2315000D01*
X10488606Y2315000D01*
X10578097Y2523740D01*
X10430962Y2878980D01*
X10078928Y3270816D01*
X9687882Y3457861D01*
X9813071Y3482763D01*
X10251042Y3775406D01*
X10543685Y4213377D01*
X10646448Y4730000D01*
X10543685Y5246623D01*
X10251042Y5684594D01*
X9813071Y5977237D01*
X9698634Y6000000D01*
X9813071Y6022763D01*
X10251042Y6315406D01*
X10543685Y6753377D01*
X10646448Y7270000D01*
X10543685Y7786623D01*
X10251042Y8224594D01*
X9813071Y8517237D01*
X9698634Y8540000D01*
X9813071Y8562763D01*
X10251042Y8855406D01*
X10543685Y9293377D01*
X10646448Y9810000D01*
X10543685Y10326623D01*
X10251042Y10764594D01*
X9813071Y11057237D01*
X9296448Y11160000D01*
X9243552Y11160000D01*
X8726929Y11057237D01*
X8288958Y10764594D01*
X8000000Y10332138D01*
X7711042Y10764594D01*
X7273071Y11057237D01*
X6756448Y11160000D01*
X6703552Y11160000D01*
X6186929Y11057237D01*
X5748958Y10764594D01*
X5456315Y10326623D01*
X5353552Y9810000D01*
X575000Y9810000D01*
X575000Y10943365D01*
X693879Y11541012D01*
X1000338Y11999662D01*
X1458985Y12306120D01*
X2112177Y12436048D01*
X2877544Y12588289D01*
X3084820Y12674146D01*
X3733664Y13107690D01*
X3733667Y13107691D01*
X3812988Y13187012D01*
X3892309Y13266332D01*
X3892310Y13266335D01*
X4325854Y13915180D01*
X4411711Y14122456D01*
X4411711Y14122457D01*
X4563951Y14887823D01*
X4563951Y14944454D01*
X4575000Y15000000D01*
X4575000Y20173167D01*
X4727620Y19803798D01*
X5149209Y19381473D01*
X5700323Y19152631D01*
X6297059Y19152110D01*
X6848572Y19379990D01*
X7270897Y19801579D01*
X7499739Y20352693D01*
X7500260Y20949429D01*
X7272380Y21500942D01*
X6850791Y21923267D01*
X6299677Y22152109D01*
X5702941Y22152630D01*
X5151428Y21924750D01*
X4729103Y21503161D01*
X4575000Y21132039D01*
X4575000Y24074871D01*
X5099278Y24074871D01*
X5205184Y23845737D01*
X5765712Y23641036D01*
X6361909Y23666422D01*
X6794816Y23845737D01*
X6900722Y24074871D01*
X6000000Y24975593D01*
X5099278Y24074871D01*
X4575000Y24074871D01*
X4575000Y24643319D01*
X4693367Y24357554D01*
X4922501Y24251648D01*
X5823223Y25152370D01*
X6176777Y25152370D01*
X7077499Y24251648D01*
X7306633Y24357554D01*
X7511334Y24918082D01*
X7491383Y25386658D01*
X10988666Y25386658D01*
X11014052Y24790461D01*
X11193367Y24357554D01*
X11422501Y24251648D01*
X12323223Y25152370D01*
X11422501Y26053092D01*
X11193367Y25947186D01*
X10988666Y25386658D01*
X7491383Y25386658D01*
X7485948Y25514279D01*
X7306633Y25947186D01*
X7077499Y26053092D01*
X6176777Y25152370D01*
X5823223Y25152370D01*
X4922501Y26053092D01*
X4693367Y25947186D01*
X4575000Y25623064D01*
X4575000Y26000000D01*
X4563951Y26055546D01*
X4563951Y26112177D01*
X4540541Y26229869D01*
X5099278Y26229869D01*
X6000000Y25329147D01*
X6900722Y26229869D01*
X6794816Y26459003D01*
X6234288Y26663704D01*
X5638091Y26638318D01*
X5205184Y26459003D01*
X5099278Y26229869D01*
X4540541Y26229869D01*
X4411711Y26877544D01*
X4325854Y27084820D01*
X3892309Y27733667D01*
X3892309Y27733668D01*
X3793187Y27832789D01*
X3733667Y27892309D01*
X3733664Y27892310D01*
X3084820Y28325854D01*
X2877544Y28411711D01*
X2429450Y28500842D01*
X2735429Y28627271D01*
X2983591Y28875000D01*
X5741116Y28875000D01*
X7199926Y27416190D01*
X7199861Y27341568D01*
X7321397Y27047428D01*
X7546245Y26822188D01*
X7840172Y26700139D01*
X8158432Y26699861D01*
X8452572Y26821397D01*
X8677812Y27046245D01*
X8799861Y27340172D01*
X8800139Y27658432D01*
X8678603Y27952572D01*
X8453755Y28177812D01*
X8159828Y28299861D01*
X8083957Y28299927D01*
X6441942Y29941942D01*
X6239177Y30077425D01*
X6000000Y30125000D01*
X3243392Y30125000D01*
X3102729Y30465429D01*
X2737353Y30831444D01*
X2331015Y31000170D01*
X2735429Y31167271D01*
X3101444Y31532647D01*
X3148097Y31645000D01*
X8266520Y31645000D01*
X8597628Y31313892D01*
X8597563Y31239270D01*
X8719099Y30945130D01*
X8943947Y30719890D01*
X9237874Y30597841D01*
X9556134Y30597563D01*
X9850274Y30719099D01*
X10075514Y30943947D01*
X10197563Y31237874D01*
X10197841Y31556134D01*
X10076305Y31850274D01*
X9851457Y32075514D01*
X9557530Y32197563D01*
X9481658Y32197629D01*
X8967346Y32711942D01*
X8764581Y32847425D01*
X8525404Y32895000D01*
X3148358Y32895000D01*
X3102729Y33005429D01*
X2737353Y33371444D01*
X2259721Y33569774D01*
X1742548Y33570226D01*
X1264571Y33372729D01*
X898556Y33007353D01*
X700226Y32529721D01*
X699774Y32012548D01*
X897271Y31534571D01*
X1262647Y31168556D01*
X1668985Y30999830D01*
X1264571Y30832729D01*
X898556Y30467353D01*
X700226Y29989721D01*
X699774Y29472548D01*
X724010Y29413893D01*
X693879Y29458988D01*
X575000Y30056635D01*
X575000Y34865469D01*
X4200000Y34865469D01*
X4200000Y34814531D01*
X4298957Y34317043D01*
X4580761Y33895292D01*
X5002512Y33613488D01*
X5500000Y33514531D01*
X5997488Y33613488D01*
X6419239Y33895292D01*
X6701043Y34317043D01*
X6800000Y34814531D01*
X6800000Y34865469D01*
X6767969Y35026500D01*
X9187717Y35026500D01*
X9216238Y34510115D01*
X9358979Y34165508D01*
X9567366Y34084143D01*
X10323223Y34840000D01*
X9567366Y35595857D01*
X9358979Y35514492D01*
X9187717Y35026500D01*
X6767969Y35026500D01*
X6701043Y35362957D01*
X6419239Y35784708D01*
X5997488Y36066512D01*
X5500000Y36165469D01*
X5002512Y36066512D01*
X4580761Y35784708D01*
X4298957Y35362957D01*
X4200000Y34865469D01*
X575000Y34865469D01*
X575000Y38943365D01*
X693879Y39541012D01*
X723032Y39584643D01*
X700226Y39529721D01*
X699774Y39012548D01*
X897271Y38534571D01*
X1262647Y38168556D01*
X1668985Y37999830D01*
X1264571Y37832729D01*
X898556Y37467353D01*
X700226Y36989721D01*
X699774Y36472548D01*
X897271Y35994571D01*
X1262647Y35628556D01*
X1740279Y35430226D01*
X2257452Y35429774D01*
X2735429Y35627271D01*
X3101444Y35992647D01*
X3299774Y36470279D01*
X3300226Y36987452D01*
X3102729Y37465429D01*
X2737353Y37831444D01*
X2331015Y38000170D01*
X2735429Y38167271D01*
X3101444Y38532647D01*
X3299774Y39010279D01*
X3300226Y39527452D01*
X3102729Y40005429D01*
X2737353Y40371444D01*
X2429676Y40499203D01*
X2877544Y40588289D01*
X3084820Y40674146D01*
X3733664Y41107690D01*
X3733667Y41107691D01*
X3812988Y41187012D01*
X3892309Y41266332D01*
X3892310Y41266335D01*
X4325854Y41915180D01*
X4411711Y42122456D01*
X4563951Y42887823D01*
X4563951Y42944454D01*
X4575000Y43000000D01*
X4575000Y44053967D01*
X4652873Y43976094D01*
X4744144Y44067365D01*
X4825508Y43858979D01*
X5313500Y43687717D01*
X5829885Y43716238D01*
X6174492Y43858979D01*
X6255857Y44067366D01*
X5500000Y44823223D01*
X5485858Y44809081D01*
X5309081Y44985858D01*
X5323223Y45000000D01*
X5676777Y45000000D01*
X6432634Y44244143D01*
X6641021Y44325508D01*
X6812283Y44813500D01*
X6783762Y45329885D01*
X6641021Y45674492D01*
X6432634Y45755857D01*
X5676777Y45000000D01*
X5323223Y45000000D01*
X5309081Y45014142D01*
X5485858Y45190919D01*
X5500000Y45176777D01*
X6255857Y45932634D01*
X6174492Y46141021D01*
X5686500Y46312283D01*
X5170115Y46283762D01*
X4825508Y46141021D01*
X4744144Y45932635D01*
X4652873Y46023906D01*
X4575000Y45946033D01*
X4575000Y46000000D01*
X4563952Y46055542D01*
X4563952Y46112177D01*
X4542279Y46164499D01*
X4531231Y46220043D01*
X4499768Y46267131D01*
X4478095Y46319453D01*
X4438048Y46359500D01*
X4406586Y46406586D01*
X4359500Y46438048D01*
X4319453Y46478095D01*
X4267131Y46499768D01*
X4220043Y46531231D01*
X4164499Y46542279D01*
X4112177Y46563952D01*
X2693619Y46846121D01*
X1586125Y47586125D01*
X846121Y48693619D01*
X785178Y49000000D01*
X1514531Y49000000D01*
X1613488Y48502512D01*
X1895292Y48080761D01*
X2317043Y47798957D01*
X2814531Y47700000D01*
X2865469Y47700000D01*
X3362957Y47798957D01*
X3764660Y48067366D01*
X12244143Y48067366D01*
X12325508Y47858979D01*
X12813500Y47687717D01*
X13329885Y47716238D01*
X13674492Y47858979D01*
X13755857Y48067366D01*
X13000000Y48823223D01*
X12244143Y48067366D01*
X3764660Y48067366D01*
X3784708Y48080761D01*
X4066512Y48502512D01*
X4165469Y49000000D01*
X4128372Y49186500D01*
X11687717Y49186500D01*
X11716238Y48670115D01*
X11858979Y48325508D01*
X12067366Y48244143D01*
X12823223Y49000000D01*
X13176777Y49000000D01*
X13932634Y48244143D01*
X14141021Y48325508D01*
X14312283Y48813500D01*
X14283762Y49329885D01*
X14141021Y49674492D01*
X13932634Y49755857D01*
X13176777Y49000000D01*
X12823223Y49000000D01*
X12067366Y49755857D01*
X11858979Y49674492D01*
X11687717Y49186500D01*
X4128372Y49186500D01*
X4066512Y49497488D01*
X3784708Y49919239D01*
X3764661Y49932634D01*
X12244143Y49932634D01*
X13000000Y49176777D01*
X13755857Y49932634D01*
X13674492Y50141021D01*
X13186500Y50312283D01*
X12670115Y50283762D01*
X12325508Y50141021D01*
X12244143Y49932634D01*
X3764661Y49932634D01*
X3362957Y50201043D01*
X2865469Y50300000D01*
X2814531Y50300000D01*
X2317043Y50201043D01*
X1895292Y49919239D01*
X1613488Y49497488D01*
X1514531Y49000000D01*
X785178Y49000000D01*
X575000Y50056635D01*
X575000Y52067366D01*
X2244143Y52067366D01*
X2325508Y51858979D01*
X2813500Y51687717D01*
X3329885Y51716238D01*
X3674492Y51858979D01*
X3755857Y52067366D01*
X12244143Y52067366D01*
X12325508Y51858979D01*
X12813500Y51687717D01*
X13329885Y51716238D01*
X13674492Y51858979D01*
X13755857Y52067366D01*
X13000000Y52823223D01*
X12244143Y52067366D01*
X3755857Y52067366D01*
X3000000Y52823223D01*
X2244143Y52067366D01*
X575000Y52067366D01*
X575000Y53186500D01*
X1687717Y53186500D01*
X1716238Y52670115D01*
X1858979Y52325508D01*
X2067366Y52244143D01*
X2823223Y53000000D01*
X3176777Y53000000D01*
X3932634Y52244143D01*
X4141021Y52325508D01*
X4312283Y52813500D01*
X4283762Y53329885D01*
X4141021Y53674492D01*
X3966721Y53742548D01*
X5429774Y53742548D01*
X5627271Y53264571D01*
X5992647Y52898556D01*
X6470279Y52700226D01*
X6987452Y52699774D01*
X7465429Y52897271D01*
X7831444Y53262647D01*
X8000170Y53668985D01*
X8167271Y53264571D01*
X8532647Y52898556D01*
X9010279Y52700226D01*
X9527452Y52699774D01*
X10005429Y52897271D01*
X10295163Y53186500D01*
X11687717Y53186500D01*
X11716238Y52670115D01*
X11858979Y52325508D01*
X12067366Y52244143D01*
X12823223Y53000000D01*
X13176777Y53000000D01*
X13932634Y52244143D01*
X14141021Y52325508D01*
X14312283Y52813500D01*
X14283762Y53329885D01*
X14141021Y53674492D01*
X13932634Y53755857D01*
X13176777Y53000000D01*
X12823223Y53000000D01*
X12067366Y53755857D01*
X11858979Y53674492D01*
X11687717Y53186500D01*
X10295163Y53186500D01*
X10371444Y53262647D01*
X10569774Y53740279D01*
X10569942Y53932634D01*
X12244143Y53932634D01*
X13000000Y53176777D01*
X13755857Y53932634D01*
X13674492Y54141021D01*
X13186500Y54312283D01*
X12670115Y54283762D01*
X12325508Y54141021D01*
X12244143Y53932634D01*
X10569942Y53932634D01*
X10570226Y54257452D01*
X10372729Y54735429D01*
X10007353Y55101444D01*
X9529721Y55299774D01*
X9012548Y55300226D01*
X8534571Y55102729D01*
X8168556Y54737353D01*
X7999830Y54331015D01*
X7832729Y54735429D01*
X7467353Y55101444D01*
X6989721Y55299774D01*
X6472548Y55300226D01*
X5994571Y55102729D01*
X5628556Y54737353D01*
X5430226Y54259721D01*
X5429774Y53742548D01*
X3966721Y53742548D01*
X3932634Y53755857D01*
X3176777Y53000000D01*
X2823223Y53000000D01*
X2067366Y53755857D01*
X1858979Y53674492D01*
X1687717Y53186500D01*
X575000Y53186500D01*
X575000Y53932634D01*
X2244143Y53932634D01*
X3000000Y53176777D01*
X3755857Y53932634D01*
X3674492Y54141021D01*
X3186500Y54312283D01*
X2670115Y54283762D01*
X2325508Y54141021D01*
X2244143Y53932634D01*
X575000Y53932634D01*
X575000Y63185469D01*
X1700000Y63185469D01*
X1700000Y63134531D01*
X1798957Y62637043D01*
X2080761Y62215292D01*
X2502512Y61933488D01*
X3000000Y61834531D01*
X3497488Y61933488D01*
X3919239Y62215292D01*
X4201043Y62637043D01*
X4222029Y62742548D01*
X5429774Y62742548D01*
X5627271Y62264571D01*
X5992647Y61898556D01*
X6470279Y61700226D01*
X6987452Y61699774D01*
X7465429Y61897271D01*
X7831444Y62262647D01*
X8000170Y62668985D01*
X8167271Y62264571D01*
X8532647Y61898556D01*
X9010279Y61700226D01*
X9527452Y61699774D01*
X10005429Y61897271D01*
X10371444Y62262647D01*
X10569774Y62740279D01*
X10570163Y63185469D01*
X11700000Y63185469D01*
X11700000Y63134531D01*
X11798957Y62637043D01*
X12080761Y62215292D01*
X12502512Y61933488D01*
X13000000Y61834531D01*
X13497488Y61933488D01*
X13919239Y62215292D01*
X14201043Y62637043D01*
X14300000Y63134531D01*
X14300000Y63185469D01*
X14201043Y63682957D01*
X13919239Y64104708D01*
X13497488Y64386512D01*
X13000000Y64485469D01*
X12502512Y64386512D01*
X12080761Y64104708D01*
X11798957Y63682957D01*
X11700000Y63185469D01*
X10570163Y63185469D01*
X10570226Y63257452D01*
X10372729Y63735429D01*
X10007353Y64101444D01*
X9529721Y64299774D01*
X9012548Y64300226D01*
X8534571Y64102729D01*
X8168556Y63737353D01*
X7999830Y63331015D01*
X7832729Y63735429D01*
X7467353Y64101444D01*
X6989721Y64299774D01*
X6472548Y64300226D01*
X5994571Y64102729D01*
X5628556Y63737353D01*
X5430226Y63259721D01*
X5429774Y62742548D01*
X4222029Y62742548D01*
X4300000Y63134531D01*
X4300000Y63185469D01*
X4201043Y63682957D01*
X3919239Y64104708D01*
X3497488Y64386512D01*
X3000000Y64485469D01*
X2502512Y64386512D01*
X2080761Y64104708D01*
X1798957Y63682957D01*
X1700000Y63185469D01*
X575000Y63185469D01*
X575000Y70100000D01*
X2690205Y70100000D01*
X2690205Y68100000D01*
X2725069Y67914711D01*
X2834575Y67744535D01*
X3001661Y67630370D01*
X3200000Y67590205D01*
X5200000Y67590205D01*
X5385289Y67625069D01*
X5555465Y67734575D01*
X5669630Y67901661D01*
X5694100Y68022501D01*
X10899278Y68022501D01*
X11005184Y67793367D01*
X11565712Y67588666D01*
X12161909Y67614052D01*
X12594816Y67793367D01*
X12700722Y68022501D01*
X11800000Y68923223D01*
X10899278Y68022501D01*
X5694100Y68022501D01*
X5709795Y68100000D01*
X5709795Y69334288D01*
X10288666Y69334288D01*
X10314052Y68738091D01*
X10493367Y68305184D01*
X10722501Y68199278D01*
X11623223Y69100000D01*
X11976777Y69100000D01*
X12877499Y68199278D01*
X13106633Y68305184D01*
X13311334Y68865712D01*
X13285948Y69461909D01*
X13106633Y69894816D01*
X12877499Y70000722D01*
X11976777Y69100000D01*
X11623223Y69100000D01*
X10722501Y70000722D01*
X10493367Y69894816D01*
X10288666Y69334288D01*
X5709795Y69334288D01*
X5709795Y70100000D01*
X5695213Y70177499D01*
X10899278Y70177499D01*
X11800000Y69276777D01*
X12700722Y70177499D01*
X12594816Y70406633D01*
X12034288Y70611334D01*
X11438091Y70585948D01*
X11005184Y70406633D01*
X10899278Y70177499D01*
X5695213Y70177499D01*
X5674931Y70285289D01*
X5565425Y70455465D01*
X5398339Y70569630D01*
X5200000Y70609795D01*
X3200000Y70609795D01*
X3014711Y70574931D01*
X2844535Y70465425D01*
X2730370Y70298339D01*
X2690205Y70100000D01*
X575000Y70100000D01*
X575000Y71742548D01*
X5429774Y71742548D01*
X5627271Y71264571D01*
X5992647Y70898556D01*
X6470279Y70700226D01*
X6987452Y70699774D01*
X7465429Y70897271D01*
X7831444Y71262647D01*
X8000170Y71668985D01*
X8167271Y71264571D01*
X8532647Y70898556D01*
X9010279Y70700226D01*
X9527452Y70699774D01*
X10005429Y70897271D01*
X10371444Y71262647D01*
X10569774Y71740279D01*
X10570226Y72257452D01*
X10372729Y72735429D01*
X10007353Y73101444D01*
X9529721Y73299774D01*
X9012548Y73300226D01*
X8534571Y73102729D01*
X8168556Y72737353D01*
X7999830Y72331015D01*
X7832729Y72735429D01*
X7467353Y73101444D01*
X6989721Y73299774D01*
X6472548Y73300226D01*
X5994571Y73102729D01*
X5628556Y72737353D01*
X5430226Y72259721D01*
X5429774Y71742548D01*
X575000Y71742548D01*
X575000Y71943365D01*
X1150603Y74837114D01*
X2757698Y77242302D01*
X5162886Y78849397D01*
X7999998Y79413735D01*
X10837114Y78849397D01*
M02*
