M48
METRIC,TZ
T1C0.300
T2C0.750
T3C0.800
T4C1.000
T5C1.001
%
G90
G05
T1
X1750Y38750
X2250Y48750
X2500Y26500
X2500Y13500
X5575Y24500
X6250Y38750
X6500Y13500
T2
X2000Y31770
X2000Y29230
X2000Y24270
X2000Y21730
X2730Y72000
X2730Y63000
X2730Y54000
X5270Y72000
X5270Y63000
X5270Y54000
T3
X-1160Y49000
X-1000Y63160
X-1000Y53000
X1500Y45000
X1500Y34840
X6500Y45000
X6500Y34840
X9000Y63160
X9000Y53000
X9000Y49000
T4
X2730Y9810
X2730Y7270
X2730Y4730
X2730Y2190
X5270Y9810
X5270Y7270
X5270Y4730
X5270Y2190
T5
X-1080Y72000
X9080Y72000
T0
M30
