G04 #@! TF.FileFunction,Legend,Bot*
%FSLAX46Y46*%
G04 Gerber Fmt 4.6, Leading zero omitted, Abs format (unit mm)*
G04 Created by KiCad (PCBNEW 4.0.6-e0-6349~53~ubuntu16.04.1) date Sat Jun  3 13:09:08 2017*
%MOMM*%
%LPD*%
G01*
G04 APERTURE LIST*
%ADD10C,0.100000*%
%ADD11C,0.200000*%
%ADD12C,0.187500*%
%ADD13C,0.120000*%
%ADD14C,0.150000*%
G04 APERTURE END LIST*
D10*
D11*
X10785714Y31880952D02*
X11452381Y31642857D01*
X10785714Y31404761D01*
X10452381Y30833333D02*
X10452381Y30738094D01*
X10500000Y30642856D01*
X10547619Y30595237D01*
X10642857Y30547618D01*
X10833333Y30499999D01*
X11071429Y30499999D01*
X11261905Y30547618D01*
X11357143Y30595237D01*
X11404762Y30642856D01*
X11452381Y30738094D01*
X11452381Y30833333D01*
X11404762Y30928571D01*
X11357143Y30976190D01*
X11261905Y31023809D01*
X11071429Y31071428D01*
X10833333Y31071428D01*
X10642857Y31023809D01*
X10547619Y30976190D01*
X10500000Y30928571D01*
X10452381Y30833333D01*
X11357143Y30071428D02*
X11404762Y30023809D01*
X11452381Y30071428D01*
X11404762Y30119047D01*
X11357143Y30071428D01*
X11452381Y30071428D01*
X10452381Y29690476D02*
X10452381Y29071428D01*
X10833333Y29404762D01*
X10833333Y29261904D01*
X10880952Y29166666D01*
X10928571Y29119047D01*
X11023810Y29071428D01*
X11261905Y29071428D01*
X11357143Y29119047D01*
X11404762Y29166666D01*
X11452381Y29261904D01*
X11452381Y29547619D01*
X11404762Y29642857D01*
X11357143Y29690476D01*
X11452381Y28214285D02*
X10928571Y28214285D01*
X10833333Y28261904D01*
X10785714Y28357142D01*
X10785714Y28547619D01*
X10833333Y28642857D01*
X11404762Y28214285D02*
X11452381Y28309523D01*
X11452381Y28547619D01*
X11404762Y28642857D01*
X11309524Y28690476D01*
X11214286Y28690476D01*
X11119048Y28642857D01*
X11071429Y28547619D01*
X11071429Y28309523D01*
X11023810Y28214285D01*
D12*
X4628571Y2321429D02*
X4485714Y2273810D01*
X4438095Y2226190D01*
X4390476Y2130952D01*
X4390476Y1988095D01*
X4438095Y1892857D01*
X4485714Y1845238D01*
X4580952Y1797619D01*
X4961905Y1797619D01*
X4961905Y2797619D01*
X4628571Y2797619D01*
X4533333Y2750000D01*
X4485714Y2702381D01*
X4438095Y2607143D01*
X4438095Y2511905D01*
X4485714Y2416667D01*
X4533333Y2369048D01*
X4628571Y2321429D01*
X4961905Y2321429D01*
X11700000Y1640477D02*
X11738095Y1564286D01*
X11738095Y1450001D01*
X11700000Y1335715D01*
X11623810Y1259524D01*
X11547619Y1221429D01*
X11395238Y1183334D01*
X11280952Y1183334D01*
X11128571Y1221429D01*
X11052381Y1259524D01*
X10976190Y1335715D01*
X10938095Y1450001D01*
X10938095Y1526191D01*
X10976190Y1640477D01*
X11014286Y1678572D01*
X11280952Y1678572D01*
X11280952Y1526191D01*
X10938095Y2021429D02*
X11738095Y2021429D01*
X10938095Y2478572D01*
X11738095Y2478572D01*
X10938095Y2859524D02*
X11738095Y2859524D01*
X11738095Y3050000D01*
X11700000Y3164286D01*
X11623810Y3240477D01*
X11547619Y3278572D01*
X11395238Y3316667D01*
X11280952Y3316667D01*
X11128571Y3278572D01*
X11052381Y3240477D01*
X10976190Y3164286D01*
X10938095Y3050000D01*
X10938095Y2859524D01*
X10940476Y4297619D02*
X11273810Y4773810D01*
X11511905Y4297619D02*
X11511905Y5297619D01*
X11130952Y5297619D01*
X11035714Y5250000D01*
X10988095Y5202381D01*
X10940476Y5107143D01*
X10940476Y4964286D01*
X10988095Y4869048D01*
X11035714Y4821429D01*
X11130952Y4773810D01*
X11511905Y4773810D01*
X4440476Y4297619D02*
X4773810Y4773810D01*
X5011905Y4297619D02*
X5011905Y5297619D01*
X4630952Y5297619D01*
X4535714Y5250000D01*
X4488095Y5202381D01*
X4440476Y5107143D01*
X4440476Y4964286D01*
X4488095Y4869048D01*
X4535714Y4821429D01*
X4630952Y4773810D01*
X5011905Y4773810D01*
X11488095Y7083333D02*
X11011904Y7083333D01*
X11583333Y6797619D02*
X11250000Y7797619D01*
X10916666Y6797619D01*
X5083333Y7797619D02*
X4750000Y6797619D01*
X4416666Y7797619D01*
X11583333Y10297619D02*
X11250000Y9297619D01*
X10916666Y10297619D01*
X9607143Y16642857D02*
X9654762Y16690476D01*
X9702381Y16833333D01*
X9702381Y16928571D01*
X9654762Y17071429D01*
X9559524Y17166667D01*
X9464286Y17214286D01*
X9273810Y17261905D01*
X9130952Y17261905D01*
X8940476Y17214286D01*
X8845238Y17166667D01*
X8750000Y17071429D01*
X8702381Y16928571D01*
X8702381Y16833333D01*
X8750000Y16690476D01*
X8797619Y16642857D01*
X8702381Y16023810D02*
X8702381Y15833333D01*
X8750000Y15738095D01*
X8845238Y15642857D01*
X9035714Y15595238D01*
X9369048Y15595238D01*
X9559524Y15642857D01*
X9654762Y15738095D01*
X9702381Y15833333D01*
X9702381Y16023810D01*
X9654762Y16119048D01*
X9559524Y16214286D01*
X9369048Y16261905D01*
X9035714Y16261905D01*
X8845238Y16214286D01*
X8750000Y16119048D01*
X8702381Y16023810D01*
X9607143Y14595238D02*
X9654762Y14642857D01*
X9702381Y14785714D01*
X9702381Y14880952D01*
X9654762Y15023810D01*
X9559524Y15119048D01*
X9464286Y15166667D01*
X9273810Y15214286D01*
X9130952Y15214286D01*
X8940476Y15166667D01*
X8845238Y15119048D01*
X8750000Y15023810D01*
X8702381Y14880952D01*
X8702381Y14785714D01*
X8750000Y14642857D01*
X8797619Y14595238D01*
X9702381Y14166667D02*
X8702381Y14166667D01*
X9178571Y14166667D02*
X9178571Y13595238D01*
X9702381Y13595238D02*
X8702381Y13595238D01*
X9178571Y13119048D02*
X9178571Y12785714D01*
X9702381Y12642857D02*
X9702381Y13119048D01*
X8702381Y13119048D01*
X8702381Y12642857D01*
X9654762Y12261905D02*
X9702381Y12119048D01*
X9702381Y11880952D01*
X9654762Y11785714D01*
X9607143Y11738095D01*
X9511905Y11690476D01*
X9416667Y11690476D01*
X9321429Y11738095D01*
X9273810Y11785714D01*
X9226190Y11880952D01*
X9178571Y12071429D01*
X9130952Y12166667D01*
X9083333Y12214286D01*
X8988095Y12261905D01*
X8892857Y12261905D01*
X8797619Y12214286D01*
X8750000Y12166667D01*
X8702381Y12071429D01*
X8702381Y11833333D01*
X8750000Y11690476D01*
X7202381Y18738096D02*
X6202381Y18738096D01*
X6202381Y18357143D01*
X6250000Y18261905D01*
X6297619Y18214286D01*
X6392857Y18166667D01*
X6535714Y18166667D01*
X6630952Y18214286D01*
X6678571Y18261905D01*
X6726190Y18357143D01*
X6726190Y18738096D01*
X6678571Y17738096D02*
X6678571Y17404762D01*
X7202381Y17261905D02*
X7202381Y17738096D01*
X6202381Y17738096D01*
X6202381Y17261905D01*
X6916667Y16880953D02*
X6916667Y16404762D01*
X7202381Y16976191D02*
X6202381Y16642858D01*
X7202381Y16309524D01*
X6202381Y16119048D02*
X6202381Y15547619D01*
X7202381Y15833334D02*
X6202381Y15833334D01*
X6202381Y15023810D02*
X6202381Y14833333D01*
X6250000Y14738095D01*
X6345238Y14642857D01*
X6535714Y14595238D01*
X6869048Y14595238D01*
X7059524Y14642857D01*
X7154762Y14738095D01*
X7202381Y14833333D01*
X7202381Y15023810D01*
X7154762Y15119048D01*
X7059524Y15214286D01*
X6869048Y15261905D01*
X6535714Y15261905D01*
X6345238Y15214286D01*
X6250000Y15119048D01*
X6202381Y15023810D01*
X7202381Y14166667D02*
X6202381Y14166667D01*
X7202381Y13595238D01*
X6202381Y13595238D01*
X6678571Y13119048D02*
X6678571Y12785714D01*
X7202381Y12642857D02*
X7202381Y13119048D01*
X6202381Y13119048D01*
X6202381Y12642857D01*
X7154762Y12261905D02*
X7202381Y12119048D01*
X7202381Y11880952D01*
X7154762Y11785714D01*
X7107143Y11738095D01*
X7011905Y11690476D01*
X6916667Y11690476D01*
X6821429Y11738095D01*
X6773810Y11785714D01*
X6726190Y11880952D01*
X6678571Y12071429D01*
X6630952Y12166667D01*
X6583333Y12214286D01*
X6488095Y12261905D01*
X6392857Y12261905D01*
X6297619Y12214286D01*
X6250000Y12166667D01*
X6202381Y12071429D01*
X6202381Y11833333D01*
X6250000Y11690476D01*
X5083333Y10297619D02*
X4416666Y10297619D01*
X5083333Y9297619D01*
X4416666Y9297619D01*
D13*
X5400000Y3460000D02*
X5400000Y11140000D01*
X5400000Y11140000D02*
X10600000Y11140000D01*
X10600000Y11140000D02*
X10600000Y860000D01*
X10600000Y860000D02*
X8000000Y860000D01*
X8000000Y860000D02*
X8000000Y3460000D01*
X8000000Y3460000D02*
X5400000Y3460000D01*
X5400000Y2190000D02*
X5400000Y860000D01*
X5400000Y860000D02*
X6730000Y860000D01*
X14310000Y54870000D02*
X11690000Y54870000D01*
X11690000Y54870000D02*
X11690000Y61290000D01*
X11690000Y61290000D02*
X14310000Y61290000D01*
X14310000Y61290000D02*
X14310000Y54870000D01*
X13000000Y53980000D02*
X13000000Y54870000D01*
X13000000Y62180000D02*
X13000000Y61290000D01*
X4310000Y54870000D02*
X1690000Y54870000D01*
X1690000Y54870000D02*
X1690000Y61290000D01*
X1690000Y61290000D02*
X4310000Y61290000D01*
X4310000Y61290000D02*
X4310000Y54870000D01*
X3000000Y53980000D02*
X3000000Y54870000D01*
X3000000Y62180000D02*
X3000000Y61290000D01*
X11130000Y50310000D02*
X11130000Y47690000D01*
X11130000Y47690000D02*
X4710000Y47690000D01*
X4710000Y47690000D02*
X4710000Y50310000D01*
X4710000Y50310000D02*
X11130000Y50310000D01*
X12020000Y49000000D02*
X11130000Y49000000D01*
X3820000Y49000000D02*
X4710000Y49000000D01*
X4190000Y43130000D02*
X6810000Y43130000D01*
X6810000Y43130000D02*
X6810000Y36710000D01*
X6810000Y36710000D02*
X4190000Y36710000D01*
X4190000Y36710000D02*
X4190000Y43130000D01*
X5500000Y44020000D02*
X5500000Y43130000D01*
X5500000Y35820000D02*
X5500000Y36710000D01*
X11810000Y36710000D02*
X9190000Y36710000D01*
X9190000Y36710000D02*
X9190000Y43130000D01*
X9190000Y43130000D02*
X11810000Y43130000D01*
X11810000Y43130000D02*
X11810000Y36710000D01*
X10500000Y35820000D02*
X10500000Y36710000D01*
X10500000Y44020000D02*
X10500000Y43130000D01*
X14100000Y69100000D02*
G75*
G03X14100000Y69100000I-6100000J0D01*
G01*
D14*
X11553572Y11660714D02*
X11553572Y12410714D01*
X11267857Y12410714D01*
X11196429Y12375000D01*
X11160714Y12339286D01*
X11125000Y12267857D01*
X11125000Y12160714D01*
X11160714Y12089286D01*
X11196429Y12053571D01*
X11267857Y12017857D01*
X11553572Y12017857D01*
X10410714Y11660714D02*
X10839286Y11660714D01*
X10625000Y11660714D02*
X10625000Y12410714D01*
X10696429Y12303571D01*
X10767857Y12232143D01*
X10839286Y12196429D01*
X15339286Y58205000D02*
X14982143Y58455000D01*
X15339286Y58633572D02*
X14589286Y58633572D01*
X14589286Y58347857D01*
X14625000Y58276429D01*
X14660714Y58240714D01*
X14732143Y58205000D01*
X14839286Y58205000D01*
X14910714Y58240714D01*
X14946429Y58276429D01*
X14982143Y58347857D01*
X14982143Y58633572D01*
X15339286Y57490714D02*
X15339286Y57919286D01*
X15339286Y57705000D02*
X14589286Y57705000D01*
X14696429Y57776429D01*
X14767857Y57847857D01*
X14803571Y57919286D01*
X5339286Y58205000D02*
X4982143Y58455000D01*
X5339286Y58633572D02*
X4589286Y58633572D01*
X4589286Y58347857D01*
X4625000Y58276429D01*
X4660714Y58240714D01*
X4732143Y58205000D01*
X4839286Y58205000D01*
X4910714Y58240714D01*
X4946429Y58276429D01*
X4982143Y58347857D01*
X4982143Y58633572D01*
X4660714Y57919286D02*
X4625000Y57883572D01*
X4589286Y57812143D01*
X4589286Y57633572D01*
X4625000Y57562143D01*
X4660714Y57526429D01*
X4732143Y57490714D01*
X4803571Y57490714D01*
X4910714Y57526429D01*
X5339286Y57955000D01*
X5339286Y57490714D01*
X8125000Y50660714D02*
X8375000Y51017857D01*
X8553572Y50660714D02*
X8553572Y51410714D01*
X8267857Y51410714D01*
X8196429Y51375000D01*
X8160714Y51339286D01*
X8125000Y51267857D01*
X8125000Y51160714D01*
X8160714Y51089286D01*
X8196429Y51053571D01*
X8267857Y51017857D01*
X8553572Y51017857D01*
X7875000Y51410714D02*
X7410714Y51410714D01*
X7660714Y51125000D01*
X7553572Y51125000D01*
X7482143Y51089286D01*
X7446429Y51053571D01*
X7410714Y50982143D01*
X7410714Y50803571D01*
X7446429Y50732143D01*
X7482143Y50696429D01*
X7553572Y50660714D01*
X7767857Y50660714D01*
X7839286Y50696429D01*
X7875000Y50732143D01*
X7125000Y35660714D02*
X7375000Y36017857D01*
X7553572Y35660714D02*
X7553572Y36410714D01*
X7267857Y36410714D01*
X7196429Y36375000D01*
X7160714Y36339286D01*
X7125000Y36267857D01*
X7125000Y36160714D01*
X7160714Y36089286D01*
X7196429Y36053571D01*
X7267857Y36017857D01*
X7553572Y36017857D01*
X6482143Y36160714D02*
X6482143Y35660714D01*
X6660714Y36446429D02*
X6839286Y35910714D01*
X6375000Y35910714D01*
X9125000Y43410714D02*
X9375000Y43767857D01*
X9553572Y43410714D02*
X9553572Y44160714D01*
X9267857Y44160714D01*
X9196429Y44125000D01*
X9160714Y44089286D01*
X9125000Y44017857D01*
X9125000Y43910714D01*
X9160714Y43839286D01*
X9196429Y43803571D01*
X9267857Y43767857D01*
X9553572Y43767857D01*
X8446429Y44160714D02*
X8803572Y44160714D01*
X8839286Y43803571D01*
X8803572Y43839286D01*
X8732143Y43875000D01*
X8553572Y43875000D01*
X8482143Y43839286D01*
X8446429Y43803571D01*
X8410714Y43732143D01*
X8410714Y43553571D01*
X8446429Y43482143D01*
X8482143Y43446429D01*
X8553572Y43410714D01*
X8732143Y43410714D01*
X8803572Y43446429D01*
X8839286Y43482143D01*
X8660715Y76053571D02*
X8553572Y76017857D01*
X8517857Y75982143D01*
X8482143Y75910714D01*
X8482143Y75803571D01*
X8517857Y75732143D01*
X8553572Y75696429D01*
X8625000Y75660714D01*
X8910715Y75660714D01*
X8910715Y76410714D01*
X8660715Y76410714D01*
X8589286Y76375000D01*
X8553572Y76339286D01*
X8517857Y76267857D01*
X8517857Y76196429D01*
X8553572Y76125000D01*
X8589286Y76089286D01*
X8660715Y76053571D01*
X8910715Y76053571D01*
X8232143Y76410714D02*
X7732143Y76410714D01*
X8232143Y75660714D01*
X7732143Y75660714D01*
X7053571Y75660714D02*
X7482143Y75660714D01*
X7267857Y75660714D02*
X7267857Y76410714D01*
X7339286Y76303571D01*
X7410714Y76232143D01*
X7482143Y76196429D01*
X4570952Y66488571D02*
X3809047Y66488571D01*
X4189999Y66107619D02*
X4189999Y66869524D01*
M02*
