M48
METRIC,TZ
T1C0.300
T2C0.800
T3C0.900
T4C1.000
T5C1.100
%
G90
G05
T1
X5750Y38750
X6250Y48750
X8000Y27500
X9398Y31398
X10250Y38750
T2
X2840Y49000
X3000Y63160
X3000Y53000
X5500Y45000
X5500Y34840
X10500Y45000
X10500Y34840
X13000Y63160
X13000Y53000
X13000Y49000
T3
X2000Y39270
X2000Y36730
X2000Y32270
X2000Y29730
X6730Y72000
X6730Y63000
X6730Y54000
X9270Y72000
X9270Y63000
X9270Y54000
T4
X4200Y69100
X6730Y9810
X6730Y7270
X6730Y4730
X6730Y2190
X9270Y9810
X9270Y7270
X9270Y4730
X9270Y2190
X11800Y69100
T5
X6000Y25152
X6000Y20652
X12500Y25152
X12500Y20652
T0
M30
