G04 #@! TF.FileFunction,Legend,Top*
%FSLAX46Y46*%
G04 Gerber Fmt 4.6, Leading zero omitted, Abs format (unit mm)*
G04 Created by KiCad (PCBNEW 4.0.6-e0-6349~53~ubuntu16.04.1) date Tue May  9 17:32:04 2017*
%MOMM*%
%LPD*%
G01*
G04 APERTURE LIST*
%ADD10C,0.100000*%
%ADD11C,0.250000*%
%ADD12C,0.187500*%
%ADD13C,0.180000*%
%ADD14C,0.150000*%
G04 APERTURE END LIST*
D10*
D11*
X14535714Y54392857D02*
X14535714Y54773809D01*
X15202381Y54535714D02*
X14345238Y54535714D01*
X14250000Y54583333D01*
X14202381Y54678571D01*
X14202381Y54773809D01*
X15202381Y55535715D02*
X14678571Y55535715D01*
X14583333Y55488096D01*
X14535714Y55392858D01*
X14535714Y55202381D01*
X14583333Y55107143D01*
X15154762Y55535715D02*
X15202381Y55440477D01*
X15202381Y55202381D01*
X15154762Y55107143D01*
X15059524Y55059524D01*
X14964286Y55059524D01*
X14869048Y55107143D01*
X14821429Y55202381D01*
X14821429Y55440477D01*
X14773810Y55535715D01*
X15202381Y56011905D02*
X14202381Y56011905D01*
X14583333Y56011905D02*
X14535714Y56107143D01*
X14535714Y56297620D01*
X14583333Y56392858D01*
X14630952Y56440477D01*
X14726190Y56488096D01*
X15011905Y56488096D01*
X15107143Y56440477D01*
X15154762Y56392858D01*
X15202381Y56297620D01*
X15202381Y56107143D01*
X15154762Y56011905D01*
X15202381Y56916667D02*
X14535714Y56916667D01*
X14726190Y56916667D02*
X14630952Y56964286D01*
X14583333Y57011905D01*
X14535714Y57107143D01*
X14535714Y57202382D01*
X15202381Y57535715D02*
X14535714Y57535715D01*
X14202381Y57535715D02*
X14250000Y57488096D01*
X14297619Y57535715D01*
X14250000Y57583334D01*
X14202381Y57535715D01*
X14297619Y57535715D01*
X15154762Y58440477D02*
X15202381Y58345239D01*
X15202381Y58154762D01*
X15154762Y58059524D01*
X15107143Y58011905D01*
X15011905Y57964286D01*
X14726190Y57964286D01*
X14630952Y58011905D01*
X14583333Y58059524D01*
X14535714Y58154762D01*
X14535714Y58345239D01*
X14583333Y58440477D01*
X15202381Y59297620D02*
X14678571Y59297620D01*
X14583333Y59250001D01*
X14535714Y59154763D01*
X14535714Y58964286D01*
X14583333Y58869048D01*
X15154762Y59297620D02*
X15202381Y59202382D01*
X15202381Y58964286D01*
X15154762Y58869048D01*
X15059524Y58821429D01*
X14964286Y58821429D01*
X14869048Y58869048D01*
X14821429Y58964286D01*
X14821429Y59202382D01*
X14773810Y59297620D01*
X15202381Y60202382D02*
X14202381Y60202382D01*
X15154762Y60202382D02*
X15202381Y60107144D01*
X15202381Y59916667D01*
X15154762Y59821429D01*
X15107143Y59773810D01*
X15011905Y59726191D01*
X14726190Y59726191D01*
X14630952Y59773810D01*
X14583333Y59821429D01*
X14535714Y59916667D01*
X14535714Y60107144D01*
X14583333Y60202382D01*
X15202381Y60678572D02*
X14535714Y60678572D01*
X14202381Y60678572D02*
X14250000Y60630953D01*
X14297619Y60678572D01*
X14250000Y60726191D01*
X14202381Y60678572D01*
X14297619Y60678572D01*
X14535714Y61583334D02*
X15345238Y61583334D01*
X15440476Y61535715D01*
X15488095Y61488096D01*
X15535714Y61392857D01*
X15535714Y61250000D01*
X15488095Y61154762D01*
X15154762Y61583334D02*
X15202381Y61488096D01*
X15202381Y61297619D01*
X15154762Y61202381D01*
X15107143Y61154762D01*
X15011905Y61107143D01*
X14726190Y61107143D01*
X14630952Y61154762D01*
X14583333Y61202381D01*
X14535714Y61297619D01*
X14535714Y61488096D01*
X14583333Y61583334D01*
X15202381Y62059524D02*
X14535714Y62059524D01*
X14202381Y62059524D02*
X14250000Y62011905D01*
X14297619Y62059524D01*
X14250000Y62107143D01*
X14202381Y62059524D01*
X14297619Y62059524D01*
X14535714Y62392857D02*
X14535714Y62773809D01*
X14202381Y62535714D02*
X15059524Y62535714D01*
X15154762Y62583333D01*
X15202381Y62678571D01*
X15202381Y62773809D01*
X15202381Y63535715D02*
X14678571Y63535715D01*
X14583333Y63488096D01*
X14535714Y63392858D01*
X14535714Y63202381D01*
X14583333Y63107143D01*
X15154762Y63535715D02*
X15202381Y63440477D01*
X15202381Y63202381D01*
X15154762Y63107143D01*
X15059524Y63059524D01*
X14964286Y63059524D01*
X14869048Y63107143D01*
X14821429Y63202381D01*
X14821429Y63440477D01*
X14773810Y63535715D01*
X15202381Y64154762D02*
X15154762Y64059524D01*
X15059524Y64011905D01*
X14202381Y64011905D01*
X15107143Y64535715D02*
X15154762Y64583334D01*
X15202381Y64535715D01*
X15154762Y64488096D01*
X15107143Y64535715D01*
X15202381Y64535715D01*
X15202381Y65154762D02*
X15154762Y65059524D01*
X15107143Y65011905D01*
X15011905Y64964286D01*
X14726190Y64964286D01*
X14630952Y65011905D01*
X14583333Y65059524D01*
X14535714Y65154762D01*
X14535714Y65297620D01*
X14583333Y65392858D01*
X14630952Y65440477D01*
X14726190Y65488096D01*
X15011905Y65488096D01*
X15107143Y65440477D01*
X15154762Y65392858D01*
X15202381Y65297620D01*
X15202381Y65154762D01*
X15202381Y65916667D02*
X14535714Y65916667D01*
X14726190Y65916667D02*
X14630952Y65964286D01*
X14583333Y66011905D01*
X14535714Y66107143D01*
X14535714Y66202382D01*
X14535714Y66964287D02*
X15345238Y66964287D01*
X15440476Y66916668D01*
X15488095Y66869049D01*
X15535714Y66773810D01*
X15535714Y66630953D01*
X15488095Y66535715D01*
X15154762Y66964287D02*
X15202381Y66869049D01*
X15202381Y66678572D01*
X15154762Y66583334D01*
X15107143Y66535715D01*
X15011905Y66488096D01*
X14726190Y66488096D01*
X14630952Y66535715D01*
X14583333Y66583334D01*
X14535714Y66678572D01*
X14535714Y66869049D01*
X14583333Y66964287D01*
D12*
X4416667Y10297619D02*
X5083334Y10297619D01*
X4416667Y9297619D01*
X5083334Y9297619D01*
X9607143Y12309524D02*
X9654762Y12261905D01*
X9702381Y12119048D01*
X9702381Y12023810D01*
X9654762Y11880952D01*
X9559524Y11785714D01*
X9464286Y11738095D01*
X9273810Y11690476D01*
X9130952Y11690476D01*
X8940476Y11738095D01*
X8845238Y11785714D01*
X8750000Y11880952D01*
X8702381Y12023810D01*
X8702381Y12119048D01*
X8750000Y12261905D01*
X8797619Y12309524D01*
X8702381Y12928571D02*
X8702381Y13119048D01*
X8750000Y13214286D01*
X8845238Y13309524D01*
X9035714Y13357143D01*
X9369048Y13357143D01*
X9559524Y13309524D01*
X9654762Y13214286D01*
X9702381Y13119048D01*
X9702381Y12928571D01*
X9654762Y12833333D01*
X9559524Y12738095D01*
X9369048Y12690476D01*
X9035714Y12690476D01*
X8845238Y12738095D01*
X8750000Y12833333D01*
X8702381Y12928571D01*
X9607143Y14357143D02*
X9654762Y14309524D01*
X9702381Y14166667D01*
X9702381Y14071429D01*
X9654762Y13928571D01*
X9559524Y13833333D01*
X9464286Y13785714D01*
X9273810Y13738095D01*
X9130952Y13738095D01*
X8940476Y13785714D01*
X8845238Y13833333D01*
X8750000Y13928571D01*
X8702381Y14071429D01*
X8702381Y14166667D01*
X8750000Y14309524D01*
X8797619Y14357143D01*
X9702381Y14785714D02*
X8702381Y14785714D01*
X9178571Y14785714D02*
X9178571Y15357143D01*
X9702381Y15357143D02*
X8702381Y15357143D01*
X9178571Y15833333D02*
X9178571Y16166667D01*
X9702381Y16309524D02*
X9702381Y15833333D01*
X8702381Y15833333D01*
X8702381Y16309524D01*
X9654762Y16690476D02*
X9702381Y16833333D01*
X9702381Y17071429D01*
X9654762Y17166667D01*
X9607143Y17214286D01*
X9511905Y17261905D01*
X9416667Y17261905D01*
X9321429Y17214286D01*
X9273810Y17166667D01*
X9226190Y17071429D01*
X9178571Y16880952D01*
X9130952Y16785714D01*
X9083333Y16738095D01*
X8988095Y16690476D01*
X8892857Y16690476D01*
X8797619Y16738095D01*
X8750000Y16785714D01*
X8702381Y16880952D01*
X8702381Y17119048D01*
X8750000Y17261905D01*
X11700000Y2859523D02*
X11738095Y2935714D01*
X11738095Y3049999D01*
X11700000Y3164285D01*
X11623810Y3240476D01*
X11547619Y3278571D01*
X11395238Y3316666D01*
X11280952Y3316666D01*
X11128571Y3278571D01*
X11052381Y3240476D01*
X10976190Y3164285D01*
X10938095Y3049999D01*
X10938095Y2973809D01*
X10976190Y2859523D01*
X11014286Y2821428D01*
X11280952Y2821428D01*
X11280952Y2973809D01*
X10938095Y2478571D02*
X11738095Y2478571D01*
X10938095Y2021428D01*
X11738095Y2021428D01*
X10938095Y1640476D02*
X11738095Y1640476D01*
X11738095Y1450000D01*
X11700000Y1335714D01*
X11623810Y1259523D01*
X11547619Y1221428D01*
X11395238Y1183333D01*
X11280952Y1183333D01*
X11128571Y1221428D01*
X11052381Y1259523D01*
X10976190Y1335714D01*
X10938095Y1450000D01*
X10938095Y1640476D01*
X4300000Y1640477D02*
X4261905Y1564286D01*
X4261905Y1450001D01*
X4300000Y1335715D01*
X4376190Y1259524D01*
X4452381Y1221429D01*
X4604762Y1183334D01*
X4719048Y1183334D01*
X4871429Y1221429D01*
X4947619Y1259524D01*
X5023810Y1335715D01*
X5061905Y1450001D01*
X5061905Y1526191D01*
X5023810Y1640477D01*
X4985714Y1678572D01*
X4719048Y1678572D01*
X4719048Y1526191D01*
X5061905Y2021429D02*
X4261905Y2021429D01*
X5061905Y2478572D01*
X4261905Y2478572D01*
X5061905Y2859524D02*
X4261905Y2859524D01*
X4261905Y3050000D01*
X4300000Y3164286D01*
X4376190Y3240477D01*
X4452381Y3278572D01*
X4604762Y3316667D01*
X4719048Y3316667D01*
X4871429Y3278572D01*
X4947619Y3240477D01*
X5023810Y3164286D01*
X5061905Y3050000D01*
X5061905Y2859524D01*
X11011905Y7083333D02*
X11488096Y7083333D01*
X10916667Y6797619D02*
X11250000Y7797619D01*
X11583334Y6797619D01*
X11559524Y4297619D02*
X11226190Y4773810D01*
X10988095Y4297619D02*
X10988095Y5297619D01*
X11369048Y5297619D01*
X11464286Y5250000D01*
X11511905Y5202381D01*
X11559524Y5107143D01*
X11559524Y4964286D01*
X11511905Y4869048D01*
X11464286Y4821429D01*
X11369048Y4773810D01*
X10988095Y4773810D01*
X10916667Y10297619D02*
X11250000Y9297619D01*
X11583334Y10297619D01*
X5059524Y4297619D02*
X4726190Y4773810D01*
X4488095Y4297619D02*
X4488095Y5297619D01*
X4869048Y5297619D01*
X4964286Y5250000D01*
X5011905Y5202381D01*
X5059524Y5107143D01*
X5059524Y4964286D01*
X5011905Y4869048D01*
X4964286Y4821429D01*
X4869048Y4773810D01*
X4488095Y4773810D01*
X4416667Y7797619D02*
X4750000Y6797619D01*
X5083334Y7797619D01*
X7202381Y11738095D02*
X6202381Y11738095D01*
X6202381Y12119048D01*
X6250000Y12214286D01*
X6297619Y12261905D01*
X6392857Y12309524D01*
X6535714Y12309524D01*
X6630952Y12261905D01*
X6678571Y12214286D01*
X6726190Y12119048D01*
X6726190Y11738095D01*
X6678571Y12738095D02*
X6678571Y13071429D01*
X7202381Y13214286D02*
X7202381Y12738095D01*
X6202381Y12738095D01*
X6202381Y13214286D01*
X6916667Y13595238D02*
X6916667Y14071429D01*
X7202381Y13500000D02*
X6202381Y13833333D01*
X7202381Y14166667D01*
X6202381Y14357143D02*
X6202381Y14928572D01*
X7202381Y14642857D02*
X6202381Y14642857D01*
X6202381Y15452381D02*
X6202381Y15642858D01*
X6250000Y15738096D01*
X6345238Y15833334D01*
X6535714Y15880953D01*
X6869048Y15880953D01*
X7059524Y15833334D01*
X7154762Y15738096D01*
X7202381Y15642858D01*
X7202381Y15452381D01*
X7154762Y15357143D01*
X7059524Y15261905D01*
X6869048Y15214286D01*
X6535714Y15214286D01*
X6345238Y15261905D01*
X6250000Y15357143D01*
X6202381Y15452381D01*
X7202381Y16309524D02*
X6202381Y16309524D01*
X7202381Y16880953D01*
X6202381Y16880953D01*
X6678571Y17357143D02*
X6678571Y17690477D01*
X7202381Y17833334D02*
X7202381Y17357143D01*
X6202381Y17357143D01*
X6202381Y17833334D01*
X7154762Y18214286D02*
X7202381Y18357143D01*
X7202381Y18595239D01*
X7154762Y18690477D01*
X7107143Y18738096D01*
X7011905Y18785715D01*
X6916667Y18785715D01*
X6821429Y18738096D01*
X6773810Y18690477D01*
X6726190Y18595239D01*
X6678571Y18404762D01*
X6630952Y18309524D01*
X6583333Y18261905D01*
X6488095Y18214286D01*
X6392857Y18214286D01*
X6297619Y18261905D01*
X6250000Y18309524D01*
X6202381Y18404762D01*
X6202381Y18642858D01*
X6250000Y18785715D01*
D11*
X9702381Y20761905D02*
X10702381Y21095238D01*
X9702381Y21428572D01*
X10178571Y21761905D02*
X10178571Y22095239D01*
X10702381Y22238096D02*
X10702381Y21761905D01*
X9702381Y21761905D01*
X9702381Y22238096D01*
X10702381Y23238096D02*
X10226190Y22904762D01*
X10702381Y22666667D02*
X9702381Y22666667D01*
X9702381Y23047620D01*
X9750000Y23142858D01*
X9797619Y23190477D01*
X9892857Y23238096D01*
X10035714Y23238096D01*
X10130952Y23190477D01*
X10178571Y23142858D01*
X10226190Y23047620D01*
X10226190Y22666667D01*
X10702381Y23666667D02*
X9702381Y23666667D01*
X9702381Y23904762D01*
X9750000Y24047620D01*
X9845238Y24142858D01*
X9940476Y24190477D01*
X10130952Y24238096D01*
X10273810Y24238096D01*
X10464286Y24190477D01*
X10559524Y24142858D01*
X10654762Y24047620D01*
X10702381Y23904762D01*
X10702381Y23666667D01*
X10178571Y24666667D02*
X10178571Y25000001D01*
X10702381Y25142858D02*
X10702381Y24666667D01*
X9702381Y24666667D01*
X9702381Y25142858D01*
X10702381Y29380953D02*
X10226190Y29047619D01*
X10702381Y28809524D02*
X9702381Y28809524D01*
X9702381Y29190477D01*
X9750000Y29285715D01*
X9797619Y29333334D01*
X9892857Y29380953D01*
X10035714Y29380953D01*
X10130952Y29333334D01*
X10178571Y29285715D01*
X10226190Y29190477D01*
X10226190Y28809524D01*
X9702381Y30000000D02*
X9702381Y30190477D01*
X9750000Y30285715D01*
X9845238Y30380953D01*
X10035714Y30428572D01*
X10369048Y30428572D01*
X10559524Y30380953D01*
X10654762Y30285715D01*
X10702381Y30190477D01*
X10702381Y30000000D01*
X10654762Y29904762D01*
X10559524Y29809524D01*
X10369048Y29761905D01*
X10035714Y29761905D01*
X9845238Y29809524D01*
X9750000Y29904762D01*
X9702381Y30000000D01*
X9702381Y31142858D02*
X10416667Y31142858D01*
X10559524Y31095238D01*
X10654762Y31000000D01*
X10702381Y30857143D01*
X10702381Y30761905D01*
X9702381Y31809524D02*
X9702381Y32000001D01*
X9750000Y32095239D01*
X9845238Y32190477D01*
X10035714Y32238096D01*
X10369048Y32238096D01*
X10559524Y32190477D01*
X10654762Y32095239D01*
X10702381Y32000001D01*
X10702381Y31809524D01*
X10654762Y31714286D01*
X10559524Y31619048D01*
X10369048Y31571429D01*
X10035714Y31571429D01*
X9845238Y31619048D01*
X9750000Y31714286D01*
X9702381Y31809524D01*
X5761905Y58547619D02*
X6095238Y57547619D01*
X6428572Y58547619D01*
X6761905Y58071429D02*
X7095239Y58071429D01*
X7238096Y57547619D02*
X6761905Y57547619D01*
X6761905Y58547619D01*
X7238096Y58547619D01*
X8238096Y57547619D02*
X7904762Y58023810D01*
X7666667Y57547619D02*
X7666667Y58547619D01*
X8047620Y58547619D01*
X8142858Y58500000D01*
X8190477Y58452381D01*
X8238096Y58357143D01*
X8238096Y58214286D01*
X8190477Y58119048D01*
X8142858Y58071429D01*
X8047620Y58023810D01*
X7666667Y58023810D01*
X8666667Y57547619D02*
X8666667Y58547619D01*
X8904762Y58547619D01*
X9047620Y58500000D01*
X9142858Y58404762D01*
X9190477Y58309524D01*
X9238096Y58119048D01*
X9238096Y57976190D01*
X9190477Y57785714D01*
X9142858Y57690476D01*
X9047620Y57595238D01*
X8904762Y57547619D01*
X8666667Y57547619D01*
X9666667Y58071429D02*
X10000001Y58071429D01*
X10142858Y57547619D02*
X9666667Y57547619D01*
X9666667Y58547619D01*
X10142858Y58547619D01*
X5761905Y66833333D02*
X6238096Y66833333D01*
X5666667Y66547619D02*
X6000000Y67547619D01*
X6333334Y66547619D01*
X6095239Y67928571D02*
X5952381Y67785714D01*
X6666667Y66547619D02*
X6666667Y67547619D01*
X7000001Y66833333D01*
X7333334Y67547619D01*
X7333334Y66547619D01*
X8142858Y67071429D02*
X8285715Y67023810D01*
X8333334Y66976190D01*
X8380953Y66880952D01*
X8380953Y66738095D01*
X8333334Y66642857D01*
X8285715Y66595238D01*
X8190477Y66547619D01*
X7809524Y66547619D01*
X7809524Y67547619D01*
X8142858Y67547619D01*
X8238096Y67500000D01*
X8285715Y67452381D01*
X8333334Y67357143D01*
X8333334Y67261905D01*
X8285715Y67166667D01*
X8238096Y67119048D01*
X8142858Y67071429D01*
X7809524Y67071429D01*
X8761905Y66833333D02*
X9238096Y66833333D01*
X8666667Y66547619D02*
X9000000Y67547619D01*
X9333334Y66547619D01*
X10238096Y66547619D02*
X9904762Y67023810D01*
X9666667Y66547619D02*
X9666667Y67547619D01*
X10047620Y67547619D01*
X10142858Y67500000D01*
X10190477Y67452381D01*
X10238096Y67357143D01*
X10238096Y67214286D01*
X10190477Y67119048D01*
X10142858Y67071429D01*
X10047620Y67023810D01*
X9666667Y67023810D01*
X6880953Y75547619D02*
X6547619Y76023810D01*
X6309524Y75547619D02*
X6309524Y76547619D01*
X6690477Y76547619D01*
X6785715Y76500000D01*
X6833334Y76452381D01*
X6880953Y76357143D01*
X6880953Y76214286D01*
X6833334Y76119048D01*
X6785715Y76071429D01*
X6690477Y76023810D01*
X6309524Y76023810D01*
X7500000Y76547619D02*
X7690477Y76547619D01*
X7785715Y76500000D01*
X7880953Y76404762D01*
X7928572Y76214286D01*
X7928572Y75880952D01*
X7880953Y75690476D01*
X7785715Y75595238D01*
X7690477Y75547619D01*
X7500000Y75547619D01*
X7404762Y75595238D01*
X7309524Y75690476D01*
X7261905Y75880952D01*
X7261905Y76214286D01*
X7309524Y76404762D01*
X7404762Y76500000D01*
X7500000Y76547619D01*
X8642858Y76547619D02*
X8642858Y75833333D01*
X8595238Y75690476D01*
X8500000Y75595238D01*
X8357143Y75547619D01*
X8261905Y75547619D01*
X9309524Y76547619D02*
X9500001Y76547619D01*
X9595239Y76500000D01*
X9690477Y76404762D01*
X9738096Y76214286D01*
X9738096Y75880952D01*
X9690477Y75690476D01*
X9595239Y75595238D01*
X9500001Y75547619D01*
X9309524Y75547619D01*
X9214286Y75595238D01*
X9119048Y75690476D01*
X9071429Y75880952D01*
X9071429Y76214286D01*
X9119048Y76404762D01*
X9214286Y76500000D01*
X9309524Y76547619D01*
D13*
X10200000Y61800000D02*
X9400000Y61800000D01*
X9800000Y62200000D02*
X9800000Y61400000D01*
X11000000Y63000000D02*
G75*
G03X11000000Y63000000I-3000000J0D01*
G01*
X10200000Y52800000D02*
X9400000Y52800000D01*
X9800000Y53200000D02*
X9800000Y52400000D01*
X11000000Y54000000D02*
G75*
G03X11000000Y54000000I-3000000J0D01*
G01*
X4800000Y28300000D02*
X4800000Y29100000D01*
X5200000Y28700000D02*
X4400000Y28700000D01*
X9000000Y30500000D02*
G75*
G03X9000000Y30500000I-3000000J0D01*
G01*
X4800000Y20800000D02*
X4800000Y21600000D01*
X5200000Y21200000D02*
X4400000Y21200000D01*
X9000000Y23000000D02*
G75*
G03X9000000Y23000000I-3000000J0D01*
G01*
X10200000Y70800000D02*
X9400000Y70800000D01*
X9800000Y71200000D02*
X9800000Y70400000D01*
X11000000Y72000000D02*
G75*
G03X11000000Y72000000I-3000000J0D01*
G01*
D14*
X10546428Y65160714D02*
X10546428Y65910714D01*
X10725000Y65910714D01*
X10832143Y65875000D01*
X10903571Y65803571D01*
X10939286Y65732143D01*
X10975000Y65589286D01*
X10975000Y65482143D01*
X10939286Y65339286D01*
X10903571Y65267857D01*
X10832143Y65196429D01*
X10725000Y65160714D01*
X10546428Y65160714D01*
X11260714Y65839286D02*
X11296428Y65875000D01*
X11367857Y65910714D01*
X11546428Y65910714D01*
X11617857Y65875000D01*
X11653571Y65839286D01*
X11689286Y65767857D01*
X11689286Y65696429D01*
X11653571Y65589286D01*
X11225000Y65160714D01*
X11689286Y65160714D01*
X10546428Y56160714D02*
X10546428Y56910714D01*
X10725000Y56910714D01*
X10832143Y56875000D01*
X10903571Y56803571D01*
X10939286Y56732143D01*
X10975000Y56589286D01*
X10975000Y56482143D01*
X10939286Y56339286D01*
X10903571Y56267857D01*
X10832143Y56196429D01*
X10725000Y56160714D01*
X10546428Y56160714D01*
X11225000Y56910714D02*
X11689286Y56910714D01*
X11439286Y56625000D01*
X11546428Y56625000D01*
X11617857Y56589286D01*
X11653571Y56553571D01*
X11689286Y56482143D01*
X11689286Y56303571D01*
X11653571Y56232143D01*
X11617857Y56196429D01*
X11546428Y56160714D01*
X11332143Y56160714D01*
X11260714Y56196429D01*
X11225000Y56232143D01*
X8639286Y33246428D02*
X7889286Y33246428D01*
X7889286Y33425000D01*
X7925000Y33532143D01*
X7996429Y33603571D01*
X8067857Y33639286D01*
X8210714Y33675000D01*
X8317857Y33675000D01*
X8460714Y33639286D01*
X8532143Y33603571D01*
X8603571Y33532143D01*
X8639286Y33425000D01*
X8639286Y33246428D01*
X8139286Y34317857D02*
X8639286Y34317857D01*
X7853571Y34139286D02*
X8389286Y33960714D01*
X8389286Y34425000D01*
X8639286Y25746428D02*
X7889286Y25746428D01*
X7889286Y25925000D01*
X7925000Y26032143D01*
X7996429Y26103571D01*
X8067857Y26139286D01*
X8210714Y26175000D01*
X8317857Y26175000D01*
X8460714Y26139286D01*
X8532143Y26103571D01*
X8603571Y26032143D01*
X8639286Y25925000D01*
X8639286Y25746428D01*
X7889286Y26853571D02*
X7889286Y26496428D01*
X8246429Y26460714D01*
X8210714Y26496428D01*
X8175000Y26567857D01*
X8175000Y26746428D01*
X8210714Y26817857D01*
X8246429Y26853571D01*
X8317857Y26889286D01*
X8496429Y26889286D01*
X8567857Y26853571D01*
X8603571Y26817857D01*
X8639286Y26746428D01*
X8639286Y26567857D01*
X8603571Y26496428D01*
X8567857Y26460714D01*
X10546428Y74160714D02*
X10546428Y74910714D01*
X10725000Y74910714D01*
X10832143Y74875000D01*
X10903571Y74803571D01*
X10939286Y74732143D01*
X10975000Y74589286D01*
X10975000Y74482143D01*
X10939286Y74339286D01*
X10903571Y74267857D01*
X10832143Y74196429D01*
X10725000Y74160714D01*
X10546428Y74160714D01*
X11689286Y74160714D02*
X11260714Y74160714D01*
X11475000Y74160714D02*
X11475000Y74910714D01*
X11403571Y74803571D01*
X11332143Y74732143D01*
X11260714Y74696429D01*
M02*
