M48
METRIC,TZ
T1C0.300
T2C0.800
T3C0.900
T4C1.000
%
G90
G05
T1
X5750Y38750
X6250Y48750
X6500Y26500
X6500Y13500
X9575Y24500
X10250Y38750
X10500Y13500
T2
X2840Y49000
X3000Y63160
X3000Y53000
X5500Y45000
X5500Y34840
X10500Y45000
X10500Y34840
X13000Y63160
X13000Y53000
X13000Y49000
T3
X6000Y31770
X6000Y29230
X6000Y24270
X6000Y21730
X6730Y72000
X6730Y63000
X6730Y54000
X9270Y72000
X9270Y63000
X9270Y54000
T4
X4200Y69100
X6730Y9810
X6730Y7270
X6730Y4730
X6730Y2190
X9270Y9810
X9270Y7270
X9270Y4730
X9270Y2190
X11800Y69100
T0
M30
